<?xml version="1.0" encoding="UTF-8" standalone="no"?>
<svg
   xmlns:dc="http://purl.org/dc/elements/1.1/"
   xmlns:cc="http://creativecommons.org/ns#"
   xmlns:rdf="http://www.w3.org/1999/02/22-rdf-syntax-ns#"
   xmlns:svg="http://www.w3.org/2000/svg"
   xmlns="http://www.w3.org/2000/svg"
   viewBox="0 0 1889.76 2645.6667"
   height="2645.6667"
   width="1889.76"
   xml:space="preserve"
   id="svg6016"
   version="1.1"><metadata
     id="metadata6022"><rdf:RDF><cc:Work
         rdf:about=""><dc:format>image/svg+xml</dc:format><dc:type
           rdf:resource="http://purl.org/dc/dcmitype/StillImage" /><dc:title></dc:title></cc:Work></rdf:RDF></metadata><defs
     id="defs6020"><clipPath
       id="clipPath6032"
       clipPathUnits="userSpaceOnUse"><path
         id="path6030"
         d="M 0,1984.25 H 1417.32 V 0 H 0 Z" /></clipPath><clipPath
       id="clipPath6104"
       clipPathUnits="userSpaceOnUse"><path
         id="path6102"
         d="M 0,1984.25 H 1417.32 V 0 H 0 Z" /></clipPath><clipPath
       id="clipPath6176"
       clipPathUnits="userSpaceOnUse"><path
         id="path6174"
         d="M 0,1984.25 H 1417.32 V 0 H 0 Z" /></clipPath><clipPath
       id="clipPath6244"
       clipPathUnits="userSpaceOnUse"><path
         id="path6242"
         d="M 0,1984.25 H 1417.32 V 0 H 0 Z" /></clipPath></defs><g
     transform="matrix(1.3333333,0,0,-1.3333333,0,2645.6667)"
     id="g6024"><g
       id="g6098"><g
         clip-path="url(#clipPath6104)"
         id="g6100"><g
           transform="translate(430.1431,1077.7104)"
           id="g6106"><path
             id="path6108"
             style="fill:#b96d3b;fill-opacity:1;fill-rule:nonzero;stroke:none"
             d="m 0,0 c 0,0 -34.286,-375.997 -12,-730.853 0,0 6,-123.429 126.857,-118 0,0 122.072,4.856 125.322,97.429 v 168 c 0,0 63.007,-24 118.842,0 v -157.715 c 0,0 -7.574,-102.858 125.273,-104.571 0,0 112.277,-10.287 115.706,101.142 0,0 5.143,490.571 -27.429,777.572 C 572.571,33.004 202.286,-81.718 0,0" /></g><g
           transform="translate(430.1431,1077.7104)"
           id="g6110"><path
             id="path6112"
             style="fill:none;stroke:#1d1d1b;stroke-width:12;stroke-linecap:butt;stroke-linejoin:miter;stroke-miterlimit:10;stroke-dasharray:none;stroke-opacity:1"
             d="m 0,0 c 0,0 -34.286,-375.997 -12,-730.853 0,0 6,-123.429 126.857,-118 0,0 122.072,4.856 125.322,97.429 v 168 c 0,0 63.007,-24 118.842,0 v -157.715 c 0,0 -7.574,-102.858 125.273,-104.571 0,0 112.277,-10.287 115.706,101.142 0,0 5.143,490.571 -27.429,777.572 C 572.571,33.004 202.286,-81.718 0,0 Z" /></g><g
           transform="translate(491.3569,241)"
           id="g6114"><path
             id="path6116"
             style="fill:#d3b59d;fill-opacity:1;fill-rule:nonzero;stroke:none"
             d="m 0,0 v 23.857 c 0,0 -3,18.857 19.072,18 0,0 14.785,0.429 14.142,-17.143 L 33.235,-4 C 33.235,-4 19.214,-4.714 0,0" /></g><g
           transform="translate(491.3569,241)"
           id="g6118"><path
             id="path6120"
             style="fill:none;stroke:#1d1d1b;stroke-width:7;stroke-linecap:butt;stroke-linejoin:miter;stroke-miterlimit:10;stroke-dasharray:none;stroke-opacity:1"
             d="m 0,0 v 23.857 c 0,0 -3,18.857 19.072,18 0,0 14.785,0.429 14.142,-17.143 L 33.235,-4 C 33.235,-4 19.214,-4.714 0,0 Z" /></g><g
           transform="translate(525.3569,237)"
           id="g6122"><path
             id="path6124"
             style="fill:#d3b59d;fill-opacity:1;fill-rule:nonzero;stroke:none"
             d="m 0,0 v 27.857 c 0,0 -3,18.857 19.072,18 0,0 14.785,0.429 14.142,-17.143 L 33.235,0 C 33.235,0 19.214,-4.714 0,0" /></g><g
           transform="translate(525.3569,237)"
           id="g6126"><path
             id="path6128"
             style="fill:none;stroke:#1d1d1b;stroke-width:7;stroke-linecap:butt;stroke-linejoin:miter;stroke-miterlimit:10;stroke-dasharray:none;stroke-opacity:1"
             d="m 0,0 v 27.857 c 0,0 -3,18.857 19.072,18 0,0 14.785,0.429 14.142,-17.143 L 33.235,0 C 33.235,0 19.214,-4.714 0,0 Z" /></g><g
           transform="translate(559.3574,238)"
           id="g6130"><path
             id="path6132"
             style="fill:#d3b59d;fill-opacity:1;fill-rule:nonzero;stroke:none"
             d="m 0,0 v 26.857 c 0,0 -3,18.857 19.071,18 0,0 14.786,0.429 14.143,-17.143 L 33.234,5 C 33.234,5 19.214,-4.714 0,0" /></g><g
           transform="translate(559.3574,238)"
           id="g6134"><path
             id="path6136"
             style="fill:none;stroke:#1d1d1b;stroke-width:7;stroke-linecap:butt;stroke-linejoin:miter;stroke-miterlimit:10;stroke-dasharray:none;stroke-opacity:1"
             d="m 0,0 v 26.857 c 0,0 -3,18.857 19.071,18 0,0 14.786,0.429 14.143,-17.143 L 33.234,5 C 33.234,5 19.214,-4.714 0,0 Z" /></g><g
           transform="translate(968.4551,241)"
           id="g6138"><path
             id="path6140"
             style="fill:#d3b59d;fill-opacity:1;fill-rule:nonzero;stroke:none"
             d="m 0,0 v 23.857 c 0,0 3,18.857 -19.071,18 0,0 -14.786,0.429 -14.143,-17.143 L -33.234,-4 c 0,0 14.02,-0.714 33.234,4" /></g><g
           transform="translate(968.4551,241)"
           id="g6142"><path
             id="path6144"
             style="fill:none;stroke:#1d1d1b;stroke-width:7;stroke-linecap:butt;stroke-linejoin:miter;stroke-miterlimit:10;stroke-dasharray:none;stroke-opacity:1"
             d="m 0,0 v 23.857 c 0,0 3,18.857 -19.071,18 0,0 -14.786,0.429 -14.143,-17.143 L -33.234,-4 c 0,0 14.02,-0.714 33.234,4 z" /></g><g
           transform="translate(934.4551,237)"
           id="g6146"><path
             id="path6148"
             style="fill:#d3b59d;fill-opacity:1;fill-rule:nonzero;stroke:none"
             d="m 0,0 v 27.857 c 0,0 3,18.857 -19.071,18 0,0 -14.786,0.429 -14.144,-17.143 L -33.234,0 c 0,0 14.019,-4.714 33.234,0" /></g><g
           transform="translate(934.4551,237)"
           id="g6150"><path
             id="path6152"
             style="fill:none;stroke:#1d1d1b;stroke-width:7;stroke-linecap:butt;stroke-linejoin:miter;stroke-miterlimit:10;stroke-dasharray:none;stroke-opacity:1"
             d="m 0,0 v 27.857 c 0,0 3,18.857 -19.071,18 0,0 -14.786,0.429 -14.144,-17.143 L -33.234,0 c 0,0 14.019,-4.714 33.234,0 z" /></g><g
           transform="translate(900.4551,238)"
           id="g6154"><path
             id="path6156"
             style="fill:#d3b59d;fill-opacity:1;fill-rule:nonzero;stroke:none"
             d="m 0,0 v 26.857 c 0,0 3,18.857 -19.071,18 0,0 -14.786,0.429 -14.144,-17.143 L -33.234,5 c 0,0 14.019,-9.714 33.234,-5" /></g><g
           transform="translate(900.4551,238)"
           id="g6158"><path
             id="path6160"
             style="fill:none;stroke:#1d1d1b;stroke-width:7;stroke-linecap:butt;stroke-linejoin:miter;stroke-miterlimit:10;stroke-dasharray:none;stroke-opacity:1"
             d="m 0,0 v 26.857 c 0,0 3,18.857 -19.071,18 0,0 -14.786,0.429 -14.144,-17.143 L -33.234,5 c 0,0 14.019,-9.714 33.234,-5 z" /></g><g
           transform="translate(882.084,531.5869)"
           id="g6162"><path
             id="path6164"
             style="fill:#d3b59d;fill-opacity:1;fill-rule:nonzero;stroke:none"
             d="m 0,0 c -157.676,-33.926 -157.676,-33.926 -292.454,0 -9.287,2.338 -18.344,4.895 -18.344,10.876 v 332.518 c 0,5.982 8.255,10.877 18.344,10.877 H 0 c 10.09,0 18.345,-4.895 18.345,-10.877 V 10.876 C 18.345,4.895 9.484,2.04 0,0" /></g><g
           transform="translate(882.084,531.5869)"
           id="g6166"><path
             id="path6168"
             style="fill:none;stroke:#1d1d1b;stroke-width:8.79300022;stroke-linecap:butt;stroke-linejoin:miter;stroke-miterlimit:10;stroke-dasharray:none;stroke-opacity:1"
             d="m 0,0 c -157.676,-33.926 -157.676,-33.926 -292.454,0 -9.287,2.338 -18.344,4.895 -18.344,10.876 v 332.518 c 0,5.982 8.255,10.877 18.344,10.877 H 0 c 10.09,0 18.345,-4.895 18.345,-10.877 V 10.876 C 18.345,4.895 9.484,2.04 0,0 Z" /></g></g></g><g
       id="g6170"><g
         clip-path="url(#clipPath6176)"
         id="g6172"><g
           transform="translate(841.4814,820.7607)"
           id="g6178"><path
             id="path6180"
             style="fill:#fe0000;fill-opacity:1;fill-rule:nonzero;stroke:none"
             d="m 0,0 c 0,0 35.145,-7.311 16.588,-48.922 0,0 -15.464,-32.333 -54.826,-64.667 0,0 -28.116,-30.365 -48.078,4.218 0,0 -30.084,41.892 -25.024,93.907 0,0 3.374,41.05 26.71,35.426 0,0 23.618,-2.812 28.96,-31.208 0,0 7.029,-21.65 24.18,1.968 0,0 9.841,15.464 31.49,9.278" /></g><g
           transform="translate(841.4814,820.7607)"
           id="g6182"><path
             id="path6184"
             style="fill:none;stroke:#1d1d1b;stroke-width:10.49699974;stroke-linecap:butt;stroke-linejoin:miter;stroke-miterlimit:10;stroke-dasharray:none;stroke-opacity:1"
             d="m 0,0 c 0,0 35.145,-7.311 16.588,-48.922 0,0 -15.464,-32.333 -54.826,-64.667 0,0 -28.116,-30.365 -48.078,4.218 0,0 -30.084,41.892 -25.024,93.907 0,0 3.374,41.05 26.71,35.426 0,0 23.618,-2.812 28.96,-31.208 0,0 7.029,-21.65 24.18,1.968 0,0 9.841,15.464 31.49,9.278 z" /></g><g
           transform="translate(771.1914,719.8242)"
           id="g6186"><path
             id="path6188"
             style="fill:none;stroke:#1d1d1b;stroke-width:10.49699974;stroke-linecap:butt;stroke-linejoin:miter;stroke-miterlimit:10;stroke-dasharray:none;stroke-opacity:1"
             d="M 0,0 -17.151,-26.147" /></g><g
           transform="translate(736.6084,856.4678)"
           id="g6190"><path
             id="path6192"
             style="fill:none;stroke:#1d1d1b;stroke-width:10.49699974;stroke-linecap:butt;stroke-linejoin:miter;stroke-miterlimit:10;stroke-dasharray:none;stroke-opacity:1"
             d="M 0,0 11.246,-35.145" /></g><g
           transform="translate(772.5967,849.4395)"
           id="g6194"><path
             id="path6196"
             style="fill:none;stroke:#1d1d1b;stroke-width:10.49699974;stroke-linecap:butt;stroke-linejoin:miter;stroke-miterlimit:10;stroke-dasharray:none;stroke-opacity:1"
             d="M 0,0 -1.405,-46.11" /></g><g
           transform="translate(809.4287,838.8955)"
           id="g6198"><path
             id="path6200"
             style="fill:none;stroke:#1d1d1b;stroke-width:10.49699974;stroke-linecap:butt;stroke-linejoin:miter;stroke-miterlimit:10;stroke-dasharray:none;stroke-opacity:1"
             d="M 0,0 13.777,-32.755" /></g><g
           transform="translate(864.8174,823.8535)"
           id="g6202"><path
             id="path6204"
             style="fill:none;stroke:#1d1d1b;stroke-width:10.49699974;stroke-linecap:butt;stroke-linejoin:miter;stroke-miterlimit:10;stroke-dasharray:none;stroke-opacity:1"
             d="M 0,0 -17.15,-22.774" /></g><g
           transform="translate(847.667,777.4619)"
           id="g6206"><path
             id="path6208"
             style="fill:none;stroke:#1d1d1b;stroke-width:10.49699974;stroke-linecap:butt;stroke-linejoin:miter;stroke-miterlimit:10;stroke-dasharray:none;stroke-opacity:1"
             d="M 0,0 28.396,-2.812" /></g><g
           transform="translate(839.7939,753.5635)"
           id="g6210"><path
             id="path6212"
             style="fill:none;stroke:#1d1d1b;stroke-width:10.49699974;stroke-linecap:butt;stroke-linejoin:miter;stroke-miterlimit:10;stroke-dasharray:none;stroke-opacity:1"
             d="M 0,0 17.713,-10.965" /></g><g
           transform="translate(807.4609,733.8828)"
           id="g6214"><path
             id="path6216"
             style="fill:none;stroke:#1d1d1b;stroke-width:10.49699974;stroke-linecap:butt;stroke-linejoin:miter;stroke-miterlimit:10;stroke-dasharray:none;stroke-opacity:1"
             d="M 0,0 18.275,-20.525" /></g><g
           transform="translate(785.249,713.3574)"
           id="g6218"><path
             id="path6220"
             style="fill:none;stroke:#1d1d1b;stroke-width:10.49699974;stroke-linecap:butt;stroke-linejoin:miter;stroke-miterlimit:10;stroke-dasharray:none;stroke-opacity:1"
             d="M 0,0 18.557,-28.396" /></g><g
           transform="translate(765.2871,739.5059)"
           id="g6222"><path
             id="path6224"
             style="fill:none;stroke:#1d1d1b;stroke-width:10.49699974;stroke-linecap:butt;stroke-linejoin:miter;stroke-miterlimit:10;stroke-dasharray:none;stroke-opacity:1"
             d="M 0,0 -28.679,-35.989" /></g><g
           transform="translate(754.04,750.752)"
           id="g6226"><path
             id="path6228"
             style="fill:none;stroke:#1d1d1b;stroke-width:10.49699974;stroke-linecap:butt;stroke-linejoin:miter;stroke-miterlimit:10;stroke-dasharray:none;stroke-opacity:1"
             d="M 0,0 -33.458,-18.275" /></g><g
           transform="translate(707.6489,772.4014)"
           id="g6230"><path
             id="path6232"
             style="fill:none;stroke:#1d1d1b;stroke-width:10.49699974;stroke-linecap:butt;stroke-linejoin:miter;stroke-miterlimit:10;stroke-dasharray:none;stroke-opacity:1"
             d="M 0,0 H 43.298" /></g><g
           transform="translate(703.1504,819.917)"
           id="g6234"><path
             id="path6236"
             style="fill:none;stroke:#1d1d1b;stroke-width:10.49699974;stroke-linecap:butt;stroke-linejoin:miter;stroke-miterlimit:10;stroke-dasharray:none;stroke-opacity:1"
             d="M 0,0 41.05,-24.742" /></g></g></g></g></svg>