<?xml version="1.0" standalone="no"?>
<!DOCTYPE svg PUBLIC "-//W3C//DTD SVG 20010904//EN" "http://www.w3.org/TR/2001/REC-SVG-20010904/DTD/svg10.dtd">
<!-- Created using Krita: http://krita.org -->
<svg xmlns="http://www.w3.org/2000/svg" 
    xmlns:xlink="http://www.w3.org/1999/xlink"
    xmlns:krita="http://krita.org/namespaces/svg/krita"
    xmlns:sodipodi="http://sodipodi.sourceforge.net/DTD/sodipodi-0.dtd"
    width="864pt"
    height="576pt"
    viewBox="0 0 864 576">
<defs/>
<g id="Ebene 1" transform="matrix(0.351219512195122 0 0 0.351219512195122 17.5609756097561 0)" display="none" fill="none">
  <g id="group0" transform="translate(844.504, 505.498)" display="none" fill="none">
   <image id="image0" width="644px" height="644px"/>
  </g>
 </g><path id="shape0" transform="matrix(0.351219512195122 0 0 0.351219512195122 635.005344432936 242.874380920824)" fill="#b96b3c" stroke="#000000" stroke-width="10" stroke-linecap="round" stroke-linejoin="round" d="M0 50.281C22.55 87.037 68.95 188.818 68.95 188.818L81.28 219.501C99.99 253.353 136 266.721 161.7 249.36L165.57 246.745C191.28 229.384 196.94 187.868 178.23 154.016L66.71 0"/><path id="shape1" transform="matrix(0.351219512195122 0 0 0.351219512195122 487.840766291488 243.058879633898)" fill="#b96b3c" stroke="#000000" stroke-width="10" stroke-linecap="round" stroke-linejoin="round" d="M72.7813 6.429C45.3113 13.425 45.5413 12.034 34.0713 32.878C27.5613 44.703 21.0713 60.712 18.4613 69.15C14.0713 83.37 10.5113 96.289 5.9213 116.861C-7.0487 175.055 5.3513 294.815 5.2213 310.568C5.0913 326.319 5.5213 347.209 51.7913 364.179C52.0313 364.259 52.2713 364.349 52.5213 364.439C99.9613 381.879 153.101 389.469 223.541 378.279C292.331 367.359 319.631 348.159 336.511 328.019C345.511 317.279 353.461 308.819 358.561 294.763C364.211 279.193 363.961 267.862 362.211 229.064C360.471 190.267 357.881 184.023 351.571 139.574C345.251 95.124 345.261 89.077 331.011 55.622C316.751 22.168 294.541 5.757 294.541 5.757L263.221 0L95.4713 4.58C95.4713 4.58 103.951 -1.509 72.7813 6.429Z"/><path id="shape2" transform="matrix(0.351219512195122 0 0 0.351219512195122 529.9698252934 259.563960134734)" fill="#d3b59d" stroke="#000000" stroke-width="10" stroke-linecap="round" stroke-linejoin="round" d="M31.772 23.7131C31.772 23.7131 118.862 -2.01086 157.162 0.126138C195.452 2.26314 202.412 52.9731 202.412 52.9731C202.412 52.9731 210.582 82.8601 213.112 114.438C215.652 146.017 217.122 154.368 217.302 174.88C217.442 190.767 220.282 217.1 211.282 239.274C202.272 261.447 181.282 263.576 181.282 263.576L59.712 288.501C41.882 289.691 22.062 269.298 20.572 249.582C20.572 249.582 -2.54798 82.4531 0.232017 59.5411C3.83202 29.8001 31.772 23.7131 31.772 23.7131Z"/><g id="group1" transform="translate(406.396995433811, 345.765909836853)" fill="none">
  <path id="shape3" transform="matrix(0.351219512195122 0 0 0.351219512195122 4.44960284169281 5.28347983453386)" fill="#ff0000" stroke="#000000" stroke-width="8" stroke-linecap="round" stroke-linejoin="round" d="M50.8958 1.50976C40.9758 1.03076 35.0258 8.13876 35.0258 8.13876C35.0258 8.13876 29.9758 0.499759 20.0558 0.0217588C9.64578 -0.481241 0.685776 7.79776 0.0357764 18.5158C-0.854224 33.2308 15.1158 48.3038 19.5358 53.0358C24.6258 58.4828 31.5658 65.5048 31.5658 65.5048C31.5658 65.5048 39.3058 59.1908 45.0258 54.2658C49.9858 49.9868 67.6758 36.5388 68.5658 21.8238C69.2158 11.1058 61.3058 2.01276 50.8958 1.50976Z"/>
  <path id="shape4" transform="matrix(0.351219512195122 0 0 0.351219512195122 2.70790243902451 1.72097560975612)" fill="#d3b59d" stroke="#000000" stroke-width="5.50237" stroke-linecap="round" stroke-linejoin="round" d="M0 0C5.72 8.214 14.34 13.978 18.58 23.435"/>
  <path id="shape5" transform="matrix(0.351219512195122 0 0 0.351219512195122 0.144840199325643 14.1063804878049)" fill="#d3b59d" stroke="#000000" stroke-width="5.50237" stroke-linecap="round" stroke-linejoin="round" d="M0 0C5.77 0.922 17.85 4.306 23.95 2.182"/>
  <path id="shape6" transform="matrix(0.351219512195122 0 0 0.351219512195122 3.95908410176446 19.3528975609756)" fill="#d3b59d" stroke="#000000" stroke-width="5.50237" stroke-linecap="round" stroke-linejoin="round" d="M0 7.299C7.98 2.601 18.64 6.99 26.14 0"/>
  <path id="shape7" transform="matrix(0.351219512195122 0 0 0.351219512195122 16.8664011749349 20.036019512195)" fill="#d3b59d" stroke="#000000" stroke-width="5.50237" stroke-linecap="round" stroke-linejoin="round" d="M7.69 28.251C6.32 18.635 2.74 9.284 0 0"/>
  <path id="shape8" transform="matrix(0.351219512195122 0 0 0.351219512195122 19.6164499554232 16.1367804878049)" fill="#d3b59d" stroke="#000000" stroke-width="5.50237" stroke-linecap="round" stroke-linejoin="round" d="M0 0C9.28 2.402 20.64 6.402 28.53 11.942"/>
  <path id="shape9" transform="matrix(0.351219512195122 0 0 0.351219512195122 23.2515719066424 10.0269658536586)" fill="#d3b59d" stroke="#000000" stroke-width="5.50237" stroke-linecap="round" stroke-linejoin="round" d="M0 2.792C7.75 1.503 15.59 1.107 23.37 0"/>
  <path id="shape10" transform="matrix(0.351219512195122 0 0 0.351219512195122 17.6320597115204 0)" fill="#d3b59d" stroke="#000000" stroke-width="5.50237" stroke-linecap="round" stroke-linejoin="round" d="M5 26.216C6.86 34.916 0.32 8.891 0 0"/>
  <path id="shape11" transform="matrix(0.351219512195122 0 0 0.351219512195122 22.7423036139597 2.54528780487811)" fill="#d3b59d" stroke="#000000" stroke-width="5" stroke-linecap="round" stroke-linejoin="round" d="M16.18 0C17.8 0.658 1.43 19.559 0 20.911"/>
  <path id="shape12" transform="matrix(0.351219512195122 0 0 0.351219512195122 19.1949865407886 19.1439219512196)" fill="#d3b59d" stroke="#000000" stroke-width="5" stroke-linecap="round" stroke-linejoin="round" d="M15.07 21.516C11.23 15.046 6.43 4.139 0 0"/>
  <path id="shape13" transform="matrix(0.351219512195122 0 0 0.351219512195122 8.34581580908144 22.8271609756098)" fill="#d3b59d" stroke="#000000" stroke-width="5" stroke-linecap="round" stroke-linejoin="round" d="M16.74 0C9.84 3.738 6.05 9.088 0 13.956"/>
  <path id="shape14" transform="matrix(0.351219512195122 0 0 0.351219512195122 0 7.50696585365847)" fill="#d3b59d" stroke="#000000" stroke-width="5" stroke-linecap="round" stroke-linejoin="round" d="M19.07 12.505C13.71 6.931 6.96 3.191 0 0"/>
  <path id="shape15" transform="matrix(0.351219512195122 0 0 0.351219512195122 3.5657182481059 18.3210146341464)" fill="#d3b59d" stroke="#000000" stroke-width="5" stroke-linecap="round" stroke-linejoin="round" d="M15.79 0C11.79 2.37 4.59 1.808 0 2.627"/>
  <path id="shape16" transform="matrix(0.351219512195122 0 0 0.351219512195122 25.804937760301 13.3691707317074)" fill="#d3b59d" stroke="#000000" stroke-width="5" stroke-linecap="round" stroke-linejoin="round" d="M14.11 9.438C9.86 5.704 4.74 3.051 0 0"/>
  <path id="shape17" transform="matrix(0.351219512195122 0 0 0.351219512195122 10.7754146341464 0.342439024390103)" fill="#d3b59d" stroke="#000000" stroke-width="5" stroke-linecap="round" stroke-linejoin="round" d="M10.13 28.257C8.02 18.551 3.96 9.1 0 0"/>
 </g><g id="group2" transform="translate(487.37774133032, 388.226828986086)" fill="none">
  <path id="shape18" transform="matrix(0.351219512195122 0 0 0.351219512195122 5.6843418860808e-14 0)" fill="#b96b3c" stroke="#000000" stroke-width="10" stroke-linecap="round" stroke-linejoin="miter" stroke-miterlimit="2" d="M16.7933 0L11.8633 49.59C11.8633 49.59 5.2733 168.41 2.4533 196.52C0.2133 218.85 -3.7567 224.49 8.3833 240.25C20.5333 256.01 51.0133 258.16 51.0133 258.16C51.0133 258.16 85.5733 262.87 101.453 255.53C117.323 248.19 118.863 240.1 120.123 226.39C121.553 210.81 121.743 83.35 121.743 83.35L130.543 26.64"/>
  <path id="shape19" transform="matrix(0.351219512195122 0 0 0.351219512195122 7.25735414752876 79.3597784197965)" fill="#d3b59d" stroke="#000000" stroke-width="10" stroke-linecap="round" stroke-linejoin="round" d="M7.5 3.13508C12.69 -1.63492 18.4 -0.424925 22.12 3.18508C25.85 6.78508 26.1 13.0551 22.4 17.5651C18.63 22.1551 15.47 25.4651 15.47 25.4651C15.47 25.4651 10.35 22.4851 6.74 19.3251C3.13 16.1551 0 11.1451 0 11.1451C0 11.1451 2.54 7.70508 7.5 3.13508Z"/>
  <path id="shape20" transform="matrix(0.351219512195122 0 0 0.351219512195122 15.2581346353339 82.4001989137034)" fill="#d3b59d" stroke="#000000" stroke-width="10" stroke-linecap="round" stroke-linejoin="round" d="M2.3 7.43832C4.28 0.788323 9.83 -0.921677 14.91 0.428323C19.99 1.76832 23.46 7.09832 22.62 12.8083C21.76 18.6183 20.76 23.0383 20.76 23.0383C20.76 23.0383 14.81 22.9083 10.06 21.8983C5.3 20.8783 0 18.0283 0 18.0283C0 18.0283 0.4 13.8183 2.3 7.43832Z"/>
  <path id="shape21" transform="matrix(0.351219512195122 0 0 0.351219512195122 23.8658465151346 82.4343830253221)" fill="#d3b59d" stroke="#000000" stroke-width="10" stroke-linecap="round" stroke-linejoin="round" d="M0.0119315 10.501C-0.268069 3.56099 4.42193 0.270993 9.67193 0.0109928C14.9119 -0.239007 19.9419 3.80099 20.9919 9.49099C22.0719 15.291 22.5619 19.791 22.5619 19.791C22.5619 19.791 16.8819 21.471 12.0519 21.931C7.22193 22.401 1.28193 21.281 1.28193 21.281C1.28193 21.281 0.281931 17.141 0.0119315 10.501Z"/>
 </g><g id="group3" transform="translate(403.156307275359, 246.285437301513)" fill="none">
  <path id="shape22" transform="matrix(0.351219512195122 0 0 0.351219512195122 -5.6843418860808e-14 0)" fill="#b96b3c" stroke="#000000" stroke-width="10" stroke-linecap="round" stroke-linejoin="round" d="M164.249 29.145C148.889 66.939 122.729 167.885 122.729 167.885L116.529 197.931C104.489 232.263 70.5988 252.438 40.8288 242.992L36.3488 241.57C6.57881 232.124 -7.78119 196.635 4.25881 162.303L85.9188 0"/>
  <path id="shape23" transform="matrix(0.351219512195122 0 0 0.351219512195122 0.757521558731753 70.4664849852012)" fill="#d3b59d" stroke="#000000" stroke-width="10" stroke-linecap="round" stroke-linejoin="round" d="M9.13 1.64294C15.26 -1.83106 20.55 0.639942 23.36 4.99594C26.17 9.35094 25 15.5149 20.37 19.0659C15.66 22.6819 11.83 25.1979 11.83 25.1979C11.83 25.1979 7.52 21.1349 4.72 17.2329C1.92 13.3299 0 7.74194 0 7.74194C0 7.74194 3.26 4.96894 9.13 1.64294Z"/>
  <path id="shape24" transform="matrix(0.351219512195122 0 0 0.351219512195122 7.31830204653659 74.9811819216972)" fill="#d3b59d" stroke="#000000" stroke-width="10" stroke-linecap="round" stroke-linejoin="round" d="M4.63 5.3926C8.07 -0.642403 13.86 -1.0444 18.5 1.4136C23.14 3.8706 25.32 9.8536 23.21 15.2226C21.06 20.6906 19.08 24.7646 19.08 24.7646C19.08 24.7646 13.31 23.2916 8.91 21.2266C4.51 19.1616 0 15.1876 0 15.1876C0 15.1876 1.34 11.1696 4.63 5.3926Z"/>
  <path id="shape25" transform="matrix(0.351219512195122 0 0 0.351219512195122 15.8704747236907 76.8294022812854)" fill="#d3b59d" stroke="#000000" stroke-width="10" stroke-linecap="round" stroke-linejoin="round" d="M1.21006 8.2363C2.51006 1.4123 7.83006 -0.731697 12.9901 0.210303C18.1601 1.1523 22.1401 6.2193 21.8801 12.0033C21.6101 17.8943 21.0701 22.3953 21.0701 22.3953C21.0701 22.3953 15.1601 22.7383 10.3501 22.0983C5.54006 21.4583 6.39053e-05 19.0253 6.39053e-05 19.0253C6.39053e-05 19.0253 -0.0299361 14.7693 1.21006 8.2363Z"/>
 </g><g id="group4" transform="translate(584.097305130542, 388.760850113237)" fill="none">
  <path id="shape26" transform="matrix(0.351219512195122 0 0 0.351219512195122 0 5.6843418860808e-14)" fill="#b96b3c" stroke="#000000" stroke-width="10" stroke-linecap="round" stroke-linejoin="round" d="M0 19.71L6.23 75.33C6.23 75.33 21.2 198.67 23.33 207.22C29.28 231.16 23.4 240.27 43.23 250.93C63.06 261.6 82.48 256.63 99.68 252.24C129.1 244.74 135.41 237.28 135.41 237.28C135.41 237.28 150.9 223.45 145.17 201.09C139.44 178.73 109.78 71.6 109.78 71.6L88.14 0"/>
  <path id="shape27" transform="matrix(0.351219512195122 0 0 0.351219512195122 21.4173658536585 82.5153874580716)" fill="#d3b59d" stroke="#000000" stroke-width="10" stroke-linecap="round" stroke-linejoin="round" d="M1.46 7.81036C2.88 1.31036 7.88 -0.709645 12.64 0.210355C17.4 1.13036 20.94 5.97036 20.51 11.4804C20.08 17.0904 19.43 21.3704 19.43 21.3704C19.43 21.3704 13.94 21.6804 9.5 21.0504C5.06 20.4204 0 18.0804 0 18.0804C0 18.0804 0.11 14.0204 1.46 7.81036Z"/>
  <path id="shape28" transform="matrix(0.351219512195122 0 0 0.351219512195122 28.8516273195293 81.2142867593813)" fill="#d3b59d" stroke="#000000" stroke-width="10" stroke-linecap="round" stroke-linejoin="round" d="M0.613006 12.6249C-1.42699 6.31488 1.90301 2.06488 6.49301 0.484878C11.083 -1.10512 16.583 1.31488 18.973 6.28488C21.413 11.3449 23.003 15.3749 23.003 15.3749C23.003 15.3749 18.393 18.3749 14.223 20.0549C10.063 21.7249 4.49301 22.2349 4.49301 22.2349C4.49301 22.2349 2.55301 18.6749 0.613006 12.6249Z"/>
  <path id="shape29" transform="matrix(0.351219512195122 0 0 0.351219512195122 34.8470346459122 77.1158831187287)" fill="#d3b59d" stroke="#000000" stroke-width="10" stroke-linecap="round" stroke-linejoin="round" d="M2.18275 15.2039C-1.73725 9.84394 0.0927486 4.78394 3.96275 1.84394C7.83275 -1.08606 13.8127 -0.506056 17.6527 3.45394C21.5627 7.49394 24.3327 10.8239 24.3327 10.8239C24.3327 10.8239 20.8927 15.1139 17.4527 18.0039C14.0127 20.8939 8.88275 23.1039 8.88275 23.1039C8.88275 23.1039 5.92275 20.3339 2.18275 15.2039Z"/>
 </g><path id="shape30" transform="matrix(0.351219512195122 0 0 0.351219512195122 578.198316650588 46.4252072053653)" fill="#b96b3c" stroke="#000000" stroke-width="10" stroke-linecap="round" stroke-linejoin="round" d="M0 72.9775L9.82 59.8485L58.01 8.61746C64.46 3.05646 83.77 -3.99154 103.34 2.77446C122.91 9.54046 133.67 24.0295 139.8 41.6995C145.94 59.3695 141.65 78.4835 129.66 88.8165L109 106.469L82.12 129.427"/><path id="shape31" transform="matrix(0.351219512195122 0 0 0.351219512195122 461.168462992052 56.5519919251446)" fill="#b96b3c" stroke="#000000" stroke-width="10" stroke-linecap="round" stroke-linejoin="round" d="M0 246.906C0 108.382 104.96 0 237.26 0C348.89 0 442.69 79.945 469.27 188.136C474.2 208.171 476.81 229.175 476.81 250.82C476.81 389.344 369.56 501.64 237.26 501.64C204.8 501.64 173.35 491.822 144.6 476.269C110.8 457.991 80.71 431.792 57.02 404.297C37.53 381.667 23.1 358.032 13.64 331.761C4.51 306.417 0 278.621 0 246.906Z"/><path id="shape32" transform="matrix(0.351219512195122 0 0 0.351219512195122 561.719097138393 90.7033673890801)" fill="none" stroke="#000000" stroke-width="10" stroke-linecap="round" stroke-linejoin="round" d="M0 22.6887C0 22.6887 18.65 0.237695 43.93 0.00369487C69.21 -0.231305 89.81 10.8217 89.81 10.8217"/><path id="shape33" transform="matrix(0.351219512195122 0 0 0.351219512195122 505.376462992052 94.6370419327411)" fill="none" stroke="#000000" stroke-width="10" stroke-linecap="round" stroke-linejoin="round" d="M0 22.8276C0 22.8276 20.1 0.238649 45.38 0.00364929C70.66 -0.231351 89.8 10.9616 89.8 10.9616"/><path id="shape34" transform="matrix(0.351219512195122 0 0 0.351219512195122 522.182316650588 197.757426074494)" fill="none" stroke="#000000" stroke-width="10" stroke-linecap="round" stroke-linejoin="round" d="M0 3.316C0 3.316 58.47 29.229 111.85 28.4C165.22 27.571 207.93 5.583 213.51 0"/><path id="shape35" transform="matrix(0.351219512195122 0 0 0.351219512195122 517.876365431076 194.448938269616)" fill="none" stroke="#000000" stroke-width="10" stroke-linecap="round" stroke-linejoin="round" d="M0 23.517L20.9 0"/><path id="shape36" transform="matrix(0.351219512195122 0 0 0.351219512195122 594.997145918881 191.528899245225)" fill="none" stroke="#000000" stroke-width="10" stroke-linecap="round" stroke-linejoin="round" d="M0 0L18.62 25.363"/><path id="shape37" transform="matrix(0.351219512195122 0 0 0.351219512195122 538.90738982132 162.083080556764)" fill="#d3b59d" stroke="#000000" stroke-width="10" stroke-linecap="round" stroke-linejoin="round" d="M0 20.9158C0 20.9158 61.44 1.78279 83.9 0.386789C106.37 -1.00821 158.31 1.81879 158.31 1.81879L155.12 31.6578C155.12 31.6578 133.47 78.3408 99.11 84.8848C59.85 92.3648 7.1 59.5008 5.02 53.4558C3.61 49.3358 0 20.9158 0 20.9158Z"/><path id="shape38" transform="matrix(0.351219512195122 0 0 0.351219512195122 440.664292497071 66.8426404127592)" fill="#b96b3c" stroke="#000000" stroke-width="10" stroke-linecap="round" stroke-linejoin="round" d="M96.0999 163.299L37.7399 134.727C37.7399 134.727 26.3699 129.514 17.3899 121.177C10.6399 114.906 5.97993 105.992 4.49993 101.073C-0.96007 82.8715 -2.37007 57.8655 5.49993 38.4895C12.5099 21.2155 27.0799 8.53249 42.1999 2.97049C47.2099 1.13149 57.6799 -1.06351 67.6599 0.576487C80.3899 2.66749 92.4099 9.02749 92.4099 9.02749L141.77 36.1385"/><path id="shape39" transform="matrix(0.351219512195122 0 0 0.351219512195122 453.678710351351 79.6352074277743)" fill="#d4b59d" stroke="#000000" stroke-width="5.50237" stroke-linecap="round" stroke-linejoin="round" d="M33.455 0.744206L69.535 16.0022C75.455 18.5042 89.055 24.2272 89.055 24.2272C89.055 24.2272 77.835 34.0342 71.415 48.0922C65.005 62.1512 65.565 79.9422 65.565 79.9422C65.565 79.9422 52.865 74.0322 47.685 71.8412L11.595 56.5832C2.02499 52.5352 -2.30501 33.3372 1.21499 21.6392C4.73499 9.94121 23.875 -3.30379 33.455 0.744206Z"/><path id="shape40" transform="matrix(0.351219512195122 0 0 0.351219512195122 593.258609333515 53.9577183505871)" fill="#d3b59d" stroke="#000000" stroke-width="5.50237" stroke-linecap="round" stroke-linejoin="round" d="M76.37 40.7207L37.01 80.4287C37.01 80.4287 32.08 67.0107 22.83 57.9417C13.58 48.8717 0 44.1497 0 44.1497L42.07 4.20072C48.08 -1.86828 58.11 -1.29328 64.48 5.48572L75.72 17.4577C82.09 24.2367 82.38 34.6517 76.37 40.7207Z"/><path id="shape0" transform="matrix(0.351219510198406 0 0 0.351219510198406 407.918323880932 170.163169366941)" fill="#ffffff" stroke="#000000" stroke-width="8" stroke-linecap="round" stroke-linejoin="round" d="M0 53.76C0 24.069 24.08 0 53.79 0C83.49 0 107.57 24.069 107.57 53.76C107.57 83.451 83.49 107.52 53.79 107.52C24.08 107.52 0 83.451 0 53.76Z"/><path id="shape1" transform="matrix(0.351219510198406 0 0 0.351219510198406 415.529250666933 178.101783955955)" fill="#4382da" d="M0 32.246C0 14.437 15.52 0 34.66 0C53.8 0 69.31 14.437 69.31 32.246C69.31 50.055 53.8 64.491 34.66 64.491C15.52 64.491 0 50.055 0 32.246Z"/><path id="shape2" transform="matrix(0.351219510198406 0 0 0.351219510198406 422.022753982799 182.294028277079)" fill="#000000" d="M0.0315529 21.8357C-0.498447 9.62575 5.71155 -0.150251 13.9016 0.00174874C22.0916 0.152749 29.1616 10.1747 29.6916 22.3847C30.2216 34.5957 24.0116 44.3717 15.8216 44.2197C7.63155 44.0687 0.561553 34.0467 0.0315529 21.8357Z"/><path id="shape3" transform="matrix(0.351219510198406 0 0 0.351219510198406 428.369835959786 183.820691240515)" fill="#ffffff" d="M0 6.245C0 2.796 2.31 0 5.15 0C7.99 0 10.29 2.796 10.29 6.245C10.29 9.693 7.99 12.489 5.15 12.489C2.31 12.489 0 9.693 0 6.245Z"/><path id="shape01" transform="matrix(0.351219508201691 0 0 0.351219508201691 359.590522583197 171.559617512084)" fill="#ffffff" stroke="#000000" stroke-width="10" stroke-linecap="round" stroke-linejoin="round" d="M0 54.366C0 24.34 25.3 0 56.51 0C87.71 0 113.01 24.34 113.01 54.366C113.01 84.391 87.71 108.731 56.51 108.731C25.3 108.731 0 84.391 0 54.366Z"/><path id="shape11" transform="matrix(0.351219508201691 0 0 0.351219508201691 367.410349223631 179.339832057768)" fill="#4382da" d="M0 32.096C0 14.175 15.41 0 34.52 0C53.64 0 69.22 14.175 69.22 32.096C69.22 50.017 53.72 64.544 34.61 64.544C15.5 64.544 0 50.017 0 32.096Z"/><path id="shape21" transform="matrix(0.351219508201691 0 0 0.351219508201691 373.622910069503 184.520286407344)" fill="#000000" d="M0.0014585 19.3571C0.121458 7.8171 7.63146 -0.820905 16.7615 0.0620951C25.9015 0.946095 33.2015 11.0171 33.0815 22.5561C32.9615 34.0961 25.4515 42.7341 16.3215 41.8511C7.18146 40.9671 -0.118542 30.8961 0.0014585 19.3571Z"/><path id="shape31" transform="matrix(0.351219508201691 0 0 0.351219508201691 378.212180908052 186.407071001803)" fill="#ffffff" d="M0 6.028C0 2.699 2.3 0 5.14 0C7.98 0 10.29 2.699 10.29 6.028C10.29 9.357 7.98 12.056 5.14 12.056C2.3 12.056 0 9.357 0 6.028Z"/>
</svg>
