<?xml version="1.0" standalone="no"?>
<!DOCTYPE svg PUBLIC "-//W3C//DTD SVG 20010904//EN" "http://www.w3.org/TR/2001/REC-SVG-20010904/DTD/svg10.dtd">
<!-- Created using Krita: https://krita.org -->
<svg xmlns="http://www.w3.org/2000/svg" 
    xmlns:xlink="http://www.w3.org/1999/xlink"
    xmlns:krita="http://krita.org/namespaces/svg/krita"
    xmlns:sodipodi="http://sodipodi.sourceforge.net/DTD/sodipodi-0.dtd"
    width="317.52pt"
    height="237.6pt"
    viewBox="0 0 317.52 237.6">
<defs/>
<g id="Ebene 1" transform="matrix(0.351219512195122 0 0 0.351219512195122 -45.0790203316569 -53.9999965012181)" fill="none">
  <g id="group0" transform="matrix(1.2512 0 0 1.35423 69.2392 104.65)" fill="none">
   <image id="image0" width="406px" height="406px"/>
  </g>
 </g><path id="shape0" transform="matrix(0.351219512195122 0 0 0.351219512195122 120.352651512496 108.200199372809)" fill="#9eca46" stroke-opacity="0" stroke="#000000" stroke-width="0" stroke-linecap="square" stroke-linejoin="bevel" d="M0 35.709C0 15.987 18.768 0 41.92 0C65.074 0 83.844 15.987 83.844 35.709C83.844 55.431 65.074 71.419 41.92 71.419C18.768 71.419 0 55.431 0 35.709Z" sodipodi:nodetypes="ccccc"/><path id="shape1" transform="matrix(0.351219512195122 0 0 0.351219512195122 21.7641664691764 41.3647841181736)" fill="#549140" stroke-opacity="0" stroke="#000000" stroke-width="0" stroke-linecap="square" stroke-linejoin="bevel" d="M256.053 0.0122795C231.886 0.50128 211.457 15.4093 204.098 35.6903C196.85 32.5883 188.761 30.8753 180.188 31.0483C159.504 31.4663 141.55 42.4503 132.182 58.3173C124.104 54.1813 114.781 51.8713 104.821 52.0723C74.3873 52.6873 49.7983 76.1313 49.9013 104.436C49.9013 104.568 49.9173 104.695 49.9193 104.826C29.5753 112.763 15.2213 131.513 15.2993 153.139C15.3253 160.265 16.9213 167.02 19.7693 173.128C7.64033 182.775 -0.0576745 197.095 0.000325471 212.953C0.0343255 222.491 2.92833 231.325 7.83533 238.875C3.96733 245.98 1.75433 253.971 1.78533 262.421C1.87733 287.745 21.7243 308.326 47.6953 311.951C48.0023 312.768 48.3033 313.588 48.6243 314.401C49.1223 325.805 53.5993 336.169 60.8383 344.344C60.2413 347.405 59.8913 350.541 59.9023 353.754C59.9903 377.961 78.1343 397.836 102.416 402.712C110.124 423.5 130.471 438.101 154.377 437.618C155.85 437.588 157.296 437.452 158.74 437.311C167.448 455.971 186.702 468.717 209.064 468.266C225.207 467.939 239.655 460.768 249.694 449.678C259.678 463.712 276.351 472.719 295.222 472.338C313.125 471.976 328.947 463.218 338.967 449.999C343.317 453.177 348.237 455.764 353.637 457.594C356.187 458.457 358.757 459.054 361.337 459.532C367.397 461.661 373.937 462.825 380.797 462.686C383.447 462.633 386.037 462.328 388.587 461.919C394.907 472.249 404.777 480.53 417.277 484.763C435.037 490.776 453.897 487.223 468.117 476.908C474.277 484.009 482.547 489.654 492.527 492.837C516.857 500.592 543.197 491.383 556.877 472.02C561.267 475.064 566.227 477.542 571.687 479.284C599.277 488.079 629.477 475.076 640.817 450.151C666.017 452.916 690.987 439.058 699.887 415.751C704.047 404.853 704.007 393.588 700.627 383.421C718.057 379.247 733.087 367.293 739.577 350.303C747.627 329.234 740.087 306.763 722.617 293.657C723.087 292.645 723.577 291.65 723.977 290.598C734.217 263.785 719.297 234.647 690.647 225.516C684.137 223.44 677.487 222.63 670.957 222.851C670.007 202.665 656.227 184.239 634.517 177.318C624.437 174.106 614.017 173.859 604.277 175.976C601.267 158.048 588.057 142.318 568.367 136.042C559.957 133.361 551.327 132.763 543.027 133.851C544.277 111.793 530.047 90.8923 506.577 83.4113C497.337 80.4663 487.807 79.9973 478.777 81.5663C477.157 54.5583 453.097 33.5343 423.647 34.1293C410.467 34.3963 398.387 38.9483 388.927 46.3163C380.547 27.9933 360.877 15.3963 337.977 15.8593C325.607 16.1093 314.246 20.1763 305.074 26.7593C295.846 10.4833 277.362 -0.41772 256.053 0.0122795Z" sodipodi:nodetypes="ccccccccccccccccccccccccccccccccccccccccccccccccccc"/><path id="shape2" transform="matrix(0.351219512195122 0 0 0.351219512195122 28.910203507127 11.7649513442281)" fill="#9eca46" stroke-opacity="0" stroke="#000000" stroke-width="0" stroke-linecap="square" stroke-linejoin="bevel" d="M233.215 0.501581C208.475 3.78158 189.614 22.4386 184.929 45.4976C177.05 42.9216 168.503 41.9636 159.727 43.1266C138.553 45.9346 121.677 60.0106 114.305 78.4606C105.427 74.8466 95.53 73.3736 85.334 74.7256C54.179 78.8566 32.254 107.34 36.365 138.344C36.384 138.489 36.419 138.626 36.439 138.77C16.679 149.778 4.59597 171.955 7.73597 195.643C8.77097 203.449 11.366 210.669 15.154 217.039C4.06797 228.988 -1.80803 245.554 0.49497 262.924C1.87997 273.373 6.09997 282.724 12.207 290.439C9.24097 298.665 8.09997 307.672 9.32697 316.928C13.005 344.667 36.291 364.965 63.465 365.987C63.896 366.848 64.321 367.712 64.765 368.567C66.89 381.007 72.953 391.855 81.541 399.99C81.361 403.413 81.445 406.889 81.912 410.408C85.428 436.925 106.866 456.641 132.483 459.227C143.337 481.131 166.29 494.819 190.762 491.574C192.27 491.374 193.735 491.061 195.197 490.742C206.777 510.201 228.347 521.981 251.238 518.946C267.764 516.755 281.58 507.255 290.317 493.962C302.552 508.207 320.941 516.183 340.261 513.621C358.591 511.191 373.591 499.797 382.001 484.174C386.921 487.162 392.331 489.438 398.141 490.829C400.881 491.486 403.601 491.848 406.321 492.079C412.841 493.723 419.721 494.255 426.741 493.325C429.461 492.965 432.071 492.337 434.631 491.6C442.581 502.201 453.881 510.155 467.311 513.373C486.401 517.944 505.261 511.908 518.391 498.991C525.721 506.072 535.011 511.318 545.711 513.673C571.781 519.407 597.521 506.324 608.821 483.552C613.751 486.389 619.191 488.541 625.051 489.83C654.611 496.333 683.781 478.654 691.901 450.053C718.151 450.221 741.821 432.2 747.661 405.649C750.391 393.234 748.751 380.895 743.841 370.139C761.141 363.584 774.891 348.778 779.151 329.424C784.431 305.422 773.511 281.654 753.721 269.278C754.051 268.115 754.421 266.969 754.681 265.771C761.401 235.226 741.961 204.993 711.261 198.241C704.281 196.705 697.341 196.574 690.671 197.557C686.831 175.546 670.081 156.921 646.811 151.803C636.021 149.427 625.281 150.34 615.581 153.766C609.961 134.462 594.171 118.727 573.071 114.086C564.061 112.103 555.111 112.429 546.751 114.563C544.901 90.2506 527.341 68.9636 502.191 63.4316C492.291 61.2536 482.441 61.8226 473.401 64.5676C467.911 35.1566 440.241 14.8516 410.091 18.8486C396.601 20.6376 384.841 26.9986 376.171 36.1466C364.971 17.0216 343.001 5.45158 319.551 8.55958C306.891 10.2386 295.806 15.9866 287.322 24.2416C275.546 7.45458 255.029 -2.39142 233.215 0.501581Z" sodipodi:nodetypes="ccccccccccccccccccccccccccccccccccccccccccccccccccc"/><path id="shape3" transform="matrix(0.351219512195122 0 0 0.351219512195122 43.0142161514208 29.943788933142)" fill="#73b340" stroke-opacity="0" stroke="#000000" stroke-width="0" stroke-linecap="square" stroke-linejoin="bevel" d="M176.702 2.32139C155.832 7.37139 141.385 25.0444 139.467 45.1994C132.492 43.7094 125.092 43.6644 117.688 45.4554C99.8247 49.7774 86.6617 63.3504 82.0267 79.8064C74.1027 77.5184 65.5007 77.1554 56.8997 79.2364C30.6167 85.5954 14.4397 111.953 20.7677 138.109C20.7977 138.231 20.8397 138.345 20.8697 138.466C4.95971 149.677 -3.36829 169.747 1.46671 189.731C3.05971 196.315 5.93471 202.258 9.75271 207.366C1.35071 218.594 -2.17529 233.301 1.36971 247.955C3.50271 256.769 7.96171 264.388 13.8857 270.436C12.0937 277.742 11.9337 285.553 13.8227 293.361C19.4847 316.762 41.2497 332.019 64.5927 330.43C65.0387 331.127 65.4817 331.828 65.9387 332.519C68.8847 342.97 75.0557 351.703 83.1417 357.885C83.2977 360.83 83.6847 363.797 84.4037 366.765C89.8147 389.135 109.946 404.062 132.099 403.951C143.371 421.709 164.252 431.34 184.897 426.345C186.169 426.038 187.394 425.636 188.616 425.231C200.288 440.831 219.812 448.955 239.123 444.283C253.065 440.91 264.025 431.529 270.294 419.363C282.054 430.443 298.514 435.6 314.814 431.657C330.274 427.916 342.074 416.807 347.854 402.676C352.334 404.787 357.174 406.244 362.274 406.908C364.674 407.221 367.034 407.284 369.384 407.236C375.114 408.051 381.044 407.883 386.964 406.451C389.254 405.896 391.434 405.123 393.554 404.26C401.324 412.609 411.714 418.391 423.494 419.926C440.244 422.107 455.834 415.233 465.894 402.99C472.814 408.384 481.234 412.031 490.604 413.075C513.424 415.619 534.264 402.091 541.874 381.582C546.354 383.562 551.204 384.911 556.324 385.482C582.214 388.367 605.564 370.596 609.914 345.388C632.394 343.152 651.014 325.586 653.604 302.34C654.814 291.469 652.294 281.061 647.124 272.302C661.334 265.126 671.744 251.211 673.634 234.265C675.974 213.249 664.484 193.902 646.424 185.107C646.604 184.082 646.814 183.069 646.934 182.02C649.914 155.275 630.534 131.17 603.664 128.175C597.554 127.494 591.594 128.011 585.984 129.456C580.694 110.972 564.674 96.5544 544.304 94.2844C534.854 93.2304 525.744 94.9854 517.764 98.7954C511.204 82.7884 496.264 70.7564 477.794 68.6974C469.894 67.8184 462.274 68.9084 455.314 71.4924C451.534 50.8574 434.574 34.2364 412.554 31.7824C403.884 30.8164 395.504 32.1964 388.014 35.3644C380.654 10.6974 355.134 -4.16761 329.704 1.98639C318.324 4.73939 308.834 11.2484 302.254 19.8614C290.934 4.51239 271.084 -3.39461 251.306 1.39039C240.627 3.97339 231.661 9.89739 225.15 17.7294C213.552 4.43439 195.105 -2.13061 176.702 2.32139Z" sodipodi:nodetypes="ccccccccccccccccccccccccccccccccccccccccccccccccccc"/><path id="shape4" transform="matrix(0.351219512195122 0 0 0.351219512195122 54.3133037978288 104.740335958175)" fill="#549140" stroke-opacity="0" stroke="#000000" stroke-width="0" stroke-linecap="square" stroke-linejoin="bevel" d="M3.5267 0C3.4557 0.739 3.4677 1.487 3.4967 2.245C3.6657 1.728 3.7517 1.182 3.9677 0.685C3.8077 0.467 3.6767 0.225 3.5267 0ZM3.2597 12.13C0.975698 15.315 -0.276302 19.205 0.0516984 23.333C0.306698 26.534 1.4717 29.447 3.2587 31.874C2.1837 34.343 1.6747 37.076 1.9007 39.911C2.5767 48.407 9.5517 54.874 18.0767 55.526C18.1967 55.794 18.3117 56.068 18.4367 56.334C18.8897 60.15 20.6077 63.526 23.1667 66.112C23.0517 67.152 23.0157 68.22 23.1017 69.298C23.7477 77.42 30.1507 83.683 38.1587 84.792C41.1927 91.601 48.1747 96.055 55.9237 95.373C56.4017 95.331 56.8657 95.268 57.3307 95.189C60.6347 101.262 67.2097 105.112 74.4587 104.474C79.6917 104.014 84.1887 101.299 87.1647 97.359C90.7647 101.852 96.4087 104.515 102.526 103.976C108.329 103.466 113.241 100.18 116.156 95.526C117.65 96.498 119.328 97.265 121.13 97.762C121.98 97.996 122.829 98.137 123.679 98.241C125.701 98.824 127.846 99.076 130.068 98.88C130.928 98.805 131.754 98.645 132.572 98.453C134.888 101.782 138.316 104.339 142.483 105.488C148.404 107.12 154.424 105.512 158.775 101.741C160.958 103.991 163.796 105.71 167.12 106.561C175.215 108.635 183.534 104.982 187.481 98.186C188.983 99.112 190.646 99.831 192.465 100.297C201.646 102.648 211.121 97.63 214.167 89.018C222.416 89.399 230.169 84.2 232.463 76.185C233.533 72.438 233.243 68.661 231.882 65.323C237.433 63.543 242.003 59.198 243.673 53.355C245.753 46.109 242.743 38.744 236.733 34.725C236.853 34.375 236.993 34.025 237.093 33.663C237.293 32.981 231.606 30.632 231.713 29.951C230.21 30.996 234.333 33.573 232.573 34.137C233.933 37.475 234.243 41.248 233.173 44.996C230.879 53.011 223.126 58.209 214.877 57.829C211.831 66.44 202.356 71.459 193.174 69.107C191.356 68.641 189.676 67.926 188.174 67C184.227 73.795 175.908 77.449 167.813 75.375C164.489 74.524 161.671 72.818 159.489 70.569C155.138 74.339 149.096 75.933 143.176 74.302C139.008 73.153 135.598 70.592 133.281 67.263C132.464 67.455 131.638 67.615 130.778 67.691C128.556 67.886 126.394 67.637 124.372 67.055C123.522 66.95 122.673 66.81 121.822 66.575C120.021 66.079 118.359 65.308 116.866 64.336C113.95 68.99 109.039 72.276 103.236 72.787C97.1187 73.325 91.4747 70.663 87.8747 66.17C84.8987 70.11 80.3847 72.828 75.1517 73.288C67.9027 73.925 61.3277 70.076 58.0237 64.003C57.5587 64.082 57.0937 64.145 56.6167 64.187C48.8677 64.869 41.8857 60.415 38.8517 53.606C30.8437 52.497 24.4577 46.231 23.8107 38.109C23.7247 37.031 23.7447 35.966 23.8597 34.925C21.3007 32.339 19.5827 28.964 19.1297 25.147C19.0047 24.882 18.8897 24.608 18.7697 24.34C11.4327 23.779 5.2727 18.895 3.2597 12.13Z" sodipodi:nodetypes="ccccccccccccccccccccccccccccccccccccccccccccccccccccccccccc"/><path id="shape5" transform="matrix(0.351219512195122 0 0 0.351219512195122 154.920842766244 88.1926286411018)" fill="none" stroke-opacity="0" stroke="#000000" stroke-width="0" stroke-linecap="square" stroke-linejoin="bevel" d="M1.01068 82.96C-0.389322 88.046 -0.409322 93.551 1.42068 98.633C2.83068 102.571 5.16068 105.729 8.00068 107.983C7.68068 111.606 8.08068 115.303 9.34068 118.792C13.0907 129.249 23.1307 134.239 32.8207 131.147C33.0507 131.431 33.2707 131.725 33.5007 132.004C35.3607 136.633 38.4607 140.121 42.2207 142.222C42.4607 143.593 42.7907 144.964 43.2707 146.291C46.8607 156.287 56.1907 161.281 65.4707 159.005C71.2507 166.24 80.5707 168.675 88.9307 164.249C89.4507 163.976 89.9407 163.682 90.4307 163.368C96.2507 169.546 104.911 171.403 112.731 167.262C118.371 164.273 122.401 158.766 124.311 152.405C129.901 156.444 137.111 157.224 143.711 153.73C149.971 150.415 154.261 143.992 155.841 136.754C157.851 137.299 159.981 137.5 162.161 137.301C163.181 137.207 164.181 136.995 165.161 136.737C167.611 136.546 170.081 135.879 172.471 134.61C173.401 134.119 174.261 133.537 175.101 132.917C178.851 136.071 183.561 137.737 188.591 137.277C195.741 136.623 201.861 131.819 205.351 125.04C208.571 126.887 212.331 127.761 216.321 127.312C226.041 126.219 233.981 117.764 235.961 107.338C237.951 107.821 240.051 107.967 242.241 107.722C253.261 106.482 262.001 95.766 262.331 83.452C271.631 80.142 278.391 69.99 278.101 58.777C277.971 53.534 276.301 48.885 273.611 45.278C279.141 40.47 282.681 32.863 282.471 24.689C282.211 14.552 276.261 6.601 268.171 4.27C268.181 3.769 268.211 3.264 268.191 2.758C268.171 1.803 267.981 0.914 267.861 0C266.561 2.016 265.101 3.911 263.341 5.436C266.031 9.043 267.721 13.68 267.851 18.923C268.141 30.136 261.371 40.287 252.081 43.597C251.751 55.911 243.011 66.627 231.991 67.867C229.801 68.113 227.681 67.979 225.691 67.495C223.711 77.922 215.771 86.377 206.051 87.47C202.061 87.919 198.331 87.052 195.111 85.205C191.621 91.984 185.471 96.781 178.331 97.435C173.291 97.895 168.601 96.217 164.851 93.063C164.011 93.682 163.151 94.264 162.221 94.756C159.831 96.025 157.341 96.703 154.891 96.895C153.911 97.153 152.911 97.365 151.891 97.459C149.711 97.658 147.601 97.444 145.591 96.899C144.001 104.138 139.721 110.56 133.461 113.875C126.861 117.369 119.651 116.589 114.061 112.55C112.151 118.912 108.101 124.431 102.461 127.42C94.6407 131.56 85.9807 129.704 80.1607 123.526C79.6707 123.839 79.1807 124.134 78.6607 124.407C70.3007 128.833 60.9807 126.398 55.2007 119.162C45.9207 121.439 36.6107 116.432 33.0207 106.436C32.5407 105.11 32.1907 103.751 31.9507 102.38C28.1907 100.278 25.0907 96.79 23.2407 92.162C23.0007 91.882 22.7807 91.588 22.5507 91.305C14.2107 93.966 5.64068 90.607 1.01068 82.96Z" sodipodi:nodetypes="ccccccccccccccccccccccccccccccccccccccccccccccccccccccc"/><path id="shape6" transform="matrix(0.351219512195122 0 0 0.351219512195122 154.56283687835 104.393682299638)" fill="#549140" stroke-opacity="0" stroke="#000000" stroke-width="0" stroke-linecap="square" stroke-linejoin="bevel" d="M0 58.497C0.42 59.386 0.94 60.224 1.47 61.061C1.29 60.352 1 59.671 0.88 58.95C0.58 58.821 0.29 58.642 0 58.497ZM73.39 0C71.44 3.383 70.24 7.443 70.25 11.677C70.25 14.959 70.97 17.904 72.2 20.319C71.23 22.909 70.67 25.745 70.67 28.652C70.68 37.366 75.67 43.699 82.2 43.977C82.28 44.247 82.35 44.523 82.43 44.791C82.55 48.698 83.67 52.092 85.48 54.636C85.33 55.712 85.24 56.813 85.24 57.918C85.25 66.247 89.81 72.397 95.91 73.169C97.84 80.036 102.95 84.298 108.96 83.239C109.34 83.174 109.7 83.087 110.06 82.984C112.24 89.082 117.08 92.74 122.7 91.749C126.76 91.034 130.39 88.033 132.92 83.841C135.42 88.299 139.61 90.778 144.36 89.942C148.86 89.149 152.84 85.54 155.37 80.616C156.46 81.547 157.71 82.26 159.07 82.688C159.71 82.89 160.35 82.995 161 83.063C162.52 83.57 164.16 83.73 165.89 83.427C166.55 83.309 167.2 83.107 167.84 82.871C169.43 86.19 171.91 88.664 175.06 89.654C179.52 91.06 184.25 89.128 187.83 85.046C189.38 87.26 191.46 88.899 193.97 89.622C200.09 91.382 206.72 87.238 210.17 80.063C211.27 80.947 212.51 81.609 213.88 82.005C220.81 84.002 228.42 78.399 231.28 69.396C237.62 69.407 243.9 63.7 246.15 55.345C247.21 51.439 247.2 47.566 246.36 44.193C250.75 42.105 254.53 37.422 256.17 31.332C258.2 23.779 256.33 16.338 251.94 12.48C252.06 12.114 252.18 11.747 252.28 11.37C252.47 10.659 252.55 9.953 252.68 9.247C251.46 10.392 250.16 11.404 248.77 12.066C249.62 15.439 249.63 19.307 248.58 23.214C246.33 31.568 240.04 37.276 233.71 37.265C230.84 46.268 223.24 51.87 216.31 49.873C214.93 49.478 213.68 48.819 212.58 47.936C209.13 55.111 202.5 59.255 196.39 57.495C193.88 56.772 191.81 55.146 190.26 52.932C186.68 57.014 181.93 58.933 177.47 57.527C174.32 56.537 171.85 54.059 170.27 50.739C169.62 50.975 168.98 51.178 168.31 51.295C166.59 51.599 164.94 51.443 163.41 50.936C162.76 50.868 162.12 50.763 161.48 50.561C160.12 50.133 158.88 49.416 157.79 48.485C155.27 53.409 151.28 57.018 146.78 57.811C142.03 58.647 137.85 56.167 135.34 51.71C132.81 55.902 129.17 58.907 125.11 59.622C119.49 60.613 114.65 56.955 112.47 50.857C112.11 50.959 111.75 51.046 111.38 51.112C105.36 52.171 100.25 47.909 98.32 41.042C92.22 40.27 87.68 34.116 87.67 25.787C87.67 24.681 87.74 23.585 87.9 22.509C86.08 19.965 84.96 16.571 84.84 12.664C84.76 12.396 84.69 12.12 84.61 11.85C78.99 11.611 74.54 6.868 73.39 0Z" sodipodi:nodetypes="ccccccccccccccccccccccccccccccccccccccccccccccccccccccccccc"/><path id="shape7" transform="matrix(0.351219512195122 0 0 0.351219512195122 99.4123075526291 48.1174286411017)" fill="#549140" stroke-opacity="0" stroke="#000000" stroke-width="0" stroke-linecap="square" stroke-linejoin="bevel" d="M41.5698 59.43C41.5578 59.687 41.5918 59.949 41.5928 60.208C41.6728 60.115 41.7208 59.999 41.8028 59.907C41.7098 59.759 41.6598 59.581 41.5698 59.43ZM8.08181 0C3.61381 4.037 1.12281 10.315 2.04481 16.844C2.39981 19.36 3.23481 21.662 4.42281 23.686C1.10381 27.666 -0.599187 33.091 0.191813 38.69C0.667813 42.057 1.99581 45.033 3.89681 47.468C3.03481 50.16 2.73481 53.096 3.15681 56.079C4.41981 65.02 11.6218 71.339 19.9118 71.393C20.0468 71.667 20.1728 71.944 20.3128 72.216C21.0238 76.221 22.9318 79.677 25.5918 82.223C25.5548 83.333 25.5968 84.464 25.7568 85.598C26.9648 94.145 33.6128 100.306 41.4368 100.882C44.8578 107.861 51.9198 112.063 59.3648 110.764C59.8228 110.684 60.2598 110.56 60.7048 110.442C64.3348 116.622 70.9878 120.216 77.9518 119C82.9788 118.123 87.1238 114.905 89.7198 110.514C93.5228 115 99.1878 117.393 105.066 116.367C110.636 115.394 115.146 111.56 117.636 106.417C119.146 107.334 120.816 108.018 122.586 108.409C123.426 108.594 124.256 108.676 125.086 108.723C127.086 109.189 129.186 109.298 131.326 108.925C132.146 108.781 132.946 108.543 133.716 108.278C136.196 111.628 139.666 114.084 143.786 114.989C149.626 116.274 155.356 114.129 159.296 109.814C161.566 112.031 164.416 113.635 167.686 114.288C175.666 115.878 183.436 111.376 186.766 103.891C188.286 104.759 189.956 105.405 191.756 105.762C200.796 107.566 209.616 101.547 211.946 92.207C219.946 91.994 227.056 85.925 228.706 77.272C229.476 73.226 228.906 69.241 227.356 65.809C232.596 63.512 236.726 58.59 237.926 52.282C238.966 46.827 237.556 41.513 234.566 37.492C232.756 41.062 230.026 43.866 226.706 45.364C228.286 48.992 228.926 53.161 228.276 57.369C226.876 66.368 220.136 72.535 212.416 72.544C210.376 82.243 202.026 88.292 193.256 86.166C191.516 85.745 189.886 85.022 188.406 84.074C185.356 91.808 177.936 96.299 170.206 94.424C167.026 93.654 164.246 91.908 162.006 89.53C158.296 93.935 152.826 96.023 147.156 94.524C143.166 93.469 139.746 90.804 137.276 87.237C136.536 87.493 135.776 87.703 134.986 87.831C132.926 88.164 130.886 88.016 128.956 87.476C128.146 87.405 127.356 87.283 126.536 87.068C124.816 86.612 123.196 85.854 121.716 84.856C119.426 90.164 115.156 94.053 109.796 94.921C104.146 95.837 98.6458 93.187 94.8738 88.397C92.4678 92.917 88.5178 96.17 83.6858 96.953C76.9918 98.037 70.4978 94.101 66.8548 87.545C66.4288 87.657 66.0078 87.78 65.5668 87.851C58.4108 89.01 51.4928 84.422 48.0328 77.036C40.4688 76.226 33.9308 69.613 32.5728 60.649C32.3928 59.459 32.3188 58.276 32.3288 57.117C29.7038 54.386 27.7908 50.741 27.0128 46.536C26.8718 46.248 26.7378 45.961 26.6008 45.671C18.5978 45.393 11.4928 38.584 10.0718 29.206C9.59781 26.077 9.83281 23.021 10.6048 20.23C8.71481 17.634 7.35681 14.467 6.82181 10.935C6.23081 7.034 6.78381 3.298 8.08181 0Z" sodipodi:nodetypes="cccccccccccccccccccccccccccccccccccccccccccccccccccccccccccccc"/>
</svg>
