<?xml version="1.0" standalone="no"?>
<!DOCTYPE svg PUBLIC "-//W3C//DTD SVG 20010904//EN" "http://www.w3.org/TR/2001/REC-SVG-20010904/DTD/svg10.dtd">
<!-- Created using Krita: https://krita.org -->
<svg xmlns="http://www.w3.org/2000/svg" 
    xmlns:xlink="http://www.w3.org/1999/xlink"
    xmlns:krita="http://krita.org/namespaces/svg/krita"
    xmlns:sodipodi="http://sodipodi.sourceforge.net/DTD/sodipodi-0.dtd"
    width="360.72pt"
    height="289.44pt"
    viewBox="0 0 360.72 289.44">
<defs/>
<g id="group0" transform="matrix(0.351219504033798 0 0 0.351219504033798 -512.648855440938 -178.350319422223)" fill="none">
  <path id="shape0" transform="translate(1493.51, 543.293)" fill="#549140" stroke-opacity="0" stroke="#000000" stroke-width="0" stroke-linecap="square" stroke-linejoin="bevel" d="M310.22 0C287.28 0 267.43 14.894 257.59 36.632C250.39 33.083 242.43 31.1 234.09 31.1C206.53 31.1 183.45 52.601 176.84 81.674C168.72 76.902 159.5 74.161 149.74 74.161C117.03 74.161 90.52 104.407 90.52 141.706C90.52 145.772 90.88 149.724 91.49 153.592C62 157.459 39.09 185.99 39.09 220.651C39.09 226.555 39.83 232.238 41.08 237.696C17.26 246.441 0 271.917 0 301.989C0 320.054 6.26 336.408 16.39 348.527C10.61 358.958 7.2 371.269 7.2 384.523C7.2 401.917 13.03 417.706 22.5 429.678C14.87 441.046 10.29 455.228 10.29 470.647C10.29 505.267 33.14 533.747 62.59 537.667C56.86 548.067 53.49 560.327 53.49 573.517C53.49 610.817 79.99 641.017 112.71 641.017C121.94 641.017 130.67 638.557 138.45 634.257C145.95 661.747 168.42 681.687 195 681.687C212.01 681.687 227.31 673.477 238.11 660.387C263.12 669.627 289.73 674.627 317.35 674.627C319.36 674.627 321.34 674.487 323.33 674.437C328.34 676.007 333.57 676.907 339.02 676.907C348.95 676.907 358.32 674.097 366.54 669.167C383.76 665.357 400.37 659.587 416.24 652.047C426.97 664.447 441.86 672.117 458.35 672.117C472.53 672.117 485.54 666.457 495.74 656.987C500.25 658.237 504.93 658.967 509.78 658.967C542.49 658.967 569.03 628.757 569.03 591.457C569.03 588.697 568.83 585.977 568.55 583.307C591.58 574.057 608.12 549.117 608.12 519.687C608.12 506.347 604.69 493.937 598.83 483.467C611.42 471.087 619.44 452.814 619.44 432.369C619.44 420.386 616.68 409.157 611.88 399.4C633.77 389.481 649.27 365.171 649.27 336.678C649.27 309.026 634.68 285.298 613.81 274.852C612.21 259.403 606.09 245.526 596.93 235.08C598.15 229.692 598.86 224.079 598.86 218.259C598.86 180.96 572.33 150.714 539.62 150.714C535.76 150.714 532.01 151.183 528.36 151.985C530.06 145.706 530.97 139.048 530.97 132.137C530.97 94.838 504.43 64.592 471.72 64.592C466.92 64.592 462.3 65.308 457.83 66.536C452.53 35.448 428.53 11.961 399.71 11.961C384.15 11.961 370.04 18.856 359.46 30.053C348.84 11.95 330.75 0 310.22 0Z" sodipodi:nodetypes="cccccccccccccccccccccccccccccccccccccccccccccc"/>
  <path id="shape1" transform="translate(1727.6, 541.374)" fill="#549140" stroke-opacity="0" stroke="#000000" stroke-width="0" stroke-linecap="square" stroke-linejoin="bevel" d="M310.22 0C287.29 0 267.44 14.894 257.59 36.632C250.4 33.083 242.44 31.1 234.1 31.1C206.53 31.1 183.45 52.601 176.84 81.674C168.72 76.902 159.51 74.161 149.74 74.161C117.03 74.161 90.53 104.407 90.53 141.706C90.53 145.772 90.89 149.724 91.49 153.593C62 157.459 39.09 185.99 39.09 220.652C39.09 226.555 39.84 232.239 41.09 237.697C17.26 246.441 0 271.917 0 301.99C0 320.054 6.27 336.408 16.4 348.527C10.61 358.958 7.2 371.27 7.2 384.524C7.2 401.918 13.03 417.706 22.5 429.678C14.88 441.046 10.29 455.228 10.29 470.646C10.29 505.266 33.15 533.756 62.59 537.666C56.86 548.066 53.49 560.326 53.49 573.516C53.49 610.816 80 641.026 112.71 641.026C121.94 641.026 130.67 638.556 138.46 634.256C145.96 661.746 168.43 681.686 195 681.686C212.01 681.686 227.31 673.476 238.11 660.386C263.12 669.626 289.73 674.626 317.36 674.626C319.36 674.626 321.34 674.496 323.34 674.436C328.35 676.006 333.57 676.906 339.02 676.906C348.95 676.906 358.32 674.096 366.54 669.166C383.77 665.356 400.38 659.586 416.24 652.046C426.98 664.446 441.86 672.126 458.35 672.126C472.53 672.126 485.54 666.456 495.74 656.986C500.26 658.236 504.93 658.966 509.79 658.966C542.5 658.966 569.03 628.756 569.03 591.456C569.03 588.696 568.83 585.986 568.55 583.306C591.58 574.056 608.12 549.116 608.12 519.686C608.12 506.346 604.69 493.946 598.83 483.466C611.42 471.086 619.44 452.814 619.44 432.369C619.44 420.386 616.69 409.158 611.89 399.401C633.78 389.481 649.27 365.171 649.27 336.678C649.27 309.026 634.68 285.298 613.81 274.852C612.21 259.403 606.1 245.526 596.94 235.08C598.15 229.692 598.87 224.079 598.87 218.259C598.87 180.961 572.33 150.714 539.62 150.714C535.76 150.714 532.02 151.184 528.37 151.985C530.06 145.707 530.97 139.048 530.97 132.137C530.97 94.838 504.44 64.592 471.73 64.592C466.93 64.592 462.3 65.308 457.84 66.536C452.53 35.448 428.53 11.962 399.72 11.962C384.15 11.962 370.04 18.856 359.47 30.053C348.84 11.95 330.76 0 310.22 0Z" sodipodi:nodetypes="cccccccccccccccccccccccccccccccccccccccccccccc"/>
  <path id="shape2" transform="translate(1709, 575.296)" fill="#9eca46" stroke-opacity="0" stroke="#000000" stroke-width="0" stroke-linecap="square" stroke-linejoin="bevel" d="M301.56 0C279.27 0 259.97 12.451 250.4 30.625C243.41 27.658 235.67 26 227.56 26C200.77 26 178.33 43.975 171.9 68.281C164.01 64.291 155.05 62 145.56 62C113.76 62 88 87.286 88 118.468C88 121.868 88.35 125.172 88.94 128.406C60.27 131.638 38 155.491 38 184.468C38 189.404 38.72 194.155 39.94 198.718C16.78 206.029 0 227.327 0 252.468C0 267.57 6.09 281.243 15.94 291.375C10.31 300.095 7 310.388 7 321.468C7 336.01 12.67 349.209 21.87 359.218C14.46 368.722 10 380.578 10 393.468C10 422.414 32.22 446.224 60.84 449.504C55.27 458.194 52 468.444 52 479.464C52 510.654 77.76 535.904 109.56 535.904C118.54 535.904 127.02 533.844 134.59 530.254C141.88 553.234 163.72 569.904 189.56 569.904C206.1 569.904 220.97 563.044 231.47 552.094C255.78 559.814 281.65 564.004 308.5 564.004C310.45 564.004 312.37 563.884 314.31 563.844C319.18 565.154 324.26 565.904 329.56 565.904C339.21 565.904 348.32 563.554 356.31 559.434C373.06 556.244 389.2 551.434 404.62 545.124C415.06 555.484 429.53 561.904 445.56 561.904C459.34 561.904 471.99 557.174 481.9 549.254C486.3 550.304 490.84 550.904 495.56 550.904C527.36 550.904 553.15 525.654 553.15 494.464C553.15 492.164 552.96 489.894 552.69 487.654C575.07 479.914 591.15 459.064 591.15 434.464C591.15 423.314 587.82 412.944 582.12 404.187C594.36 393.833 602.15 378.561 602.15 361.468C602.15 351.45 599.48 342.063 594.81 333.906C616.09 325.613 631.15 305.289 631.15 281.468C631.15 258.351 616.97 238.514 596.69 229.781C595.13 216.865 589.19 205.264 580.28 196.531C581.46 192.026 582.15 187.334 582.15 182.468C582.15 151.286 556.36 126 524.56 126C520.81 126 517.17 126.392 513.62 127.062C515.27 121.813 516.15 116.246 516.15 110.468C516.15 79.286 490.36 54 458.56 54C453.9 54 449.4 54.598 445.06 55.625C439.9 29.635 416.57 10 388.56 10C373.43 10 359.71 15.764 349.44 25.125C339.11 9.99 321.53 0 301.56 0Z" sodipodi:nodetypes="cccccccccccccccccccccccccccccccccccccccccccccc"/>
  <path id="shape3" transform="translate(1685.22153413421, 600.393861779651)" fill="#86b12f" stroke-opacity="0" stroke="#000000" stroke-width="0" stroke-linecap="square" stroke-linejoin="bevel" d="M222.048 16.7851C200.628 22.9581 185.528 40.2661 181.368 60.3771C173.818 59.4641 165.928 60.0131 158.138 62.2581C132.388 69.6771 115.808 93.1621 116.368 118.296C107.678 116.648 98.4285 116.926 89.3085 119.554C58.7585 128.359 40.9985 159.79 49.6385 189.753C50.5785 193.02 51.8285 196.098 53.2885 199.043C26.6385 210.086 11.8385 239.172 19.8585 267.017C21.2285 271.76 23.2385 276.125 25.6685 280.173C5.43846 293.611 -4.78154 318.721 2.17846 342.88C6.35846 357.391 15.9985 368.844 28.2585 375.852C25.2685 385.789 24.9385 396.597 28.0085 407.246C32.0285 421.216 41.1285 432.336 52.7485 439.396C48.2585 450.586 47.2585 463.216 50.8285 475.596C58.8385 503.416 86.7885 520.146 115.198 515.366C112.248 525.256 111.938 536.016 114.998 546.606C123.628 576.576 155.378 593.706 185.928 584.906C194.558 582.416 202.138 578.086 208.418 572.536C221.788 592.606 247.388 602.576 272.218 595.426C288.108 590.846 300.498 580.126 307.558 566.706C333.058 567.396 359.068 564.246 384.868 556.816C386.738 556.276 388.558 555.636 390.408 555.056C395.458 554.966 400.548 554.286 405.638 552.816C414.918 550.146 423.008 545.366 429.548 539.196C444.758 531.486 458.938 522.386 472.008 512.066C484.908 519.136 500.598 521.296 515.998 516.856C529.238 513.036 540.078 504.986 547.418 494.626C551.928 494.426 556.458 493.746 560.998 492.436C591.548 483.636 609.348 452.226 600.708 422.266C600.068 420.046 599.258 417.916 598.378 415.846C617.748 402.216 627.428 377.726 620.608 354.087C617.528 343.368 611.448 334.328 603.548 327.49C612.438 314.153 615.698 297.319 610.968 280.895C608.198 271.268 603.028 262.99 596.278 256.444C614.438 242.583 623.278 218.883 616.688 195.993C610.288 173.78 591.168 158.645 569.258 155.87C564.178 143.89 555.258 134.388 544.288 128.463C544.168 123.807 543.538 119.106 542.188 114.431C533.558 84.4671 501.768 67.3121 471.218 76.1161C467.618 77.1531 464.218 78.5391 460.998 80.1651C461.128 74.6661 460.438 69.0711 458.838 63.5191C450.198 33.5561 418.418 16.4001 387.858 25.2051C383.378 26.4961 379.228 28.3161 375.338 30.5041C363.178 6.95914 335.328 -5.44986 308.418 2.30614C293.868 6.49614 282.288 15.8331 275.008 27.6731C260.888 15.9891 241.228 11.2581 222.048 16.7851Z" sodipodi:nodetypes="cccccccccccccccccccccccccccccccccccccccccccccc"/>
  <path id="shape4" transform="translate(1583.96, 580.309)" fill="#73b340" stroke-opacity="0" stroke="#000000" stroke-width="0" stroke-linecap="square" stroke-linejoin="bevel" d="M253.67 0C234.91 0 218.68 10.473 210.64 25.76C204.75 23.265 198.24 21.87 191.42 21.87C168.88 21.87 150.01 36.99 144.61 57.435C137.97 54.079 130.43 52.152 122.45 52.152C95.7 52.152 74.03 73.421 74.03 99.651C74.03 102.51 74.32 105.289 74.82 108.01C50.7 110.729 31.97 130.793 31.97 155.167C31.97 159.319 32.58 163.316 33.6 167.154C14.12 173.304 0 191.219 0 212.366C0 225.07 5.13 236.571 13.41 245.093C8.68 252.428 5.89 261.086 5.89 270.407C5.89 282.638 10.66 293.741 18.41 302.16C12.17 310.154 8.42 320.128 8.42 330.97C8.42 355.318 27.11 375.348 51.18 378.101C46.5 385.413 43.75 394.036 43.75 403.31C43.75 429.541 65.42 450.781 92.16 450.781C99.71 450.781 106.85 449.051 113.22 446.021C119.35 465.361 137.72 479.381 159.46 479.381C173.37 479.381 185.87 473.611 194.71 464.401C215.16 470.901 236.92 474.411 259.5 474.411C261.14 474.411 262.76 474.321 264.39 474.281C268.49 475.391 272.76 476.021 277.22 476.021C285.34 476.021 293 474.041 299.72 470.581C313.81 467.891 327.39 463.841 340.36 458.541C349.14 467.251 361.31 472.651 374.79 472.651C386.39 472.651 397.03 468.671 405.37 462.011C409.06 462.891 412.88 463.401 416.85 463.401C443.6 463.401 465.3 442.161 465.3 415.927C465.3 413.986 465.13 412.077 464.9 410.197C483.74 403.688 497.26 386.151 497.26 365.458C497.26 356.075 494.45 347.352 489.67 339.986C499.96 331.277 506.52 318.43 506.52 304.053C506.52 295.626 504.26 287.73 500.34 280.868C518.24 273.893 530.91 256.797 530.91 236.76C530.91 217.314 518.98 200.628 501.92 193.283C500.61 182.419 495.61 172.66 488.11 165.314C489.11 161.525 489.69 157.578 489.69 153.485C489.69 127.256 467.99 105.986 441.25 105.986C438.09 105.986 435.03 106.316 432.05 106.88C433.43 102.464 434.18 97.782 434.18 92.922C434.18 66.692 412.48 45.422 385.73 45.422C381.81 45.422 378.03 45.926 374.37 46.789C370.03 24.927 350.41 8.411 326.85 8.411C314.12 8.411 302.58 13.26 293.94 21.134C285.25 8.403 270.46 0 253.67 0Z" sodipodi:nodetypes="cccccccccccccccccccccccccccccccccccccccccccccc"/>
  <path id="shape5" transform="translate(1850.2, 766.131)" fill="#549140" stroke-opacity="0" stroke="#000000" stroke-width="0" stroke-linecap="square" stroke-linejoin="bevel" d="M11.58 0C10.68 1.644 10.12 3.45 10.12 5.381C10.12 6.376 10.29 7.329 10.55 8.258C10.54 8.067 10.49 7.885 10.49 7.691C10.49 5.297 11.29 3.074 12.63 1.19C12.24 0.826 11.92 0.403 11.58 0ZM154.6 8.175C153.42 9.094 152.08 9.852 150.6 10.375C151.72 12.137 152.35 14.158 152.35 16.323C152.35 20.016 150.5 23.326 147.59 25.563C148.94 27.455 149.74 29.696 149.74 32.106C149.74 37.421 145.91 41.915 140.57 43.587C140.64 44.07 140.68 44.569 140.68 45.067C140.68 51.804 134.53 57.254 126.95 57.254C125.82 57.254 124.74 57.121 123.7 56.894C121.33 58.606 118.31 59.633 115.03 59.633C111.21 59.633 107.76 58.248 105.27 56.009C101.6 57.371 97.75 58.418 93.76 59.108C91.85 59.997 89.69 60.505 87.39 60.505C86.13 60.505 84.91 60.332 83.75 60.048C83.29 60.058 82.83 60.09 82.36 60.09C75.96 60.09 69.8 59.186 64.01 57.517C61.51 59.882 57.96 61.362 54.02 61.362C47.86 61.362 42.65 57.766 40.92 52.8C39.11 53.576 37.09 54.017 34.95 54.017C27.37 54.017 21.23 48.568 21.23 41.83C21.23 39.448 22.01 37.221 23.34 35.343C16.51 34.636 11.21 29.493 11.21 23.239C11.21 20.454 12.28 17.892 14.05 15.839C12.08 13.901 10.85 11.403 10.6 8.645C4.46 10.328 0 15.195 0 20.929C0 24.381 1.63 27.507 4.25 29.824C2.75 31.817 1.87 34.165 1.87 36.698C1.87 40.023 3.37 43.042 5.82 45.33C3.85 47.503 2.67 50.213 2.67 53.159C2.67 59.777 8.59 65.22 16.21 65.969C14.73 67.956 13.86 70.296 13.86 72.816C13.86 79.944 20.72 85.722 29.19 85.722C31.58 85.722 33.83 85.243 35.85 84.422C37.79 89.676 43.61 93.496 50.49 93.496C54.9 93.496 58.86 91.918 61.65 89.415C68.13 91.181 75.02 92.14 82.17 92.14C82.69 92.14 83.21 92.109 83.73 92.099C85.02 92.399 86.38 92.569 87.79 92.569C90.36 92.569 92.78 92.044 94.91 91.103C99.37 90.374 103.67 89.266 107.78 87.825C110.56 90.194 114.41 91.656 118.68 91.656C122.35 91.656 125.73 90.576 128.37 88.765C129.54 89.005 130.75 89.153 132 89.153C140.47 89.152 147.34 83.375 147.34 76.246C147.34 75.719 147.29 75.194 147.21 74.683C153.18 72.914 157.47 68.148 157.47 62.524C157.47 59.974 156.57 57.61 155.05 55.608C158.31 53.241 160.39 49.749 160.39 45.842C160.39 43.552 159.67 41.399 158.43 39.534C164.1 37.638 168.12 33 168.12 27.555C168.12 22.27 164.34 17.738 158.94 15.742C158.53 12.808 156.95 10.167 154.6 8.175Z" sodipodi:nodetypes="cccccccccccccccccccccccccccccccccccccccccccccccccccccccccc"/>
  <path id="shape6" transform="translate(1465.48965186914, 776.622664212924)" fill="#549140" stroke-opacity="0" stroke="#000000" stroke-width="0" stroke-linecap="square" stroke-linejoin="bevel" d="M256.05 0.0123358C231.88 0.500336 211.46 15.4083 204.1 35.6893C196.85 32.5873 188.76 30.8743 180.19 31.0473C159.5 31.4653 141.55 42.4493 132.18 58.3163C124.1 54.1813 114.78 51.8703 104.82 52.0713C74.3903 52.6863 49.8003 76.1303 49.9003 104.435C49.9003 104.567 49.9203 104.694 49.9203 104.825C29.5703 112.762 15.2203 131.512 15.3003 153.138C15.3203 160.264 16.9203 167.019 19.7703 173.128C7.64035 182.774 -0.0596519 197.094 0.000348131 212.952C0.0303481 222.491 2.93035 231.327 7.83035 238.877C3.97035 245.977 1.75035 253.967 1.78035 262.417C1.88035 287.747 21.7203 308.327 47.6903 311.947C48.0003 312.767 48.3003 313.587 48.6203 314.397C49.1203 325.807 53.6003 336.167 60.8403 344.347C60.2403 347.407 59.8903 350.537 59.9003 353.757C59.9903 377.957 78.1303 397.837 102.42 402.707C110.12 423.497 130.47 438.097 154.38 437.617C155.85 437.587 157.29 437.447 158.74 437.307C167.45 455.967 186.7 468.717 209.06 468.267C225.21 467.937 239.65 460.767 249.69 449.677C259.68 463.707 276.35 472.717 295.22 472.337C313.12 471.977 328.95 463.217 338.96 449.997C343.32 453.177 348.23 455.767 353.64 457.597C356.19 458.457 358.76 459.057 361.34 459.527C367.4 461.657 373.94 462.827 380.8 462.687C383.45 462.627 386.03 462.327 388.58 461.917C394.91 472.247 404.77 480.527 417.28 484.767C435.04 490.777 453.9 487.227 468.11 476.907C474.28 484.007 482.54 489.657 492.53 492.837C516.85 500.587 543.2 491.387 556.88 472.017C561.27 475.067 566.22 477.537 571.69 479.287C599.27 488.077 629.48 475.077 640.82 450.147C666.01 452.917 690.98 439.057 699.89 415.747C704.05 404.857 704 393.587 700.62 383.417C718.05 379.247 733.09 367.297 739.58 350.307C747.62 329.237 740.09 306.757 722.62 293.657C723.08 292.647 723.57 291.647 723.98 290.597C734.22 263.787 719.29 234.647 690.65 225.517C684.14 223.437 677.49 222.63 670.96 222.85C670 202.665 656.22 184.239 634.51 177.317C624.44 174.105 614.01 173.858 604.28 175.975C601.27 158.047 588.05 142.317 568.37 136.041C559.96 133.36 551.32 132.762 543.03 133.85C544.27 111.792 530.04 90.8913 506.58 83.4103C497.34 80.4653 487.81 79.9963 478.78 81.5653C477.16 54.5573 453.1 33.5333 423.65 34.1283C410.47 34.3953 398.39 38.9473 388.93 46.3153C380.54 27.9923 360.87 15.3953 337.97 15.8583C325.61 16.1083 314.24 20.1763 305.07 26.7583C295.84 10.4823 277.36 -0.418664 256.05 0.0123358Z" sodipodi:nodetypes="ccccccccccccccccccccccccccccccccccccccccccccccccccc"/>
  <path id="shape7" transform="translate(1522.292648316, 681.265727203157)" fill="#9eca46" stroke-opacity="0" stroke="#000000" stroke-width="0" stroke-linecap="square" stroke-linejoin="bevel" d="M233.217 0.501273C208.477 3.78127 189.617 22.4383 184.927 45.4973C177.047 42.9213 168.507 41.9633 159.727 43.1263C138.547 45.9343 121.677 60.0103 114.307 78.4603C105.427 74.8473 95.5274 73.3743 85.3374 74.7253C54.1774 78.8563 32.2574 107.339 36.3674 138.344C36.3874 138.488 36.4174 138.625 36.4374 138.769C16.6774 149.777 4.59735 171.954 7.73735 195.642C8.76735 203.448 11.3674 210.668 15.1574 217.039C4.06735 228.987 -1.81265 245.553 0.497351 262.924C1.87735 273.372 6.09735 282.723 12.2074 290.438C9.23735 298.664 8.09735 307.672 9.32735 316.927C13.0074 344.664 36.2874 364.964 63.4674 365.984C63.8974 366.844 64.3174 367.714 64.7674 368.564C66.8874 381.004 72.9474 391.854 81.5374 399.994C81.3574 403.414 81.4474 406.884 81.9074 410.404C85.4274 436.924 106.867 456.644 132.477 459.224C143.337 481.134 166.287 494.814 190.757 491.574C192.267 491.374 193.737 491.064 195.197 490.744C206.777 510.204 228.347 521.984 251.237 518.944C267.767 516.754 281.577 507.254 290.317 493.964C302.547 508.204 320.937 516.184 340.257 513.624C358.587 511.194 373.587 499.794 382.007 484.174C386.917 487.164 392.337 489.434 398.147 490.824C400.887 491.484 403.607 491.844 406.317 492.074C412.847 493.724 419.727 494.254 426.737 493.324C429.457 492.964 432.067 492.334 434.627 491.604C442.577 502.204 453.877 510.154 467.317 513.374C486.397 517.944 505.257 511.904 518.387 498.994C525.717 506.074 535.007 511.314 545.707 513.674C571.777 519.404 597.517 506.324 608.817 483.554C613.757 486.384 619.187 488.544 625.047 489.824C654.617 496.334 683.777 478.654 691.897 450.054C718.147 450.224 741.817 432.194 747.657 405.644C750.397 393.234 748.747 380.894 743.837 370.134C761.147 363.584 774.887 348.774 779.147 329.424C784.427 305.421 773.507 281.653 753.717 269.277C754.057 268.114 754.417 266.969 754.687 265.77C761.407 235.225 741.957 204.992 711.267 198.24C704.287 196.705 697.337 196.573 690.677 197.556C686.827 175.546 670.077 156.92 646.817 151.802C636.017 149.427 625.277 150.34 615.587 153.765C609.957 134.462 594.167 118.726 573.067 114.085C564.057 112.102 555.107 112.428 546.747 114.562C544.907 90.2503 527.337 68.9633 502.197 63.4313C492.287 61.2533 482.437 61.8233 473.397 64.5673C467.907 35.1563 440.237 14.8513 410.087 18.8493C396.597 20.6373 384.837 26.9983 376.177 36.1463C364.967 17.0213 342.997 5.45127 319.557 8.56027C306.897 10.2383 295.807 15.9863 287.317 24.2413C275.547 7.45527 255.027 -2.39073 233.217 0.501273Z" sodipodi:nodetypes="ccccccccccccccccccccccccccccccccccccccccccccccccccc"/>
  <path id="shape8" transform="translate(1557.51709104813, 740.069533330655)" fill="#73b340" stroke-opacity="0" stroke="#000000" stroke-width="0" stroke-linecap="square" stroke-linejoin="bevel" d="M188.893 0.159467C169.693 1.75147 154.493 14.9245 150.063 31.8355C144.083 29.6625 137.523 28.6635 130.713 29.2285C114.283 30.5905 100.773 40.4395 94.4329 53.8485C87.7129 50.8735 80.1329 49.4485 72.2229 50.1045C48.0529 52.1085 30.1429 72.4515 32.2229 95.5415C32.2329 95.6495 32.2529 95.7515 32.2629 95.8595C16.6329 103.339 6.53291 119.347 8.12291 136.988C8.64291 142.801 10.3929 148.234 13.0929 153.077C4.11291 161.547 -0.997091 173.611 0.162909 186.548C0.862909 194.329 3.79291 201.394 8.23291 207.311C5.65291 213.3 4.45291 219.929 5.07291 226.822C6.93291 247.481 24.1829 263.29 45.1029 264.97C45.4029 265.62 45.7029 266.27 46.0129 266.92C47.2129 276.2 51.5029 284.44 57.8429 290.75C57.5829 293.28 57.5229 295.85 57.7629 298.47C59.5429 318.22 75.3829 333.54 95.0429 336.32C102.643 352.9 119.863 363.81 138.853 362.24C140.023 362.14 141.163 361.96 142.303 361.77C150.543 376.57 166.763 386.02 184.523 384.54C197.353 383.48 208.343 376.91 215.543 367.37C224.483 378.33 238.383 384.85 253.373 383.61C267.593 382.43 279.563 374.5 286.603 363.22C290.293 365.6 294.383 367.47 298.813 368.7C300.903 369.28 302.993 369.64 305.073 369.9C310.053 371.34 315.333 371.96 320.783 371.51C322.893 371.34 324.923 370.96 326.923 370.5C332.683 378.62 341.113 384.89 351.363 387.72C365.923 391.75 380.683 387.92 391.263 378.8C396.663 384.29 403.643 388.49 411.813 390.59C431.713 395.72 452.033 386.91 461.553 370.43C465.253 372.7 469.373 374.48 473.843 375.63C496.413 381.44 519.533 369.34 526.803 348.44C547.043 349.46 565.933 336.92 571.373 317.46C573.913 308.36 573.083 299.17 569.673 291.04C583.253 286.78 594.373 276.28 598.333 262.1C603.253 244.509 595.673 226.546 580.843 216.716C581.143 215.866 581.463 215.03 581.713 214.153C587.973 191.769 574.043 168.732 550.603 162.695C545.273 161.323 539.923 160.991 534.753 161.493C532.563 145.07 520.303 130.716 502.533 126.141C494.293 124.018 485.983 124.331 478.383 126.539C474.723 112.059 463.103 99.8775 446.993 95.7285C440.113 93.9565 433.203 93.8955 426.673 95.1925C426.113 77.1325 413.313 60.7815 394.113 55.8365C386.553 53.8895 378.943 53.9785 371.863 55.7035C368.673 33.7475 348.043 17.7815 324.653 19.7205C314.183 20.5885 304.893 24.9005 297.883 31.3785C289.923 16.8425 273.383 7.53547 255.193 9.04347C245.373 9.85847 236.613 13.7385 229.783 19.5615C221.293 6.73747 205.813 -1.24453 188.893 0.159467Z" sodipodi:nodetypes="ccccccccccccccccccccccccccccccccccccccccccccccccccc"/>
  <path id="shape9" transform="translate(1561.63711716505, 957.066)" fill="#549140" stroke-opacity="0" stroke="#000000" stroke-width="0" stroke-linecap="square" stroke-linejoin="bevel" d="M0.0528829 0C-0.0171171 0.739 -0.00711716 1.487 0.0228829 2.245C0.192883 1.728 0.272883 1.182 0.492883 0.685C0.332883 0.468 0.202883 0.225 0.0528829 0ZM170.563 0.618C168.273 3.802 167.023 7.692 167.353 11.821C167.603 15.021 168.773 17.935 170.553 20.362C169.483 22.83 168.973 25.563 169.203 28.398C169.873 36.895 176.853 43.364 185.373 44.014C185.493 44.284 185.613 44.554 185.733 44.824C186.193 48.634 187.903 52.014 190.463 54.594C190.353 55.644 190.313 56.704 190.403 57.784C191.043 65.904 197.453 72.174 205.463 73.284C208.493 80.084 215.473 84.544 223.223 83.864C223.703 83.814 224.163 83.754 224.633 83.674C227.933 89.754 234.513 93.594 241.753 92.964C246.993 92.504 251.493 89.784 254.463 85.844C258.063 90.344 263.703 93.004 269.823 92.464C275.633 91.954 280.543 88.664 283.453 84.014C284.953 84.984 286.623 85.754 288.433 86.244C289.283 86.484 290.133 86.624 290.973 86.724C293.003 87.314 295.143 87.564 297.363 87.364C298.223 87.294 299.053 87.134 299.873 86.944C302.183 90.274 305.613 92.824 309.783 93.974C315.703 95.604 321.723 94.004 326.073 90.224C328.253 92.474 331.093 94.194 334.423 95.044C342.513 97.124 350.833 93.464 354.783 86.674C356.283 87.604 357.943 88.314 359.763 88.784C368.943 91.134 378.423 86.114 381.463 77.504C389.713 77.884 397.463 72.684 399.763 64.674C400.833 60.924 400.543 57.144 399.183 53.814C404.733 52.034 409.303 47.684 410.973 41.842C413.053 34.596 410.043 27.231 404.033 23.213C404.153 22.863 404.293 22.512 404.393 22.151C404.593 21.468 404.643 20.785 404.753 20.103C403.243 21.149 401.633 22.06 399.873 22.624C401.233 25.963 401.543 29.735 400.473 33.483C398.173 41.498 390.423 46.694 382.173 46.314C379.133 54.924 369.653 59.944 360.473 57.594C358.653 57.124 356.973 56.414 355.473 55.484C351.523 62.284 343.203 65.934 335.113 63.864C331.793 63.014 328.973 61.304 326.783 59.054C322.433 62.824 316.393 64.424 310.473 62.784C306.303 61.644 302.893 59.084 300.583 55.754C299.763 55.944 298.933 56.104 298.073 56.174C295.853 56.374 293.693 56.124 291.673 55.544C290.823 55.434 289.973 55.294 289.123 55.064C287.323 54.564 285.663 53.794 284.163 52.824C281.253 57.474 276.333 60.764 270.533 61.274C264.413 61.814 258.773 59.154 255.173 54.654C252.193 58.594 247.683 61.314 242.453 61.774C235.203 62.414 228.623 58.564 225.323 52.494C224.863 52.564 224.393 52.634 223.913 52.674C216.163 53.354 209.183 48.904 206.153 42.093C198.143 40.985 191.753 34.718 191.113 26.596C191.023 25.518 191.043 24.453 191.163 23.413C188.603 20.827 186.883 17.451 186.433 13.635C186.303 13.369 186.193 13.095 186.073 12.828C178.733 12.266 172.573 7.382 170.563 0.618Z" sodipodi:nodetypes="ccccccccccccccccccccccccccccccccccccccccccccccccccccccccccc"/>
  <path id="shape10" transform="translate(1942.75308769213, 866.35)" fill="#549140" stroke-opacity="0" stroke="#000000" stroke-width="0" stroke-linecap="square" stroke-linejoin="bevel" d="M10.9669 0C8.10691 2.729 5.83691 6.319 4.72691 10.406C3.86691 13.574 3.82691 16.614 4.43691 19.283C2.77691 21.514 1.46691 24.098 0.706913 26.904C-1.56309 35.315 1.80691 42.796 8.33691 44.856C8.33691 45.137 8.33691 45.424 8.34691 45.704C7.44691 49.507 7.68691 53.091 8.85691 56.044C8.41691 57.04 8.03691 58.078 7.74691 59.145C5.57691 67.185 8.56691 74.371 14.5369 76.79C14.6769 83.947 18.7269 89.462 25.0769 90.09C25.4669 90.129 25.8569 90.145 26.2469 90.145C26.8569 96.628 30.7769 101.485 36.7169 102.073C41.0069 102.497 45.4669 100.597 49.1169 97.246C50.4769 102.235 54.0569 105.777 59.0769 106.273C63.8269 106.743 68.7969 104.354 72.6469 100.296C73.5069 101.494 74.5769 102.524 75.8369 103.31C76.4269 103.68 77.0569 103.96 77.6969 104.203C79.0969 105.11 80.7169 105.715 82.5369 105.895C83.2369 105.964 83.9469 105.946 84.6569 105.895C85.3869 109.533 87.2469 112.603 90.1669 114.42C94.3069 117.003 99.5969 116.438 104.287 113.482C105.267 116.043 106.937 118.196 109.287 119.582C114.997 122.959 122.787 120.78 128.147 114.802C129.037 115.958 130.107 116.937 131.397 117.695C137.877 121.525 147.027 118.206 152.277 110.304C158.677 112.053 166.517 108.271 170.987 100.826C173.077 97.345 174.087 93.608 174.117 90.121C179.097 89.309 184.147 85.828 187.397 80.401C191.437 73.671 191.487 65.976 188.067 61.048C188.287 60.727 188.507 60.407 188.707 60.071C189.087 59.438 189.357 58.779 189.667 58.131C188.127 58.901 186.557 59.522 184.977 59.779C184.947 63.266 183.947 67.003 181.857 70.484C177.397 77.929 169.547 81.711 163.157 79.962C157.897 87.864 148.747 91.183 142.267 87.353C140.987 86.595 139.887 85.616 139.007 84.461C133.647 90.439 125.857 92.618 120.147 89.241C117.797 87.855 116.137 85.718 115.157 83.157C110.467 86.113 105.167 86.661 101.027 84.079C98.1069 82.261 96.2569 79.191 95.5269 75.553C94.8169 75.604 94.1069 75.622 93.4069 75.553C91.5869 75.372 89.9569 74.769 88.5569 73.862C87.9169 73.618 87.2869 73.339 86.6969 72.968C85.4369 72.182 84.3769 71.152 83.5169 69.954C79.6769 74.012 74.7069 76.401 69.9469 75.931C64.9369 75.435 61.3569 71.893 59.9969 66.904C56.3369 70.255 51.8669 72.156 47.5769 71.731C41.6369 71.144 37.7169 66.286 37.1069 59.804C36.7169 59.803 36.3269 59.788 35.9369 59.749C29.5869 59.121 25.5369 53.605 25.3869 46.449C19.4269 44.029 16.4469 36.843 18.6269 28.803C18.9169 27.736 19.2769 26.699 19.7169 25.702C18.5469 22.749 18.3069 19.166 19.2069 15.363C19.1969 15.082 19.1969 14.796 19.1869 14.514C13.5769 12.741 10.3169 6.943 10.9669 0Z" sodipodi:nodetypes="ccccccccccccccccccccccccccccccccccccccccccccccccccccccc"/>
  <path id="shape11" transform="translate(1843.59, 1014.58)" fill="#549140" stroke-opacity="0" stroke="#000000" stroke-width="0" stroke-linecap="square" stroke-linejoin="bevel" d="M0 0C0.43 0.88 0.94 1.72 1.48 2.56C1.29 1.85 1.01 1.17 0.88 0.45C0.58 0.32 0.3 0.14 0 0Z" sodipodi:nodetypes="cccc"/>
  <path id="shape12" transform="translate(1635.37412446902, 798.261)" fill="#549140" stroke-opacity="0" stroke="#000000" stroke-width="0" stroke-linecap="square" stroke-linejoin="bevel" d="M92.7659 57.017C92.7559 57.274 92.7859 57.536 92.7859 57.795C92.8659 57.702 92.9159 57.586 92.9959 57.494C92.9059 57.346 92.8559 57.169 92.7659 57.017ZM16.4959 0C11.2859 3.023 7.54588 8.647 7.09588 15.225C6.92588 17.76 7.26588 20.186 8.00588 22.411C3.92588 25.616 1.13588 30.57 0.755876 36.211C0.515876 39.604 1.19588 42.79 2.55588 45.567C1.15588 48.022 0.255876 50.832 0.0458755 53.838C-0.574124 62.846 5.15588 70.521 13.2559 72.294C13.3359 72.59 13.3959 72.888 13.4759 73.182C13.3459 77.248 14.4959 81.025 16.5659 84.067C16.3059 85.144 16.1059 86.26 16.0259 87.403C15.4359 96.014 20.6659 103.42 28.1959 105.606C30.0959 113.143 36.1359 118.719 43.6859 118.992C44.1559 119.009 44.6059 118.979 45.0659 118.955C47.3359 125.754 53.0959 130.65 60.1559 130.905C65.2559 131.09 69.9859 128.802 73.4359 125.045C76.2259 130.222 81.2659 133.738 87.2259 133.953C92.8859 134.158 98.0959 131.343 101.586 126.828C102.876 128.039 104.366 129.053 106.026 129.805C106.806 130.159 107.606 130.412 108.406 130.63C110.266 131.5 112.296 132.042 114.456 132.121C115.296 132.151 116.126 132.083 116.936 131.985C118.666 135.776 121.556 138.899 125.386 140.637C130.836 143.106 136.896 142.197 141.636 138.792C143.406 141.433 145.856 143.592 148.926 144.91C156.396 148.121 164.936 145.33 169.746 138.698C171.056 139.862 172.556 140.841 174.236 141.562C182.706 145.203 192.586 141.144 196.796 132.49C204.666 133.942 212.886 129.481 216.296 121.357C217.886 117.559 218.156 113.543 217.346 109.864C222.956 108.703 228.016 104.745 230.496 98.823C232.646 93.702 232.366 88.213 230.276 83.659C227.766 86.775 224.506 88.951 220.956 89.728C221.746 93.604 221.506 97.815 219.996 101.797C216.766 110.312 208.896 114.946 201.336 113.353C197.336 122.418 187.906 126.603 179.766 122.703C178.156 121.931 176.706 120.886 175.456 119.65C170.866 126.585 162.686 129.439 155.506 126.001C152.556 124.589 150.196 122.304 148.496 119.512C143.966 123.053 138.166 123.959 132.936 121.317C129.246 119.457 126.466 116.142 124.786 112.14C124.006 112.236 123.216 112.283 122.416 112.244C120.336 112.144 118.376 111.577 116.586 110.646C115.826 110.411 115.066 110.126 114.316 109.747C112.726 108.943 111.296 107.866 110.056 106.581C106.716 111.3 101.726 114.218 96.3059 113.955C90.5859 113.679 85.7559 109.946 83.0659 104.478C79.7759 108.401 75.2359 110.764 70.3459 110.527C63.5659 110.199 58.0359 105.001 55.8259 97.833C55.3859 97.853 54.9559 97.886 54.5059 97.865C47.2659 97.514 41.4459 91.59 39.5959 83.648C32.3659 81.286 27.3459 73.461 27.8759 64.41C27.9459 63.209 28.1159 62.036 28.3659 60.905C26.3659 57.688 25.2459 53.725 25.3659 49.451C25.2859 49.14 25.2159 48.831 25.1359 48.519C17.3659 46.587 11.8259 38.452 12.3859 28.984C12.5659 25.824 13.4359 22.883 14.7659 20.313C13.4559 17.382 12.7859 14.002 12.9959 10.436C13.2259 6.497 14.5459 2.957 16.4959 0Z" sodipodi:nodetypes="cccccccccccccccccccccccccccccccccccccccccccccccccccccccccccccc"/>
 </g>
</svg>
