<?xml version="1.0" standalone="no"?>
<!DOCTYPE svg PUBLIC "-//W3C//DTD SVG 20010904//EN" "http://www.w3.org/TR/2001/REC-SVG-20010904/DTD/svg10.dtd">
<!-- Created using Krita: https://krita.org -->
<svg xmlns="http://www.w3.org/2000/svg" 
    xmlns:xlink="http://www.w3.org/1999/xlink"
    xmlns:krita="http://krita.org/namespaces/svg/krita"
    xmlns:sodipodi="http://sodipodi.sourceforge.net/DTD/sodipodi-0.dtd"
    width="328.32pt"
    height="288pt"
    viewBox="0 0 328.32 288">
<defs/>
<path id="shape0" transform="matrix(0.351219512195122 0 0 0.351219512195122 45.8786618283989 20.6208200653523)" fill="#549140" stroke-opacity="0" stroke="#000000" stroke-width="0" stroke-linecap="square" stroke-linejoin="bevel" d="M310.218 0C287.288 0 267.438 14.894 257.588 36.632C250.398 33.084 242.438 31.1 234.098 31.1C206.529 31.1 183.447 52.601 176.84 81.675C168.719 76.905 159.505 74.161 149.74 74.161C117.028 74.161 90.525 104.405 90.525 141.705C90.525 145.775 90.885 149.725 91.49 153.595C62 157.455 39.09 185.995 39.09 220.655C39.09 226.555 39.835 232.235 41.083 237.695C17.259 246.445 0 271.915 0 301.985C0 320.055 6.263 336.405 16.394 348.525C10.609 358.955 7.2 371.265 7.2 384.525C7.2 401.915 13.03 417.705 22.502 429.675C14.876 441.045 10.287 455.225 10.287 470.645C10.287 505.275 33.146 533.755 62.589 537.665C56.858 548.065 53.492 560.325 53.492 573.515C53.492 610.815 79.995 641.025 112.706 641.025C121.94 641.025 130.667 638.555 138.456 634.255C145.955 661.745 168.425 681.695 195.003 681.695C212.012 681.695 227.309 673.475 238.108 660.385C263.118 669.625 289.728 674.625 317.358 674.625C319.358 674.625 321.338 674.495 323.328 674.435C328.348 676.015 333.568 676.905 339.018 676.905C348.948 676.905 358.318 674.095 366.538 669.165C383.768 665.355 400.378 659.595 416.238 652.045C426.978 664.445 441.858 672.125 458.348 672.125C472.528 672.125 485.538 666.455 495.738 656.985C500.258 658.245 504.928 658.965 509.788 658.965C542.498 658.965 569.028 628.755 569.028 591.455C569.028 588.695 568.828 585.985 568.548 583.305C591.578 574.055 608.118 549.115 608.118 519.685C608.118 506.345 604.688 493.945 598.828 483.465C611.418 471.085 619.438 452.815 619.438 432.365C619.438 420.385 616.688 409.155 611.888 399.405C633.768 389.485 649.268 365.175 649.268 336.675C649.268 309.025 634.678 285.295 613.808 274.855C612.208 259.405 606.098 245.525 596.938 235.085C598.148 229.695 598.868 224.075 598.868 218.255C598.868 180.965 572.328 150.715 539.618 150.715C535.758 150.715 532.018 151.185 528.368 151.985C530.058 145.705 530.968 139.045 530.968 132.135C530.968 94.835 504.438 64.592 471.718 64.592C466.928 64.592 462.298 65.309 457.838 66.536C452.528 35.448 428.528 11.962 399.718 11.962C384.148 11.962 370.038 18.857 359.468 30.054C348.838 11.95 330.758 0 310.218 0Z" sodipodi:nodetypes="cccccccccccccccccccccccccccccccccccccccccccccc"/><path id="shape1" transform="matrix(0.351219512195122 0 0 0.351219512195122 60.9101545113257 41.9696981141327)" fill="#9eca46" stroke-opacity="0" stroke="#000000" stroke-width="0" stroke-linecap="square" stroke-linejoin="bevel" d="M301.56 0C279.27 0 259.97 12.452 250.41 30.62C243.41 27.66 235.67 26 227.56 26C200.77 26 178.33 43.98 171.906 68.28C164.012 64.29 155.055 62 145.562 62C113.764 62 88 87.29 88 118.47C88 121.87 88.35 125.17 88.938 128.41C60.27 131.64 38 155.49 38 184.47C38 189.4 38.724 194.16 39.938 198.72C16.778 206.03 0 227.33 0 252.47C0 267.57 6.089 281.24 15.938 291.38C10.314 300.1 7 310.39 7 321.47C7 336.01 12.667 349.21 21.875 359.22C14.461 368.72 10 380.58 10 393.47C10 422.41 32.222 446.23 60.844 449.5C55.272 458.19 52 468.44 52 479.47C52 510.65 77.764 535.91 109.562 535.91C118.538 535.91 127.022 533.84 134.594 530.25C141.884 553.23 163.726 569.91 189.56 569.91C206.1 569.91 220.97 563.04 231.47 552.09C255.78 559.82 281.65 564 308.5 564C310.45 564 312.37 563.89 314.31 563.84C319.18 565.16 324.27 565.91 329.56 565.91C339.22 565.91 348.32 563.55 356.31 559.44C373.06 556.25 389.21 551.43 404.62 545.12C415.06 555.49 429.53 561.91 445.56 561.91C459.35 561.91 471.99 557.17 481.91 549.25C486.3 550.3 490.84 550.91 495.56 550.91C527.36 550.91 553.16 525.65 553.16 494.47C553.16 492.16 552.96 489.89 552.69 487.66C575.07 479.92 591.16 459.07 591.16 434.47C591.16 423.31 587.82 412.94 582.12 404.19C594.36 393.83 602.16 378.56 602.16 361.47C602.16 351.45 599.48 342.06 594.81 333.91C616.09 325.61 631.16 305.29 631.16 281.47C631.16 258.35 616.97 238.51 596.69 229.78C595.13 216.87 589.19 205.26 580.28 196.53C581.46 192.03 582.16 187.33 582.16 182.47C582.16 151.29 556.36 126 524.56 126C520.82 126 517.17 126.39 513.62 127.06C515.27 121.81 516.16 116.25 516.16 110.47C516.16 79.29 490.36 54 458.56 54C453.9 54 449.4 54.6 445.06 55.62C439.9 29.64 416.58 10 388.56 10C373.43 10 359.71 15.764 349.44 25.12C339.11 9.99 321.53 0 301.56 0Z" sodipodi:nodetypes="cccccccccccccccccccccccccccccccccccccccccccccc"/><path id="shape2" transform="matrix(0.351219512195122 0 0 0.351219512195122 60.9101545113257 41.9696981141327)" fill="#9eca46" stroke-opacity="0" stroke="#000000" stroke-width="0" stroke-linecap="square" stroke-linejoin="bevel" d="M301.56 0C279.27 0 259.97 12.452 250.41 30.62C243.41 27.66 235.67 26 227.56 26C200.77 26 178.33 43.98 171.906 68.28C164.012 64.29 155.055 62 145.562 62C113.764 62 88 87.29 88 118.47C88 121.87 88.35 125.17 88.938 128.41C60.27 131.64 38 155.49 38 184.47C38 189.4 38.724 194.16 39.938 198.72C16.778 206.03 0 227.33 0 252.47C0 267.57 6.089 281.24 15.938 291.38C10.314 300.1 7 310.39 7 321.47C7 336.01 12.667 349.21 21.875 359.22C14.461 368.72 10 380.58 10 393.47C10 422.41 32.222 446.23 60.844 449.5C55.272 458.19 52 468.44 52 479.47C52 510.65 77.764 535.91 109.562 535.91C118.538 535.91 127.022 533.84 134.594 530.25C141.884 553.23 163.726 569.91 189.56 569.91C206.1 569.91 220.97 563.04 231.47 552.09C255.78 559.82 281.65 564 308.5 564C310.45 564 312.37 563.89 314.31 563.84C319.18 565.16 324.27 565.91 329.56 565.91C339.22 565.91 348.32 563.55 356.31 559.44C373.06 556.25 389.21 551.43 404.62 545.12C415.06 555.49 429.53 561.91 445.56 561.91C459.35 561.91 471.99 557.17 481.91 549.25C486.3 550.3 490.84 550.91 495.56 550.91C527.36 550.91 553.16 525.65 553.16 494.47C553.16 492.16 552.96 489.89 552.69 487.66C575.07 479.92 591.16 459.07 591.16 434.47C591.16 423.31 587.82 412.94 582.12 404.19C594.36 393.83 602.16 378.56 602.16 361.47C602.16 351.45 599.48 342.06 594.81 333.91C616.09 325.61 631.16 305.29 631.16 281.47C631.16 258.35 616.97 238.51 596.69 229.78C595.13 216.87 589.19 205.26 580.28 196.53C581.46 192.03 582.16 187.33 582.16 182.47C582.16 151.29 556.36 126 524.56 126C520.82 126 517.17 126.39 513.62 127.06C515.27 121.81 516.16 116.25 516.16 110.47C516.16 79.29 490.36 54 458.56 54C453.9 54 449.4 54.6 445.06 55.62C439.9 29.64 416.58 10 388.56 10C373.43 10 359.71 15.764 349.44 25.12C339.11 9.99 321.53 0 301.56 0Z" sodipodi:nodetypes="cccccccccccccccccccccccccccccccccccccccccccccc"/><path id="shape3" transform="matrix(0.351219512195122 0 0 0.351219512195122 102.091344755228 79.3816005531572)" fill="#9eca46" stroke-opacity="0" stroke="#000000" stroke-width="0" stroke-linecap="square" stroke-linejoin="bevel" d="M253.658 0C234.908 0 218.678 10.48 210.628 25.76C204.748 23.27 198.238 21.87 191.418 21.87C168.878 21.87 150.008 36.99 144.598 57.44C137.958 54.08 130.428 52.16 122.438 52.16C95.698 52.16 74.018 73.43 74.018 99.65C74.018 102.51 74.318 105.29 74.808 108.01C50.698 110.73 31.964 130.8 31.964 155.17C31.965 159.32 32.574 163.32 33.594 167.16C14.114 173.31 0 191.22 0 212.37C0 225.07 5.122 236.57 13.406 245.1C8.676 252.43 5.889 261.09 5.889 270.41C5.889 282.64 10.655 293.75 18.401 302.16C12.164 310.16 8.412 320.13 8.412 330.97C8.412 355.32 27.104 375.35 51.18 378.11C46.493 385.42 43.741 394.04 43.741 403.31C43.741 429.54 65.412 450.79 92.158 450.79C99.708 450.79 106.848 449.05 113.218 446.03C119.348 465.36 137.718 479.39 159.448 479.39C173.358 479.39 185.868 473.61 194.698 464.4C215.148 470.9 236.908 474.42 259.498 474.42C261.138 474.42 262.758 474.32 264.388 474.29C268.488 475.39 272.758 476.02 277.218 476.02C285.338 476.02 292.998 474.04 299.718 470.58C313.808 467.9 327.388 463.84 340.358 458.54C349.138 467.26 361.308 472.66 374.788 472.66C386.388 472.66 397.028 468.67 405.358 462.01C409.058 462.89 412.878 463.4 416.848 463.4C443.598 463.4 465.298 442.16 465.298 415.93C465.298 413.99 465.128 412.08 464.898 410.2C483.728 403.69 497.258 386.15 497.258 365.46C497.258 356.08 494.448 347.36 489.658 339.99C499.958 331.28 506.508 318.43 506.508 304.06C506.508 295.63 504.258 287.73 500.338 280.87C518.228 273.9 530.908 256.8 530.908 236.76C530.908 217.32 518.978 200.63 501.908 193.29C500.598 182.42 495.598 172.66 488.108 165.32C489.098 161.53 489.688 157.58 489.688 153.49C489.688 127.26 467.988 105.99 441.238 105.99C438.088 105.99 435.028 106.32 432.038 106.88C433.428 102.47 434.168 97.79 434.168 92.93C434.168 66.7 412.468 45.43 385.728 45.43C381.798 45.43 378.018 45.93 374.368 46.79C370.028 24.93 350.408 8.42 326.848 8.42C314.118 8.42 302.578 13.26 293.938 21.14C285.248 8.41 270.458 0 253.658 0Z" sodipodi:nodetypes="cccccccccccccccccccccccccccccccccccccccccccccc"/><path id="shape4" transform="matrix(0.351219512195122 0 0 0.351219512195122 81.0181740235207 62.8742834799865)" fill="#73b340" stroke-opacity="0" stroke="#000000" stroke-width="0" stroke-linecap="square" stroke-linejoin="bevel" d="M253.658 0C234.908 0 218.678 10.48 210.628 25.76C204.748 23.27 198.238 21.87 191.418 21.87C168.878 21.87 150.008 36.99 144.598 57.44C137.958 54.08 130.427 52.16 122.442 52.16C95.694 52.16 74.023 73.43 74.023 99.65C74.023 102.51 74.317 105.29 74.811 108.01C50.698 110.73 31.964 130.8 31.964 155.17C31.965 159.32 32.574 163.32 33.594 167.16C14.114 173.31 0 191.22 0 212.37C0 225.07 5.122 236.57 13.406 245.1C8.676 252.43 5.889 261.09 5.889 270.41C5.889 282.64 10.655 293.75 18.401 302.16C12.164 310.16 8.412 320.13 8.412 330.97C8.412 355.32 27.104 375.35 51.18 378.11C46.493 385.42 43.741 394.04 43.741 403.31C43.741 429.54 65.412 450.79 92.16 450.79C99.71 450.79 106.846 449.05 113.215 446.03C119.347 465.36 137.718 479.39 159.448 479.39C173.358 479.39 185.868 473.61 194.698 464.4C215.148 470.9 236.908 474.42 259.498 474.42C261.138 474.42 262.758 474.32 264.388 474.29C268.488 475.39 272.758 476.02 277.218 476.02C285.338 476.02 292.998 474.04 299.718 470.58C313.808 467.9 327.388 463.84 340.358 458.54C349.138 467.26 361.308 472.66 374.788 472.66C386.388 472.66 397.028 468.67 405.358 462.01C409.058 462.89 412.878 463.4 416.848 463.4C443.598 463.4 465.298 442.16 465.298 415.93C465.298 413.99 465.128 412.08 464.898 410.2C483.728 403.69 497.258 386.15 497.258 365.46C497.258 356.08 494.448 347.36 489.658 339.99C499.958 331.28 506.508 318.43 506.508 304.06C506.508 295.63 504.258 287.73 500.338 280.87C518.228 273.9 530.908 256.8 530.908 236.76C530.908 217.32 518.978 200.63 501.908 193.29C500.598 182.42 495.598 172.66 488.108 165.32C489.098 161.53 489.688 157.58 489.688 153.49C489.688 127.26 467.988 105.99 441.238 105.99C438.088 105.99 435.028 106.32 432.038 106.88C433.428 102.47 434.168 97.79 434.168 92.93C434.168 66.7 412.468 45.43 385.728 45.43C381.798 45.43 378.018 45.93 374.368 46.79C370.028 24.93 350.408 8.42 326.848 8.42C314.118 8.42 302.578 13.26 293.938 21.14C285.248 8.41 270.458 0 253.658 0Z" sodipodi:nodetypes="cccccccccccccccccccccccccccccccccccccccccccccc"/><path id="shape5" transform="matrix(0.351219512195122 0 0 0.351219512195122 110.50129597474 108.99642982145)" fill="#549140" stroke-opacity="0" stroke="#000000" stroke-width="0" stroke-linecap="square" stroke-linejoin="bevel" d="M11.587 0C10.684 1.64 10.127 3.45 10.127 5.38C10.127 6.37 10.296 7.32 10.554 8.25C10.543 8.06 10.499 7.88 10.499 7.69C10.499 5.29 11.294 3.07 12.634 1.19C12.244 0.82 11.925 0.4 11.587 0ZM154.603 8.17C153.433 9.09 152.093 9.85 150.613 10.37C151.723 12.13 152.363 14.15 152.363 16.32C152.363 20.01 150.503 23.32 147.593 25.56C148.953 27.45 149.743 29.69 149.743 32.1C149.743 37.42 145.913 41.91 140.583 43.58C140.643 44.07 140.693 44.56 140.693 45.06C140.693 51.8 134.533 57.25 126.953 57.25C125.823 57.25 124.743 57.12 123.703 56.89C121.333 58.6 118.323 59.63 115.033 59.63C111.213 59.63 107.763 58.24 105.283 56C101.603 57.37 97.753 58.41 93.763 59.1C91.853 59.99 89.693 60.5 87.393 60.5C86.133 60.5 84.923 60.33 83.753 60.04C83.293 60.05 82.833 60.09 82.363 60.09C75.963 60.09 69.803 59.18 64.013 57.51C61.513 59.88 57.963 61.36 54.023 61.36C47.863 61.36 42.658 57.76 40.921 52.8C39.116 53.57 37.094 54.01 34.955 54.01C27.375 54.01 21.232 48.56 21.232 41.83C21.232 39.44 22.012 37.22 23.34 35.34C16.517 34.63 11.215 29.49 11.215 23.23C11.215 20.45 12.286 17.89 14.053 15.83C12.087 13.9 10.856 11.4 10.609 8.64C4.462 10.32 0 15.19 0 20.92C0 24.38 1.634 27.5 4.257 29.82C2.759 31.81 1.873 34.16 1.873 36.69C1.873 40.02 3.375 43.04 5.828 45.33C3.853 47.5 2.673 50.21 2.673 53.15C2.673 59.77 8.593 65.22 16.216 65.96C14.732 67.95 13.86 70.29 13.86 72.81C13.86 79.94 20.726 85.72 29.195 85.72C31.586 85.72 33.834 85.24 35.85 84.42C37.792 89.67 43.615 93.49 50.493 93.49C54.903 93.49 58.863 91.91 61.653 89.41C68.133 91.18 75.023 92.14 82.173 92.14C82.693 92.14 83.213 92.1 83.733 92.09C85.023 92.39 86.383 92.56 87.793 92.56C90.363 92.56 92.793 92.04 94.913 91.1C99.383 90.37 103.683 89.26 107.783 87.82C110.563 90.19 114.413 91.65 118.683 91.65C122.353 91.65 125.733 90.57 128.373 88.76C129.543 89 130.753 89.15 132.013 89.15C140.473 89.15 147.343 83.37 147.343 76.24C147.343 75.71 147.293 75.19 147.223 74.68C153.183 72.91 157.473 68.14 157.473 62.52C157.473 59.97 156.573 57.61 155.063 55.6C158.323 53.24 160.393 49.74 160.393 45.84C160.393 43.55 159.673 41.39 158.433 39.53C164.103 37.63 168.123 33 168.123 27.55C168.123 22.27 164.343 17.73 158.943 15.74C158.533 12.8 156.953 10.16 154.603 8.17Z" sodipodi:nodetypes="cccccccccccccccccccccccccccccccccccccccccccccccccccccccccc"/><path id="shape6" transform="matrix(0.351219512195122 0 0 0.351219512195122 109.986817922557 159.020624943401)" fill="#549140" stroke-opacity="0" stroke="#000000" stroke-width="0" stroke-linecap="square" stroke-linejoin="bevel" d="M10.9688 0C8.10983 2.73 5.83283 6.32 4.72783 10.4C3.87183 13.57 3.82883 16.61 4.43883 19.28C2.77283 21.51 1.46683 24.1 0.708833 26.9C-1.56617 35.31 1.80983 42.79 8.33283 44.85C8.33983 45.14 8.34083 45.42 8.35083 45.7C7.44783 49.51 7.68983 53.09 8.85783 56.04C8.42283 57.04 8.04083 58.08 7.75283 59.14C5.57883 67.18 8.56883 74.37 14.5338 76.79C14.6808 83.94 18.7278 89.46 25.0788 90.09C25.4708 90.13 25.8588 90.14 26.2528 90.14C26.8568 96.63 30.7818 101.48 36.7228 102.07C41.0118 102.5 45.4648 100.6 49.1198 97.24C50.4778 102.23 54.0578 105.78 59.0778 106.27C63.8278 106.74 68.7978 104.35 72.6478 100.29C73.5078 101.49 74.5778 102.52 75.8378 103.31C76.4278 103.68 77.0578 103.96 77.6978 104.2C79.0978 105.11 80.7178 105.71 82.5378 105.89C83.2378 105.96 83.9478 105.94 84.6578 105.89C85.3878 109.53 87.2478 112.6 90.1678 114.42C94.3078 117 99.5978 116.44 104.288 113.48C105.268 116.04 106.938 118.19 109.288 119.58C114.998 122.96 122.788 120.78 128.148 114.8C129.038 115.96 130.108 116.93 131.398 117.69C137.878 121.52 147.028 118.2 152.278 110.3C158.678 112.05 166.528 108.27 170.988 100.82C173.078 97.34 174.088 93.61 174.118 90.12C179.098 89.31 184.148 85.83 187.398 80.4C191.438 73.67 191.488 65.97 188.068 61.05C188.288 60.73 188.508 60.41 188.708 60.07C189.088 59.44 189.358 58.78 189.668 58.13C188.128 58.9 186.558 59.52 184.978 59.78C184.948 63.26 183.948 67 181.858 70.48C177.398 77.93 169.548 81.71 163.158 79.96C157.898 87.86 148.748 91.18 142.268 87.35C140.988 86.59 139.888 85.61 139.008 84.46C133.648 90.44 125.858 92.62 120.148 89.24C117.798 87.85 116.138 85.72 115.158 83.15C110.468 86.11 105.168 86.66 101.028 84.08C98.1078 82.26 96.2578 79.19 95.5278 75.55C94.8178 75.6 94.1178 75.62 93.4078 75.55C91.5878 75.37 89.9578 74.77 88.5578 73.86C87.9178 73.62 87.2878 73.34 86.6978 72.97C85.4378 72.18 84.3778 71.15 83.5178 69.95C79.6778 74.01 74.7078 76.4 69.9478 75.93C64.9378 75.43 61.3578 71.89 59.9978 66.9C56.3378 70.25 51.8678 72.15 47.5818 71.73C41.6408 71.14 37.7158 66.28 37.1118 59.8C36.7178 59.8 36.3288 59.79 35.9378 59.75C29.5868 59.12 25.5388 53.6 25.3928 46.45C19.4278 44.03 16.4518 36.84 18.6258 28.8C18.9138 27.73 19.2818 26.7 19.7168 25.7C18.5488 22.75 18.3068 19.16 19.2098 15.36C19.1988 15.08 19.1988 14.79 19.1918 14.51C13.5778 12.74 10.3228 6.94 10.9688 0Z" sodipodi:nodetypes="ccccccccccccccccccccccccccccccccccccccccccccccccccccccc"/><path id="shape7" transform="matrix(0.351219512195122 0 0 0.351219512195122 170.528127172683 136.904332260474)" fill="#549140" stroke-opacity="0" stroke="#000000" stroke-width="0" stroke-linecap="square" stroke-linejoin="bevel" d="M1.00327 37.07C-0.146728 40.85 -0.376728 45.09 0.673272 49.19C1.48327 52.38 2.93327 55.04 4.77327 57.07C4.42327 59.83 4.55327 62.72 5.26327 65.54C7.41327 73.99 14.0233 78.85 20.7233 77.44C20.8633 77.68 21.0033 77.93 21.1533 78.17C22.2333 81.93 24.2033 84.93 26.6733 86.93C26.7833 88.01 26.9533 89.1 27.2233 90.17C29.2833 98.25 35.4133 103.04 41.7933 102.22C45.4333 108.38 51.6733 111.2 57.5133 108.63C57.8733 108.47 58.2233 108.3 58.5633 108.1C62.2733 113.45 68.0733 115.76 73.5433 113.36C77.4833 111.62 80.4333 107.78 81.9733 103.07C85.6033 106.74 90.4633 108.07 95.0733 106.04C99.4533 104.12 102.603 99.6 103.963 94.18C105.303 94.8 106.743 95.17 108.223 95.23C108.923 95.27 109.603 95.2 110.283 95.1C111.953 95.2 113.653 94.94 115.323 94.2C115.973 93.91 116.583 93.55 117.173 93.16C119.593 95.97 122.733 97.73 126.163 97.88C131.033 98.1 135.373 95.01 138.003 90.14C140.113 91.89 142.633 92.94 145.353 93C151.993 93.13 157.703 87.41 159.443 79.57C160.783 80.14 162.203 80.47 163.693 80.5C171.213 80.66 177.553 73.27 178.253 63.81C184.693 62.19 189.673 55.05 189.903 46.37C190.013 42.31 189.063 38.56 187.383 35.51C191.313 32.35 194.003 26.84 194.183 20.52C194.393 12.67 190.663 5.94 185.263 3.33C185.293 2.94 185.333 2.56 185.343 2.16C185.363 1.43 185.273 0.72 185.223 0C184.263 1.43 183.193 2.74 181.943 3.74C183.633 6.79 184.593 10.54 184.483 14.6C184.253 23.27 179.273 30.42 172.843 32.04C172.143 41.5 165.793 48.88 158.273 48.73C156.783 48.7 155.343 48.38 154.013 47.81C152.273 55.65 146.553 61.37 139.923 61.23C137.193 61.17 134.703 60.13 132.583 58.38C129.953 63.26 125.603 66.34 120.733 66.12C117.293 65.97 114.183 64.2 111.753 61.39C111.163 61.78 110.553 62.14 109.913 62.43C108.233 63.16 106.523 63.44 104.853 63.34C104.173 63.44 103.493 63.5 102.793 63.47C101.313 63.4 99.8833 63.03 98.5433 62.4C97.1833 67.83 94.0333 72.35 89.6533 74.27C85.0433 76.3 80.1833 74.97 76.5533 71.29C75.0133 76.01 72.0533 79.86 68.1033 81.59C62.6433 84 56.8333 81.69 53.1333 76.34C52.7833 76.53 52.4433 76.71 52.0833 76.87C46.2433 79.44 40.0033 76.62 36.3633 70.45C29.9833 71.27 23.8633 66.47 21.8033 58.4C21.5333 57.33 21.3433 56.25 21.2333 55.16C18.7733 53.17 16.8033 50.16 15.7233 46.41C15.5733 46.17 15.4333 45.92 15.2933 45.67C9.52327 46.89 3.84327 43.43 1.00327 37.07Z" sodipodi:nodetypes="ccccccccccccccccccccccccccccccccccccccccccccccccccccccc"/>
</svg>
