<?xml version="1.0" encoding="UTF-8" standalone="no"?>
<svg
   xmlns:dc="http://purl.org/dc/elements/1.1/"
   xmlns:cc="http://creativecommons.org/ns#"
   xmlns:rdf="http://www.w3.org/1999/02/22-rdf-syntax-ns#"
   xmlns:svg="http://www.w3.org/2000/svg"
   xmlns="http://www.w3.org/2000/svg"
   viewBox="0 0 1889.76 2645.6667"
   height="2645.6667"
   width="1889.76"
   xml:space="preserve"
   id="svg2"
   version="1.1"><metadata
     id="metadata8"><rdf:RDF><cc:Work
         rdf:about=""><dc:format>image/svg+xml</dc:format><dc:type
           rdf:resource="http://purl.org/dc/dcmitype/StillImage" /><dc:title></dc:title></cc:Work></rdf:RDF></metadata><defs
     id="defs6"><clipPath
       id="clipPath18"
       clipPathUnits="userSpaceOnUse"><path
         id="path16"
         d="M 0,1984.25 H 1417.32 V 0 H 0 Z" /></clipPath><clipPath
       id="clipPath90"
       clipPathUnits="userSpaceOnUse"><path
         id="path88"
         d="M 0,1984.25 H 1417.32 V 0 H 0 Z" /></clipPath><clipPath
       id="clipPath162"
       clipPathUnits="userSpaceOnUse"><path
         id="path160"
         d="M 0,1984.25 H 1417.32 V 0 H 0 Z" /></clipPath><clipPath
       id="clipPath230"
       clipPathUnits="userSpaceOnUse"><path
         id="path228"
         d="M 0,1984.25 H 1417.32 V 0 H 0 Z" /></clipPath></defs><g
     transform="matrix(1.3333333,0,0,-1.3333333,0,2645.6667)"
     id="g10"><g
       id="g12"><g
         clip-path="url(#clipPath18)"
         id="g14"><g
           transform="translate(271,578.2861)"
           id="g20"><path
             id="path22"
             style="fill:#b96d3b;fill-opacity:1;fill-rule:nonzero;stroke:none"
             d="m 0,0 c 0,0 -94.697,37.714 -46.492,176.571 0,0 112.624,269.075 204.92,351.556 0,0 26.715,-38.808 110.715,-60.61 0,0 -154.455,-253.232 -164.657,-422.946 C 104.486,44.571 94.286,-60 0,0" /></g><g
           transform="translate(271,578.2861)"
           id="g24"><path
             id="path26"
             style="fill:none;stroke:#1d1d1b;stroke-width:12;stroke-linecap:butt;stroke-linejoin:miter;stroke-miterlimit:10;stroke-dasharray:none;stroke-opacity:1"
             d="m 0,0 c 0,0 -94.697,37.714 -46.492,176.571 0,0 112.624,269.075 204.92,351.556 0,0 26.715,-38.808 110.715,-60.61 0,0 -154.455,-253.232 -164.657,-422.946 C 104.486,44.571 94.286,-60 0,0 Z" /></g><g
           transform="translate(277.9346,580.8945)"
           id="g28"><path
             id="path30"
             style="fill:#d3b59d;fill-opacity:1;fill-rule:nonzero;stroke:none"
             d="m 0,0 c 0,0 9.637,28.499 28.956,28.173 0,0 16.276,-0.547 19.437,-13.273 0,0 4.716,-22.985 -0.369,-31.131 0,0 -29.411,0.662 -48.024,16.231" /></g><g
           transform="translate(277.9346,580.8945)"
           id="g32"><path
             id="path34"
             style="fill:none;stroke:#1d1d1b;stroke-width:7;stroke-linecap:butt;stroke-linejoin:miter;stroke-miterlimit:10;stroke-dasharray:none;stroke-opacity:1"
             d="m 0,0 c 0,0 9.637,28.499 28.956,28.173 0,0 16.276,-0.547 19.437,-13.273 0,0 4.716,-22.985 -0.369,-31.131 0,0 -29.411,0.662 -48.024,16.231 z" /></g><g
           transform="translate(255.3335,597.8174)"
           id="g36"><path
             id="path38"
             style="fill:#d3b59d;fill-opacity:1;fill-rule:nonzero;stroke:none"
             d="m 0,0 c 0,0 16.257,25.313 34.92,20.314 0,0 15.66,-4.474 15.642,-17.586 0,0 -0.996,-23.444 -7.903,-30.115 0,0 -28.375,7.771 -42.659,27.387" /></g><g
           transform="translate(255.3335,597.8174)"
           id="g40"><path
             id="path42"
             style="fill:none;stroke:#1d1d1b;stroke-width:7;stroke-linecap:butt;stroke-linejoin:miter;stroke-miterlimit:10;stroke-dasharray:none;stroke-opacity:1"
             d="m 0,0 c 0,0 16.257,25.313 34.92,20.314 0,0 15.66,-4.474 15.642,-17.586 0,0 -0.996,-23.444 -7.903,-30.115 0,0 -28.375,7.771 -42.659,27.387 z" /></g><g
           transform="translate(235.0225,616.5225)"
           id="g44"><path
             id="path46"
             style="fill:#d3b59d;fill-opacity:1;fill-rule:nonzero;stroke:none"
             d="m 0,0 c 0,0 19.834,22.62 37.549,14.906 0,0 14.822,-6.75 12.857,-19.715 0,0 -4.464,-23.035 -12.285,-28.606 0,0 -26.907,11.895 -38.121,33.415" /></g><g
           transform="translate(235.0225,616.5225)"
           id="g48"><path
             id="path50"
             style="fill:none;stroke:#1d1d1b;stroke-width:7;stroke-linecap:butt;stroke-linejoin:miter;stroke-miterlimit:10;stroke-dasharray:none;stroke-opacity:1"
             d="m 0,0 c 0,0 19.834,22.62 37.549,14.906 0,0 14.822,-6.75 12.857,-19.715 0,0 -4.464,-23.035 -12.285,-28.606 0,0 -26.907,11.895 -38.121,33.415 z" /></g><g
           transform="translate(1169.9736,578.2861)"
           id="g52"><path
             id="path54"
             style="fill:#b96d3b;fill-opacity:1;fill-rule:nonzero;stroke:none"
             d="m 0,0 c 0,0 94.697,37.714 46.491,176.571 0,0 -112.623,269.075 -204.92,351.556 0,0 -26.714,-38.808 -110.714,-60.61 0,0 154.455,-253.232 164.657,-422.946 0,0 10.2,-104.571 104.486,-44.571" /></g><g
           transform="translate(1169.9736,578.2861)"
           id="g56"><path
             id="path58"
             style="fill:none;stroke:#1d1d1b;stroke-width:12;stroke-linecap:butt;stroke-linejoin:miter;stroke-miterlimit:10;stroke-dasharray:none;stroke-opacity:1"
             d="m 0,0 c 0,0 94.697,37.714 46.491,176.571 0,0 -112.623,269.075 -204.92,351.556 0,0 -26.714,-38.808 -110.714,-60.61 0,0 154.455,-253.232 164.657,-422.946 0,0 10.2,-104.571 104.486,-44.571 z" /></g><g
           transform="translate(1167.4072,580.8945)"
           id="g60"><path
             id="path62"
             style="fill:#d3b59d;fill-opacity:1;fill-rule:nonzero;stroke:none"
             d="m 0,0 c 0,0 -9.638,28.499 -28.956,28.173 0,0 -16.276,-0.547 -19.438,-13.273 0,0 -4.715,-22.985 0.37,-31.131 0,0 29.411,0.662 48.024,16.231" /></g><g
           transform="translate(1167.4072,580.8945)"
           id="g64"><path
             id="path66"
             style="fill:none;stroke:#1d1d1b;stroke-width:7;stroke-linecap:butt;stroke-linejoin:miter;stroke-miterlimit:10;stroke-dasharray:none;stroke-opacity:1"
             d="m 0,0 c 0,0 -9.638,28.499 -28.956,28.173 0,0 -16.276,-0.547 -19.438,-13.273 0,0 -4.715,-22.985 0.37,-31.131 0,0 29.411,0.662 48.024,16.231 z" /></g><g
           transform="translate(1190.0078,597.8174)"
           id="g68"><path
             id="path70"
             style="fill:#d3b59d;fill-opacity:1;fill-rule:nonzero;stroke:none"
             d="m 0,0 c 0,0 -16.257,25.313 -34.92,20.314 0,0 -15.659,-4.474 -15.642,-17.586 0,0 0.996,-23.444 7.904,-30.115 0,0 28.374,7.771 42.658,27.387" /></g><g
           transform="translate(1190.0078,597.8174)"
           id="g72"><path
             id="path74"
             style="fill:none;stroke:#1d1d1b;stroke-width:7;stroke-linecap:butt;stroke-linejoin:miter;stroke-miterlimit:10;stroke-dasharray:none;stroke-opacity:1"
             d="m 0,0 c 0,0 -16.257,25.313 -34.92,20.314 0,0 -15.659,-4.474 -15.642,-17.586 0,0 0.996,-23.444 7.904,-30.115 0,0 28.374,7.771 42.658,27.387 z" /></g><g
           transform="translate(1210.3193,616.5225)"
           id="g76"><path
             id="path78"
             style="fill:#d3b59d;fill-opacity:1;fill-rule:nonzero;stroke:none"
             d="m 0,0 c 0,0 -19.835,22.62 -37.549,14.906 0,0 -14.822,-6.75 -12.857,-19.715 0,0 4.464,-23.035 12.285,-28.606 0,0 26.906,11.895 38.121,33.415" /></g><g
           transform="translate(1210.3193,616.5225)"
           id="g80"><path
             id="path82"
             style="fill:none;stroke:#1d1d1b;stroke-width:7;stroke-linecap:butt;stroke-linejoin:miter;stroke-miterlimit:10;stroke-dasharray:none;stroke-opacity:1"
             d="m 0,0 c 0,0 -19.835,22.62 -37.549,14.906 0,0 -14.822,-6.75 -12.857,-19.715 0,0 4.464,-23.035 12.285,-28.606 0,0 26.906,11.895 38.121,33.415 z" /></g></g></g></g></svg>