<?xml version="1.0" encoding="UTF-8" standalone="no"?>
<svg
   xmlns:dc="http://purl.org/dc/elements/1.1/"
   xmlns:cc="http://creativecommons.org/ns#"
   xmlns:rdf="http://www.w3.org/1999/02/22-rdf-syntax-ns#"
   xmlns:svg="http://www.w3.org/2000/svg"
   xmlns="http://www.w3.org/2000/svg"
   viewBox="0 0 1889.76 2645.6667"
   height="2645.6667"
   width="1889.76"
   xml:space="preserve"
   id="svg292"
   version="1.1"><metadata
     id="metadata298"><rdf:RDF><cc:Work
         rdf:about=""><dc:format>image/svg+xml</dc:format><dc:type
           rdf:resource="http://purl.org/dc/dcmitype/StillImage" /><dc:title></dc:title></cc:Work></rdf:RDF></metadata><defs
     id="defs296"><clipPath
       id="clipPath308"
       clipPathUnits="userSpaceOnUse"><path
         id="path306"
         d="M 0,1984.25 H 1417.32 V 0 H 0 Z" /></clipPath><clipPath
       id="clipPath380"
       clipPathUnits="userSpaceOnUse"><path
         id="path378"
         d="M 0,1984.25 H 1417.32 V 0 H 0 Z" /></clipPath><clipPath
       id="clipPath452"
       clipPathUnits="userSpaceOnUse"><path
         id="path450"
         d="M 0,1984.25 H 1417.32 V 0 H 0 Z" /></clipPath><clipPath
       id="clipPath520"
       clipPathUnits="userSpaceOnUse"><path
         id="path518"
         d="M 0,1984.25 H 1417.32 V 0 H 0 Z" /></clipPath></defs><g
     transform="matrix(1.3333333,0,0,-1.3333333,0,2645.6667)"
     id="g300"><g
       id="g514"><g
         clip-path="url(#clipPath520)"
         id="g516"><g
           transform="translate(395.8569,1696)"
           id="g522"><path
             id="path524"
             style="fill:#b96d3b;fill-opacity:1;fill-rule:nonzero;stroke:none"
             d="m 0,0 c 0,0 110.035,127.286 312.803,127.286 0,0 216.911,16.714 358.34,-169.715 0,0 189,100.286 234,-64.285 0,0 38.571,-138.857 -138.857,-177.429 0,0 27,-182.571 -127.286,-363.857 0,0 -93.857,-144 -313.714,-140.143 0,0 -169.714,-16.714 -325.286,128.572 0,0 -174.857,156.857 -140.143,389.571 0,0 -191.571,63 -117,236.571 0,0 70.715,147.858 257.143,33.429" /></g><g
           transform="translate(395.8569,1696)"
           id="g526"><path
             id="path528"
             style="fill:none;stroke:#1d1d1b;stroke-width:18;stroke-linecap:butt;stroke-linejoin:miter;stroke-miterlimit:10;stroke-dasharray:none;stroke-opacity:1"
             d="m 0,0 c 0,0 110.035,127.286 312.803,127.286 0,0 216.911,16.714 358.34,-169.715 0,0 189,100.286 234,-64.285 0,0 38.571,-138.857 -138.857,-177.429 0,0 27,-182.571 -127.286,-363.857 0,0 -93.857,-144 -313.714,-140.143 0,0 -169.714,-16.714 -325.286,128.572 0,0 -174.857,156.857 -140.143,389.571 0,0 -191.571,63 -117,236.571 0,0 70.715,147.858 257.143,33.429 z" /></g><g
           transform="translate(513.1641,1067.7144)"
           id="g530"><path
             id="path532"
             style="fill:none;stroke:#1d1d1b;stroke-width:10;stroke-linecap:butt;stroke-linejoin:miter;stroke-miterlimit:10;stroke-dasharray:none;stroke-opacity:1"
             d="m 0,0 c 0,0 38.693,-60 213.55,-57.429 0,0 98.572,-6 199.715,71.143" /></g><g
           transform="translate(914.4375,1106.4136)"
           id="g534"><path
             id="path536"
             style="fill:none;stroke:#1d1d1b;stroke-width:10;stroke-linecap:butt;stroke-linejoin:miter;stroke-miterlimit:10;stroke-dasharray:none;stroke-opacity:1"
             d="M 0,0 C 0,0 0.087,-37.644 37.255,-26.712" /></g><g
           transform="translate(523.6919,1093.4136)"
           id="g538"><path
             id="path540"
             style="fill:none;stroke:#1d1d1b;stroke-width:10;stroke-linecap:butt;stroke-linejoin:miter;stroke-miterlimit:10;stroke-dasharray:none;stroke-opacity:1"
             d="M 0,0 C 0,0 -0.086,-37.644 -37.254,-26.712" /></g><g
           transform="translate(706.0107,1267.8569)"
           id="g542"><path
             id="path544"
             style="fill:#d3b59d;fill-opacity:1;fill-rule:nonzero;stroke:none"
             d="m 0,0 c 0,0 152.561,2.572 149.703,-54.286 0,0 9.286,-102.857 -135.428,-102.857 0,0 -149.714,0 -157.714,102.857 0,0 -10.286,60.572 143.439,54.286" /></g><g
           transform="translate(706.0107,1267.8569)"
           id="g546"><path
             id="path548"
             style="fill:none;stroke:#1d1d1b;stroke-width:12;stroke-linecap:butt;stroke-linejoin:miter;stroke-miterlimit:10;stroke-dasharray:none;stroke-opacity:1"
             d="m 0,0 c 0,0 152.561,2.572 149.703,-54.286 0,0 9.286,-102.857 -135.428,-102.857 0,0 -149.714,0 -157.714,102.857 0,0 -10.286,60.572 143.439,54.286 z" /></g><g
           transform="translate(670.3218,1437.7144)"
           id="g550"><path
             id="path552"
             style="fill:#ffffff;fill-opacity:1;fill-rule:nonzero;stroke:none"
             d="m 0,0 c 0,-57.142 -46.323,-103.465 -103.465,-103.465 -57.141,0 -103.464,46.323 -103.464,103.465 0,57.142 46.323,103.464 103.464,103.464 C -46.323,103.464 0,57.142 0,0" /></g><g
           transform="translate(670.3218,1437.7144)"
           id="g554"><path
             id="path556"
             style="fill:none;stroke:#1d1d1b;stroke-width:12;stroke-linecap:butt;stroke-linejoin:miter;stroke-miterlimit:10;stroke-dasharray:none;stroke-opacity:1"
             d="m 0,0 c 0,-57.142 -46.323,-103.465 -103.465,-103.465 -57.141,0 -103.464,46.323 -103.464,103.465 0,57.142 46.323,103.464 103.464,103.464 C -46.323,103.464 0,57.142 0,0 Z" /></g><g
           transform="translate(626.5498,1425.7144)"
           id="g558"><path
             id="path560"
             style="fill:#0182c3;fill-opacity:1;fill-rule:nonzero;stroke:none"
             d="m 0,0 c 0,-31.311 -25.382,-56.693 -56.693,-56.693 -31.31,0 -56.693,25.382 -56.693,56.693 0,31.311 25.383,56.693 56.693,56.693 C -25.382,56.693 0,31.311 0,0" /></g><g
           transform="translate(594.1431,1426.2856)"
           id="g562"><path
             id="path564"
             style="fill:#1d1d1b;fill-opacity:1;fill-rule:nonzero;stroke:none"
             d="m 0,0 c 0,-20.513 -11.001,-37.143 -24.572,-37.143 -13.57,0 -24.571,16.63 -24.571,37.143 0,20.514 11.001,37.143 24.571,37.143 C -11.001,37.143 0,20.514 0,0" /></g><g
           transform="translate(592.3691,1444.4287)"
           id="g566"><path
             id="path568"
             style="fill:#ffffff;fill-opacity:1;fill-rule:nonzero;stroke:none"
             d="m 0,0 c 0,-7.828 -6.346,-14.173 -14.173,-14.173 -7.828,0 -14.174,6.345 -14.174,14.173 0,7.828 6.346,14.173 14.174,14.173 C -6.346,14.173 0,7.828 0,0" /></g><g
           transform="translate(945.3223,1437.7144)"
           id="g570"><path
             id="path572"
             style="fill:#ffffff;fill-opacity:1;fill-rule:nonzero;stroke:none"
             d="m 0,0 c 0,-57.142 -46.323,-103.465 -103.465,-103.465 -57.141,0 -103.465,46.323 -103.465,103.465 0,57.142 46.324,103.464 103.465,103.464 C -46.323,103.464 0,57.142 0,0" /></g><g
           transform="translate(945.3223,1437.7144)"
           id="g574"><path
             id="path576"
             style="fill:none;stroke:#1d1d1b;stroke-width:12;stroke-linecap:butt;stroke-linejoin:miter;stroke-miterlimit:10;stroke-dasharray:none;stroke-opacity:1"
             d="m 0,0 c 0,-57.142 -46.323,-103.465 -103.465,-103.465 -57.141,0 -103.465,46.323 -103.465,103.465 0,57.142 46.324,103.464 103.465,103.464 C -46.323,103.464 0,57.142 0,0 Z" /></g><g
           transform="translate(902.5498,1425.7144)"
           id="g578"><path
             id="path580"
             style="fill:#0182c3;fill-opacity:1;fill-rule:nonzero;stroke:none"
             d="m 0,0 c 0,-31.311 -25.382,-56.693 -56.692,-56.693 -31.311,0 -56.694,25.382 -56.694,56.693 0,31.311 25.383,56.693 56.694,56.693 C -25.382,56.693 0,31.311 0,0" /></g><g
           transform="translate(872.1426,1426.2856)"
           id="g582"><path
             id="path584"
             style="fill:#1d1d1b;fill-opacity:1;fill-rule:nonzero;stroke:none"
             d="m 0,0 c 0,-20.513 -11.001,-37.143 -24.571,-37.143 -13.571,0 -24.572,16.63 -24.572,37.143 0,20.514 11.001,37.143 24.572,37.143 C -11.001,37.143 0,20.514 0,0" /></g><g
           transform="translate(871.3691,1444.4287)"
           id="g586"><path
             id="path588"
             style="fill:#ffffff;fill-opacity:1;fill-rule:nonzero;stroke:none"
             d="m 0,0 c 0,-7.828 -6.346,-14.173 -14.173,-14.173 -7.828,0 -14.174,6.345 -14.174,14.173 0,7.828 6.346,14.173 14.174,14.173 C -6.346,14.173 0,7.828 0,0" /></g><g
           transform="translate(1144.5635,1450.0557)"
           id="g590"><path
             id="path592"
             style="fill:#d3b59d;fill-opacity:1;fill-rule:nonzero;stroke:none"
             d="m 0,0 c 0,0 -1.689,64.817 -60.496,158.995 0,0 152.076,104.013 191.391,-25.797 C 130.895,133.198 164.15,27.373 0,0" /></g><g
           transform="translate(1144.5635,1450.0557)"
           id="g594"><path
             id="path596"
             style="fill:none;stroke:#1d1d1b;stroke-width:12.75;stroke-linecap:butt;stroke-linejoin:miter;stroke-miterlimit:10;stroke-dasharray:none;stroke-opacity:1"
             d="m 0,0 c 0,0 -1.689,64.817 -60.496,158.995 0,0 152.076,104.013 191.391,-25.797 C 130.895,133.198 164.15,27.373 0,0 Z" /></g><g
           transform="translate(286.7686,1478.4165)"
           id="g598"><path
             id="path600"
             style="fill:#d3b59d;fill-opacity:1;fill-rule:nonzero;stroke:none"
             d="m 0,0 c 0,0 12.364,66.577 88.452,154.078 0,0 -139.811,132.202 -201.632,4.755 0,0 -52.109,-101.535 113.18,-158.833" /></g><g
           transform="translate(286.7686,1478.4165)"
           id="g602"><path
             id="path604"
             style="fill:none;stroke:#1d1d1b;stroke-width:13.31499958;stroke-linecap:butt;stroke-linejoin:miter;stroke-miterlimit:10;stroke-dasharray:none;stroke-opacity:1"
             d="m 0,0 c 0,0 12.364,66.577 88.452,154.078 0,0 -139.811,132.202 -201.632,4.755 0,0 -52.109,-101.535 113.18,-158.833 z" /></g><g
           transform="translate(619.4282,1585.4287)"
           id="g606"><path
             id="path608"
             style="fill:none;stroke:#1d1d1b;stroke-width:12;stroke-linecap:butt;stroke-linejoin:miter;stroke-miterlimit:10;stroke-dasharray:none;stroke-opacity:1"
             d="M 0,0 C 0,0 -73.286,37.286 -144,-20.572" /></g><g
           transform="translate(794.4287,1585.4287)"
           id="g610"><path
             id="path612"
             style="fill:none;stroke:#1d1d1b;stroke-width:12;stroke-linecap:butt;stroke-linejoin:miter;stroke-miterlimit:10;stroke-dasharray:none;stroke-opacity:1"
             d="M 0,0 C 0,0 73.285,37.286 144,-20.572" /></g></g></g></g></svg>