<?xml version="1.0" standalone="no"?>
<!DOCTYPE svg PUBLIC "-//W3C//DTD SVG 20010904//EN" "http://www.w3.org/TR/2001/REC-SVG-20010904/DTD/svg10.dtd">
<!-- Created using Krita: http://krita.org -->
<svg xmlns="http://www.w3.org/2000/svg" 
    xmlns:xlink="http://www.w3.org/1999/xlink"
    xmlns:krita="http://krita.org/namespaces/svg/krita"
    xmlns:sodipodi="http://sodipodi.sourceforge.net/DTD/sodipodi-0.dtd"
    width="720pt"
    height="720pt"
    viewBox="0 0 720 720">
<defs/>
<path id="shape0" transform="translate(158.228477179654, 105.120001622669)" fill="#000000" fill-rule="evenodd" stroke="#bfbfbf" stroke-width="2.88" stroke-linecap="square" stroke-linejoin="bevel" d="M190.252 513C176.572 516.12 159.772 516.96 139.852 515.52C119.932 514.08 109.852 513.24 109.612 513L109.972 497.52L106.012 499.68L107.812 482.76L103.132 486L105.292 469.08L102.412 469.44L102.412 435.24L100.252 435.24L100.612 411.12L98.4515 412.92L96.2915 387.36C95.8115 389.76 94.7315 391.56 93.0515 392.76C90.5315 394.56 86.5715 398.52 82.2515 393.48C79.3715 390.12 77.6915 387.24 77.2115 384.84C77.4515 394.68 76.9715 400.32 75.7715 401.76C73.9715 403.92 70.0115 408.96 67.1315 409.68C64.2515 410.4 59.9315 412.56 57.0515 409.32C55.1315 407.16 53.4515 403.8 52.0115 399.24C48.8915 404.04 46.6115 406.68 45.1715 407.16C43.0115 407.88 38.6915 410.76 33.2915 405.72C29.6915 402.36 27.0515 398.16 25.3715 393.12C23.4515 396.24 21.2915 398.16 18.8915 398.88C16.4915 399.6 15.2915 399.96 15.2915 399.96C12.1715 400.92 9.29153 400.2 6.65153 397.8C2.69153 394.2 -1.98847 389.88 0.891525 384.12C3.77153 378.36 41.2115 277.2 40.8515 271.44C40.4915 265.68 37.9715 259.2 39.0515 254.88C39.7715 252 43.6115 245.64 50.5715 235.8L42.6515 235.8L55.2515 216L48.0515 216.72L61.7315 193.32L54.5315 194.76L66.4115 179.64L60.2915 181.44C74.6915 155.28 84.8915 141.6 90.8915 140.4C96.8915 139.2 104.332 137.52 113.212 135.36L113.932 118.8C103.372 113.28 96.0515 107.64 91.9715 101.88C85.8515 93.24 76.4915 75.96 76.1315 71.28C75.8915 68.16 75.8915 66 76.1315 64.8C78.2915 65.04 84.2915 67.2 94.1315 71.28C103.972 75.36 112.012 77.28 118.252 77.04C125.212 61.44 130.852 51.36 135.172 46.8C139.492 42.24 141.652 39.96 141.652 39.96L148.492 33.12L151.732 40.68C151.732 33 153.172 28.08 156.052 25.92C158.932 23.76 165.172 19.56 174.772 13.32L179.092 10.08L177.652 18.72L201.772 5.04L201.772 10.44L230.932 0L228.772 7.92L256.852 8.28L251.452 10.8L280.972 18L269.812 19.44L293.572 27.72L280.972 26.64L303.292 39.6L289.612 37.44C301.132 49.44 307.852 57 309.772 60.12C311.692 63.24 313.732 68.88 315.892 77.04C320.212 78.24 325.492 77.64 331.732 75.24C337.972 72.84 345.652 69 354.772 63.72C356.452 66.36 356.572 71.04 355.132 77.76C352.972 87.84 338.932 109.8 334.612 113.4C331.732 115.8 327.052 117 320.572 117L320.572 135.72C333.532 145.08 340.972 151.32 342.892 154.44C344.812 157.56 349.252 164.64 356.212 175.68L359.812 180.72L355.852 180.72L365.932 190.08L360.892 190.44L374.572 217.08L366.652 214.92L379.972 234.72L371.692 232.2C380.332 250.44 384.772 260.16 385.012 261.36C385.252 262.56 383.812 264.6 380.692 267.48C390.052 304.68 396.772 327.96 400.852 337.32C404.932 346.68 411.532 360 420.652 377.28C421.372 381.6 421.252 385.44 420.292 388.8C418.852 393.84 416.332 398.16 412.012 398.52C409.132 398.76 405.412 397.92 400.852 396L396.532 392.04C397.492 393.48 397.372 395.64 396.172 398.52C394.372 402.84 391.492 406.08 386.452 406.8C383.092 407.28 381.412 407.52 381.412 407.52C374.212 401.76 370.372 398.4 369.892 397.44C369.172 396 372.412 403.56 370.612 406.8C369.412 408.96 367.372 410.52 364.492 411.48C358.972 413.4 355.372 412.8 353.692 409.68C352.012 406.56 349.612 402.24 346.492 396.72L348.292 385.92L340.012 391.68L338.212 394.2L339.652 409.32L335.332 407.88L336.052 443.88L331.012 440.64L330.652 461.16L327.052 462.6L329.932 475.2L327.052 480.24C328.252 483.6 328.252 488.52 327.052 495C325.852 501.48 324.412 506.52 322.732 510.12C322.012 514.44 313.012 516.48 295.732 516.24C269.812 515.88 249.652 518.4 244.252 511.92C238.852 505.44 238.852 505.08 238.492 489.6C238.852 505.08 242.812 474.48 242.452 473.04C242.212 472.08 240.292 467.04 236.692 457.92C236.212 461.76 235.132 464.16 233.452 465.12C231.772 466.08 228.532 464.88 223.732 461.52L220.132 468L208.612 461.16L201.772 465.48L194.212 462.24C193.492 476.16 193.732 484.08 194.932 486C196.132 487.92 197.092 489.24 197.812 489.96L192.412 488.52L193.492 502.56C193.492 502.56 192.412 506.04 190.252 513Z"/>
</svg>
