<?xml version="1.0" encoding="UTF-8" standalone="no"?> <!-- Created with Vectornator for iOS (http://vectornator.io/) --><!DOCTYPE svg PUBLIC "-//W3C//DTD SVG 1.1//EN" "http://www.w3.org/Graphics/SVG/1.1/DTD/svg11.dtd">
<svg xmlns:vectornator="http://vectornator.io" version="1.1" height="100%" xmlns="http://www.w3.org/2000/svg" style="fill-rule:nonzero;clip-rule:evenodd;stroke-linecap:round;stroke-linejoin:round;" xml:space="preserve" width="100%" xmlns:xlink="http://www.w3.org/1999/xlink" viewBox="0 0 3840 2160">
<metadata>
<vectornator:setting value="false" key="WDCMYKEnabledKey"/>
<vectornator:setting key="VNSnapToGuides" value="true"/>
<vectornator:setting key="WDDisplayWhiteBackground" value="false"/>
<vectornator:setting value="false" key="WDSnapToGrid"/>
<vectornator:setting key="WDDynamicGuides" value="false"/>
<vectornator:setting key="VNPencilOnly" value="true"/>
<vectornator:setting key="VNDimensionsVisible" value="true"/>
<vectornator:setting value="true" key="WDRulersVisible"/>
<vectornator:setting value="Pixels" key="WDUnits"/>
<vectornator:setting key="UndoHistoryDisabled" value="false"/>
<vectornator:setting value="false" key="WDIsolateActiveLayer"/>
<vectornator:setting value="false" key="IsTimeLapseWatermarkDisabled"/>
<vectornator:setting value="false" key="WDOutlineMode"/>
<vectornator:setting value="false" key="WDSnapToEdges"/>
<vectornator:setting value="false" key="WDSnapToPoints"/>
<vectornator:setting key="WDGuidesVisible" value="true"/>
</metadata>
<defs>
<linearGradient x1="1873.08" y2="2229.69" gradientTransform="matrix(0.97327 0 0 0.947755 106.832 116.192)" gradientUnits="userSpaceOnUse" x2="1884.5" y1="-219.328" id="LinearGradient">
<stop offset="0.392857" stop-color="#3086f0"/>
<stop offset="1" stop-color="#ffffff"/>
</linearGradient>
<linearGradient x2="1669.14" x1="1586.38" id="LinearGradient_2" y2="3165.75" y1="1.24109" gradientTransform="matrix(1 0 0 1 162.198 -19.861)" gradientUnits="userSpaceOnUse">
<stop stop-color="#4f74a1" offset="0.392857"/>
<stop offset="1" stop-color="#ffffff"/>
</linearGradient>
<linearGradient x1="1556.59" gradientTransform="matrix(1 0 0 1 -139.027 -13.2406)" y2="2844.67" gradientUnits="userSpaceOnUse" x2="1808.16" y1="-101.374" id="LinearGradient_3">
<stop stop-color="#23528d" offset="0.392857"/>
<stop offset="1" stop-color="#ffffff"/>
</linearGradient>
<linearGradient y2="3534.48" id="LinearGradient_4" gradientTransform="matrix(1.00693 0 0 1.0971 143.821 -306.325)" y1="356.494" gradientUnits="userSpaceOnUse" x2="1702.52" x1="1602.97">
<stop offset="0.392857" stop-color="#0f3d76"/>
<stop offset="1" stop-color="#ffffff"/>
</linearGradient>
</defs>
<g vectornator:layerName="Ebene 3" id="Ebene 3">
<path stroke-linecap="round" fill="url(#LinearGradient)" d="M-139.795-102.498L3996.7-102.498L3996.7+2223.98L-139.795+2223.98L-139.795-102.498Z" stroke-width="10" opacity="1" stroke="#000000" stroke-linejoin="round"/>
<path opacity="1" d="M2544.85+716.108C2544.85+420.299+2779.78+180.499+3069.57+180.499C3359.36+180.499+3594.28+420.299+3594.28+716.108C3594.28+1011.92+3359.36+1251.72+3069.57+1251.72C2779.78+1251.72+2544.85+1011.92+2544.85+716.108Z" fill="#eee6d2"/>
<path d="M2341.61+710.782C2341.61+318.228+2665.82+0+3065.76+0C3465.7+0+3789.92+318.228+3789.92+710.782C3789.92+1103.34+3465.7+1421.56+3065.76+1421.56C2665.82+1421.56+2341.61+1103.34+2341.61+710.782Z" fill="#cebf9a" opacity="1" fill-opacity="0.531531"/>
<path fill-opacity="0.531531" fill="#cebf9a" d="M2423.99+714.307C2423.99+367.321+2706.43+86.0329+3054.85+86.0329C3403.26+86.0329+3685.71+367.321+3685.71+714.307C3685.71+1061.29+3403.26+1342.58+3054.85+1342.58C2706.43+1342.58+2423.99+1061.29+2423.99+714.307Z" opacity="1"/>
</g>
<g id="Ebene 1" vectornator:layerName="Ebene 1">
<path opacity="1" fill="url(#LinearGradient_2)" d="M103.432+511.006L361.624+494.455L467.549+1808.59L590.025+1831.76L570.164+266.054L715.811+305.776L755.533+1126.7L1003.79+1143.25L881.319+600.38L987.244+613.62L1103.1+1199.52L1248.75+1146.56L1261.99+607L1401.01+607L1460.6+987.668L1579.76+1014.15L1546.66+603.69L1712.17+593.759L1791.61+1269.03L2059.74+1199.52L2072.98+229.642L2212+226.332L2208.69+1580.19L2450.33+1570.26L2413.92+408.391L2539.71+385.219L2586.05+1699.35L2814.45+1686.11L2718.46+759.267L2837.62+762.578L2973.34+1725.83L3241.46+1719.21L3115.68+408.391L3291.11+408.391L3413.59+1881.41L3562.55+1924.44L3493.03+398.46L3675.09+405.08L3711.5+2053.54L3867.08+2020.44L3804.19+1037.32L4082.24+1070.42L4224.58+2245.53L3032.92+2556.68L-141.52+2086.64L103.432+511.006Z"/>
<path d="M-234.226+1660.82L176.382+1629.67L108.419+678.197L408.588+672.533L448.232+1558.88L637.962+1604.19L589.821+916.066L816.364+842.44L870.168+1394.64L1037.24+1388.97L969.28+230.776L1212.81+230.776L1224.14+1601.36L1456.35+1575.87L1476.17+293.075L1640.41+315.729L1750.85+1927.01L1963.23+1941.17L1898.1+349.711L2096.33+389.356L2198.27+1929.84L2394.06+1891.34L2420.54+1067.11L2533.09+1063.8L2546.33+2030.37L2741.63+2036.99L2708.53+130.337L2807.83+153.508L2877.34+2073.4L3046.16+2080.02L3022.99+1116.76L3195.12+1123.38L3221.6+2030.37L3403.66+1974.1L3390.42+1590.12L3536.07+1576.88L3569.17+1732.45L3678.4+1732.45L3936.6+2000.58L3701.57+2655.99L-201.103+2440.83L-234.226+1660.82Z" opacity="1" fill="url(#LinearGradient_3)"/>
<path opacity="1" fill="url(#LinearGradient_4)" d="M117.961+926.616L361.868+923.819L431.189+2260.95L641.719+2252.56L531.319+663.665L757.254+649.679L852.249+2143.46L1065.35+2126.68L972.919+1556.02L1078.18+1556.02L1168.04+1928.07L1337.5+1894.5L1229.66+1290.27L1463.3+1279.08L1499.24+1793.79L1758.56+1765.82L1663.56+221.685L1933.14+207.698L1994.76+1091.66L2210.43+1158.8L2246.37+635.692L2592.97+646.881L2618.65+1620.36L2934.44+1556.02L2777.83+719.612L3093.62+711.22L3263.08+1981.22L3479.8+1972.03L3439.96+1483.74L3698.9+1494.59L3726.28+1806.55L3815.91+1825.54L3825.87+1600.39L3917.99+1578.68L3940.4+2034.42L4295.96+1963.29L4247.84+2269.09L-34.3794+2426.36L-62.4464+901.715L117.961+926.616Z"/>
</g>
<g vectornator:layerName="Ebene 2" id="Ebene 2">
<path opacity="1" d="M1725.41+342.187L1771.75+342.187L1771.75+418.321L1725.41+418.321L1725.41+342.187Z" fill="#000000"/>
<path d="M576.314+731.763L622.633+730.31L625.019+806.406L578.7+807.859L576.314+731.763Z" fill="#000000" opacity="1"/>
<path d="M992.868+292.759L1039.19+291.307L1041.57+367.403L995.254+368.855L992.868+292.759Z" fill="#000000" opacity="1"/>
<path opacity="1" fill="#000000" d="M101.578+971.445L147.961+970.187L150.35+1036.07L103.968+1037.32L101.578+971.445Z"/>
<path fill="#000000" opacity="1" d="M1744.11+850.214L1790.45+850.214L1790.45+926.347L1744.11+926.347L1744.11+850.214Z"/>
<path fill="#000000" d="M610.929+1238.95L657.248+1237.5L659.635+1313.6L613.315+1315.05L610.929+1238.95Z" opacity="1"/>
<path d="M1027.48+799.949L1073.8+798.497L1076.19+874.593L1029.87+876.046L1027.48+799.949Z" opacity="1" fill="#000000"/>
<path opacity="1" fill="#000000" d="M136.24+1410.54L182.623+1409.28L185.012+1475.16L138.63+1476.42L136.24+1410.54Z"/>
<path d="M2270.84+703.728L2317.18+703.728L2317.18+779.861L2270.84+779.861L2270.84+703.728Z" fill="#000000" opacity="1"/>
<path d="M3163.86+471.755L3192.91+471.755L3192.91+534.264L3163.86+534.264L3163.86+471.755Z" opacity="1" fill="#000000"/>
<path d="M3549.24+495.841L3578.28+495.841L3578.28+558.349L3549.24+558.349L3549.24+495.841Z" opacity="1" fill="#000000"/>
<path d="M2023.06+1230.45L2069.4+1230.45L2069.4+1306.59L2023.06+1306.59L2023.06+1230.45Z" fill="#000000" opacity="1"/>
<path opacity="1" d="M1836.05+329.721L1882.4+329.721L1882.4+405.854L1836.05+405.854L1836.05+329.721Z" fill="#000000"/>
<path fill="#000000" opacity="1" d="M686.512+715.834L732.832+714.381L735.218+790.477L688.899+791.93L686.512+715.834Z"/>
<path d="M1103.07+276.83L1149.39+275.378L1151.77+351.474L1105.45+352.926L1103.07+276.83Z" fill="#000000" opacity="1"/>
<path d="M211.926+957.654L258.309+956.397L260.698+1022.28L214.316+1023.53L211.926+957.654Z" opacity="1" fill="#000000"/>
<path opacity="1" fill="#000000" d="M1854.75+837.747L1901.1+837.747L1901.1+913.88L1854.75+913.88L1854.75+837.747Z"/>
<path fill="#000000" opacity="1" d="M721.127+1223.02L767.447+1221.57L769.833+1297.67L723.514+1299.12L721.127+1223.02Z"/>
<path d="M1137.68+784.021L1184+782.568L1186.39+858.664L1140.07+860.117L1137.68+784.021Z" opacity="1" fill="#000000"/>
<path opacity="1" d="M246.588+1396.75L292.971+1395.49L295.36+1461.37L248.978+1462.63L246.588+1396.75Z" fill="#000000"/>
<path opacity="1" fill="#000000" d="M2381.48+691.261L2427.82+691.261L2427.82+767.394L2381.48+767.394L2381.48+691.261Z"/>
<path fill="#000000" opacity="1" d="M3221.47+459.88L3250.43+457.622L3255.29+519.941L3226.33+522.2L3221.47+459.88Z"/>
<path opacity="1" fill="#000000" d="M3618.58+485.605L3647.63+485.605L3647.63+548.114L3618.58+548.114L3618.58+485.605Z"/>
<path opacity="1" d="M2133.7+1217.99L2180.04+1217.99L2180.04+1294.12L2133.7+1294.12L2133.7+1217.99Z" fill="#000000"/>
<path d="M1730.08+462.181L1776.43+462.181L1776.43+538.315L1730.08+538.315L1730.08+462.181Z" opacity="1" fill="#000000"/>
<path fill="#000000" d="M584.748+851.551L631.067+850.098L633.453+926.195L587.134+927.647L584.748+851.551Z" opacity="1"/>
<path fill="#000000" d="M1001.3+412.548L1047.62+411.095L1050.01+487.191L1003.69+488.644L1001.3+412.548Z" opacity="1"/>
<path d="M110.024+1075.15L156.406+1073.89L158.796+1139.77L112.413+1141.03L110.024+1075.15Z" opacity="1" fill="#000000"/>
<path opacity="1" d="M1748.78+970.207L1795.13+970.207L1795.13+1046.34L1748.78+1046.34L1748.78+970.207Z" fill="#000000"/>
<path d="M619.363+1358.74L665.682+1357.29L668.069+1433.39L621.749+1434.84L619.363+1358.74Z" opacity="1" fill="#000000"/>
<path d="M1035.92+919.738L1082.24+918.285L1084.62+994.382L1038.3+995.834L1035.92+919.738Z" opacity="1" fill="#000000"/>
<path fill="#000000" opacity="1" d="M144.686+1514.25L191.068+1512.99L193.458+1578.87L147.075+1580.13L144.686+1514.25Z"/>
<path fill="#000000" opacity="1" d="M2275.51+823.721L2321.85+823.721L2321.85+899.855L2275.51+899.855L2275.51+823.721Z"/>
<path fill="#000000" d="M3163.71+573.471L3192.67+571.212L3197.53+633.532L3168.57+635.791L3163.71+573.471Z" opacity="1"/>
<path fill="#000000" opacity="1" d="M3552.17+594.361L3581.21+594.361L3581.21+656.869L3552.17+656.869L3552.17+594.361Z"/>
<path d="M2027.73+1350.45L2074.07+1350.45L2074.07+1426.58L2027.73+1426.58L2027.73+1350.45Z" opacity="1" fill="#000000"/>
<path opacity="1" d="M1843.85+577.5L1890.19+577.5L1890.19+653.634L1843.85+653.634L1843.85+577.5Z" fill="#000000"/>
<path fill="#000000" d="M702.067+963.247L748.386+961.795L750.773+1037.89L704.453+1039.34L702.067+963.247Z" opacity="1"/>
<path d="M1118.62+524.244L1164.94+522.791L1167.33+598.888L1121.01+600.34L1118.62+524.244Z" opacity="1" fill="#000000"/>
<path fill="#000000" opacity="1" d="M227.502+1171.85L273.884+1170.59L276.274+1236.47L229.892+1237.73L227.502+1171.85Z"/>
<path opacity="1" fill="#000000" d="M1862.55+1085.53L1908.89+1085.53L1908.89+1161.66L1862.55+1161.66L1862.55+1085.53Z"/>
<path d="M736.682+1470.44L783.001+1468.99L785.388+1545.08L739.068+1546.53L736.682+1470.44Z" opacity="1" fill="#000000"/>
<path d="M1153.24+1031.43L1199.56+1029.98L1201.94+1106.08L1155.62+1107.53L1153.24+1031.43Z" opacity="1" fill="#000000"/>
<path opacity="1" d="M262.164+1610.95L308.546+1609.69L310.936+1675.57L264.554+1676.83L262.164+1610.95Z" fill="#000000"/>
<path d="M1873.45+1341.1L1919.8+1341.1L1919.8+1417.23L1873.45+1417.23L1873.45+1341.1Z" fill="#000000" opacity="1"/>
<path d="M755.596+1725.54L801.915+1724.09L804.302+1800.19L757.982+1801.64L755.596+1725.54Z" fill="#000000" opacity="1"/>
<path opacity="1" fill="#000000" d="M1172.15+1286.54L1218.47+1285.09L1220.86+1361.18L1174.54+1362.63L1172.15+1286.54Z"/>
<path fill="#000000" opacity="1" d="M281.104+1831.8L327.486+1830.54L329.876+1896.42L283.493+1897.68L281.104+1831.8Z"/>
<path opacity="1" fill="#000000" d="M1890.6+1582.64L1936.94+1582.64L1936.94+1658.78L1890.6+1658.78L1890.6+1582.64Z"/>
<path d="M780.301+1966.43L826.62+1964.98L829.007+2041.08L782.687+2042.53L780.301+1966.43Z" opacity="1" fill="#000000"/>
<path d="M305.842+2040.35L352.224+2039.09L354.614+2104.97L308.232+2106.23L305.842+2040.35Z" opacity="1" fill="#000000"/>
<path d="M2393.95+1210.2L2440.29+1210.2L2440.29+1286.33L2393.95+1286.33L2393.95+1210.2Z" opacity="1" fill="#000000"/>
<path fill="#000000" opacity="1" d="M3262.39+884.049L3291.35+881.791L3296.21+944.111L3267.25+946.369L3262.39+884.049Z"/>
<path opacity="1" fill="#000000" d="M3626.4+911.672L3655.44+911.672L3655.44+974.181L3626.4+974.181L3626.4+911.672Z"/>
<path d="M2398.62+1467.33L2444.96+1467.33L2444.96+1543.46L2398.62+1543.46L2398.62+1467.33Z" fill="#000000" opacity="1"/>
<path opacity="1" fill="#000000" d="M3281.73+1094.3L3310.69+1092.04L3315.55+1154.36L3286.59+1156.62L3281.73+1094.3Z"/>
<path d="M3629.33+1122.79L3658.37+1122.79L3658.37+1185.29L3629.33+1185.29L3629.33+1122.79Z" opacity="1" fill="#000000"/>
<path fill="#000000" d="M2989.24+800.346L3035.58+800.346L3035.58+876.48L2989.24+876.48L2989.24+800.346Z" opacity="1"/>
<path opacity="1" d="M3017.29+1043.45L3063.63+1043.45L3063.63+1119.58L3017.29+1119.58L3017.29+1043.45Z" fill="#000000"/>
<path d="M3064.04+1299.02L3110.39+1299.02L3110.39+1375.16L3064.04+1375.16L3064.04+1299.02Z" fill="#000000" opacity="1"/>
<path opacity="1" fill="#000000" d="M1398.15+1328.63L1444.5+1328.63L1444.5+1404.76L1398.15+1404.76L1398.15+1328.63Z"/>
<path d="M1044.49+1597.98L1069.31+1593.33L1082.4+1658.01L1057.58+1662.66L1044.49+1597.98Z" fill="#000000" opacity="1"/>
<path opacity="1" d="M1423.09+1577.97L1469.43+1577.97L1469.43+1654.1L1423.09+1654.1L1423.09+1577.97Z" fill="#000000"/>
<path opacity="1" fill="#000000" d="M1100.72+1807.3L1125.54+1802.65L1138.63+1867.32L1113.81+1871.97L1100.72+1807.3Z"/>
<path opacity="1" d="M3596.37+1546.47L3642.71+1546.47L3642.71+1622.61L3596.37+1622.61L3596.37+1546.47Z" fill="#000000"/>
<path fill="#000000" d="M3107.24+1577.97L3153.58+1577.97L3153.58+1654.1L3107.24+1654.1L3107.24+1577.97Z" opacity="1"/>
<path d="M3620.46+1811.42L3666.8+1811.42L3666.8+1887.55L3620.46+1887.55L3620.46+1811.42Z" opacity="1" fill="#000000"/>
<path d="M2389.27+939.04L2435.61+939.04L2435.61+1015.17L2389.27+1015.17L2389.27+939.04Z" opacity="1" fill="#000000"/>
<path d="M3242.16+662.322L3271.12+660.063L3275.98+722.383L3247.02+724.641L3242.16+662.322Z" opacity="1" fill="#000000"/>
<path fill="#000000" opacity="1" d="M3623.47+689.042L3652.51+689.042L3652.51+751.551L3623.47+751.551L3623.47+689.042Z"/>
<path fill="#000000" d="M2141.49+1465.77L2187.83+1465.77L2187.83+1541.9L2141.49+1541.9L2141.49+1465.77Z" opacity="1"/>
<path opacity="1" d="M1736.32+588.409L1782.66+588.409L1782.66+664.542L1736.32+664.542L1736.32+588.409Z" fill="#000000"/>
<path fill="#000000" d="M594.934+977.521L641.254+976.068L643.64+1052.16L597.321+1053.62L594.934+977.521Z" opacity="1"/>
<path opacity="1" fill="#000000" d="M1011.49+538.517L1057.81+537.065L1060.19+613.161L1013.87+614.614L1011.49+538.517Z"/>
<path opacity="1" fill="#000000" d="M120.224+1184.21L166.607+1182.95L168.996+1248.83L122.614+1250.09L120.224+1184.21Z"/>
<path fill="#000000" d="M1755.02+1096.43L1801.36+1096.43L1801.36+1172.57L1755.02+1172.57L1755.02+1096.43Z" opacity="1"/>
<path d="M629.55+1484.71L675.869+1483.26L678.255+1559.36L631.936+1560.81L629.55+1484.71Z" fill="#000000" opacity="1"/>
<path opacity="1" d="M1046.1+1045.71L1092.42+1044.26L1094.81+1120.35L1048.49+1121.8L1046.1+1045.71Z" fill="#000000"/>
<path opacity="1" d="M154.887+1623.31L201.269+1622.05L203.658+1687.93L157.276+1689.18L154.887+1623.31Z" fill="#000000"/>
<path opacity="1" fill="#000000" d="M1765.93+1352.01L1812.27+1352.01L1812.27+1428.14L1765.93+1428.14L1765.93+1352.01Z"/>
<path d="M648.464+1739.82L694.783+1738.36L697.169+1814.46L650.85+1815.91L648.464+1739.82Z" fill="#000000" opacity="1"/>
<path d="M1065.02+1300.81L1111.34+1299.36L1113.72+1375.46L1067.4+1376.91L1065.02+1300.81Z" fill="#000000" opacity="1"/>
<path d="M173.826+1844.16L220.209+1842.9L222.598+1908.78L176.216+1910.04L173.826+1844.16Z" fill="#000000" opacity="1"/>
<path fill="#000000" opacity="1" d="M1783.07+1593.55L1829.41+1593.55L1829.41+1669.69L1783.07+1669.69L1783.07+1593.55Z"/>
<path fill="#000000" opacity="1" d="M673.168+1980.71L719.488+1979.25L721.874+2055.35L675.555+2056.8L673.168+1980.71Z"/>
<path opacity="1" fill="#000000" d="M198.565+2052.71L244.947+2051.45L247.336+2117.33L200.954+2118.59L198.565+2052.71Z"/>
<path d="M2286.42+1221.1L2332.76+1221.1L2332.76+1297.24L2286.42+1297.24L2286.42+1221.1Z" fill="#000000" opacity="1"/>
<path d="M3195.9+898.219L3224.86+895.961L3229.72+958.28L3200.76+960.539L3195.9+898.219Z" opacity="1" fill="#000000"/>
<path d="M3559+920.628L3588.05+920.628L3588.05+983.137L3559+983.137L3559+920.628Z" opacity="1" fill="#000000"/>
<path d="M2291.1+1478.23L2337.44+1478.23L2337.44+1554.37L2291.1+1554.37L2291.1+1478.23Z" fill="#000000" opacity="1"/>
<path d="M3215.24+1108.47L3244.19+1106.21L3249.06+1168.53L3220.1+1170.79L3215.24+1108.47Z" opacity="1" fill="#000000"/>
<path d="M3561.93+1131.74L3590.98+1131.74L3590.98+1194.25L3561.93+1194.25L3561.93+1131.74Z" fill="#000000" opacity="1"/>
<path d="M2881.71+811.255L2928.06+811.255L2928.06+887.388L2881.71+887.388L2881.71+811.255Z" opacity="1" fill="#000000"/>
<path fill="#000000" opacity="1" d="M2909.76+1054.36L2956.11+1054.36L2956.11+1130.49L2909.76+1130.49L2909.76+1054.36Z"/>
<path d="M2956.52+1309.93L3002.86+1309.93L3002.86+1386.06L2956.52+1386.06L2956.52+1309.93Z" opacity="1" fill="#000000"/>
<path fill="#000000" d="M1290.63+1339.54L1336.97+1339.54L1336.97+1415.67L1290.63+1415.67L1290.63+1339.54Z" opacity="1"/>
<path opacity="1" d="M988.755+1618.04L1013.58+1613.39L1026.67+1678.07L1001.85+1682.72L988.755+1618.04Z" fill="#000000"/>
<path d="M1315.56+1588.88L1361.9+1588.88L1361.9+1665.01L1315.56+1665.01L1315.56+1588.88Z" opacity="1" fill="#000000"/>
<path fill="#000000" d="M1044.98+1827.36L1069.81+1822.71L1082.9+1887.38L1058.07+1892.03L1044.98+1827.36Z" opacity="1"/>
<path d="M3488.84+1557.38L3535.18+1557.38L3535.18+1633.51L3488.84+1633.51L3488.84+1557.38Z" opacity="1" fill="#000000"/>
<path d="M2999.71+1588.88L3046.06+1588.88L3046.06+1665.01L2999.71+1665.01L2999.71+1588.88Z" fill="#000000" opacity="1"/>
<path d="M3512.93+1822.32L3559.27+1822.32L3559.27+1898.46L3512.93+1898.46L3512.93+1822.32Z" opacity="1" fill="#000000"/>
<path opacity="1" fill="#000000" d="M2281.74+949.949L2328.09+949.949L2328.09+1026.08L2281.74+1026.08L2281.74+949.949Z"/>
<path fill="#000000" d="M3175.67+676.491L3204.62+674.233L3209.49+736.552L3180.53+738.811L3175.67+676.491Z" opacity="1"/>
<path opacity="1" fill="#000000" d="M3556.07+697.999L3585.12+697.999L3585.12+760.507L3556.07+760.507L3556.07+697.999Z"/>
<path d="M2033.97+1476.68L2080.31+1476.68L2080.31+1552.81L2033.97+1552.81L2033.97+1476.68Z" fill="#000000" opacity="1"/>
<path d="M1842.29+702.169L1888.63+702.169L1888.63+778.303L1842.29+778.303L1842.29+702.169Z" fill="#000000" opacity="1"/>
<path fill="#000000" d="M704.417+1087.9L750.736+1086.45L753.123+1162.55L706.803+1164L704.417+1087.9Z" opacity="1"/>
<path opacity="1" fill="#000000" d="M1120.97+648.9L1167.29+647.448L1169.68+723.544L1123.36+724.997L1120.97+648.9Z"/>
<path fill="#000000" d="M229.855+1279.77L276.238+1278.51L278.627+1344.39L232.245+1345.65L229.855+1279.77Z" opacity="1"/>
<path d="M1860.99+1210.2L1907.33+1210.2L1907.33+1286.33L1860.99+1286.33L1860.99+1210.2Z" fill="#000000" opacity="1"/>
<path d="M739.032+1595.09L785.351+1593.64L787.738+1669.74L741.418+1671.19L739.032+1595.09Z" opacity="1" fill="#000000"/>
<path fill="#000000" opacity="1" d="M1155.59+1156.09L1201.91+1154.64L1204.29+1230.73L1157.97+1232.19L1155.59+1156.09Z"/>
<path fill="#000000" d="M264.517+1718.87L310.9+1717.61L313.289+1783.49L266.907+1784.75L264.517+1718.87Z" opacity="1"/>
<path opacity="1" fill="#000000" d="M1871.9+1465.77L1918.24+1465.77L1918.24+1541.9L1871.9+1541.9L1871.9+1465.77Z"/>
<path d="M757.946+1850.2L804.265+1848.75L806.652+1924.84L760.332+1926.29L757.946+1850.2Z" opacity="1" fill="#000000"/>
<path opacity="1" fill="#000000" d="M283.457+1939.72L329.839+1938.47L332.229+2004.35L285.847+2005.6L283.457+1939.72Z"/>
<path d="M2392.39+1334.86L2438.73+1334.86L2438.73+1411L2392.39+1411L2392.39+1334.86Z" fill="#000000" opacity="1"/>
<path d="M3269.38+986.174L3298.33+983.915L3303.2+1046.24L3274.24+1048.49L3269.38+986.174Z" opacity="1" fill="#000000"/>
<path d="M3625.42+1014.03L3654.47+1014.03L3654.47+1076.54L3625.42+1076.54L3625.42+1014.03Z" opacity="1" fill="#000000"/>
<path fill="#000000" d="M2397.06+1591.99L2443.41+1591.99L2443.41+1668.13L2397.06+1668.13L2397.06+1591.99Z" opacity="1"/>
<path opacity="1" fill="#000000" d="M3288.71+1196.42L3317.67+1194.16L3322.53+1256.48L3293.58+1258.74L3288.71+1196.42Z"/>
<path d="M3628.35+1225.14L3657.4+1225.14L3657.4+1287.65L3628.35+1287.65L3628.35+1225.14Z" opacity="1" fill="#000000"/>
<path opacity="1" fill="#000000" d="M2987.68+925.015L3034.03+925.015L3034.03+1001.15L2987.68+1001.15L2987.68+925.015Z"/>
<path d="M3015.73+1168.12L3062.08+1168.12L3062.08+1244.25L3015.73+1244.25L3015.73+1168.12Z" opacity="1" fill="#000000"/>
<path d="M3062.48+1423.69L3108.83+1423.69L3108.83+1499.82L3062.48+1499.82L3062.48+1423.69Z" opacity="1" fill="#000000"/>
<path fill="#000000" d="M1396.6+1453.3L1442.94+1453.3L1442.94+1529.43L1396.6+1529.43L1396.6+1453.3Z" opacity="1"/>
<path d="M1065.09+1704.05L1089.91+1699.4L1103+1764.07L1078.18+1768.73L1065.09+1704.05Z" opacity="1" fill="#000000"/>
<path fill="#000000" opacity="1" d="M1421.53+1702.64L1467.87+1702.64L1467.87+1778.77L1421.53+1778.77L1421.53+1702.64Z"/>
<path opacity="1" d="M1121.32+1913.36L1146.14+1908.71L1159.23+1973.39L1134.41+1978.04L1121.32+1913.36Z" fill="#000000"/>
<path d="M3594.81+1671.14L3641.15+1671.14L3641.15+1747.27L3594.81+1747.27L3594.81+1671.14Z" opacity="1" fill="#000000"/>
<path fill="#000000" opacity="1" d="M3105.68+1702.64L3152.03+1702.64L3152.03+1778.77L3105.68+1778.77L3105.68+1702.64Z"/>
<path fill="#000000" opacity="1" d="M3618.9+1936.09L3665.24+1936.09L3665.24+2012.22L3618.9+2012.22L3618.9+1936.09Z"/>
<path opacity="1" d="M2387.71+1063.71L2434.06+1063.71L2434.06+1139.84L2387.71+1139.84L2387.71+1063.71Z" fill="#000000"/>
<path opacity="1" fill="#000000" d="M3249.14+764.446L3278.1+762.188L3282.96+824.507L3254.01+826.766L3249.14+764.446Z"/>
<path fill="#000000" opacity="1" d="M3622.49+791.401L3651.54+791.401L3651.54+853.909L3622.49+853.909L3622.49+791.401Z"/>
<path opacity="1" d="M2139.93+1590.44L2186.28+1590.44L2186.28+1666.57L2139.93+1666.57L2139.93+1590.44Z" fill="#000000"/>
<path fill="#000000" d="M1747.23+730.22L1793.57+730.22L1793.57+806.353L1747.23+806.353L1747.23+730.22Z" opacity="1"/>
<path opacity="1" fill="#000000" d="M610.283+1118.92L656.602+1117.47L658.989+1193.56L612.669+1195.02L610.283+1118.92Z"/>
<path d="M1026.84+679.917L1073.16+678.464L1075.54+754.561L1029.22+756.013L1026.84+679.917Z" opacity="1" fill="#000000"/>
<path opacity="1" fill="#000000" d="M135.593+1306.62L181.976+1305.37L184.365+1371.25L137.983+1372.5L135.593+1306.62Z"/>
<path fill="#000000" opacity="1" d="M1765.93+1238.25L1812.27+1238.25L1812.27+1314.38L1765.93+1314.38L1765.93+1238.25Z"/>
<path d="M644.898+1626.11L691.217+1624.66L693.604+1700.75L647.284+1702.21L644.898+1626.11Z" opacity="1" fill="#000000"/>
<path opacity="1" d="M1061.45+1187.11L1107.77+1185.65L1110.16+1261.75L1063.84+1263.2L1061.45+1187.11Z" fill="#000000"/>
<path d="M170.256+1745.72L216.638+1744.46L219.028+1810.34L172.645+1811.6L170.256+1745.72Z" opacity="1" fill="#000000"/>
<path fill="#000000" opacity="1" d="M1776.84+1493.82L1823.18+1493.82L1823.18+1569.95L1776.84+1569.95L1776.84+1493.82Z"/>
<path opacity="1" d="M663.812+1881.21L710.131+1879.76L712.518+1955.86L666.198+1957.31L663.812+1881.21Z" fill="#000000"/>
<path opacity="1" fill="#000000" d="M189.195+1966.58L235.578+1965.32L237.967+2031.2L191.585+2032.46L189.195+1966.58Z"/>
<path d="M2297.33+1362.91L2343.67+1362.91L2343.67+1439.05L2297.33+1439.05L2297.33+1362.91Z" fill="#000000" opacity="1"/>
<path d="M3211.77+1013.77L3240.73+1011.51L3245.59+1073.83L3216.63+1076.09L3211.77+1013.77Z" fill="#000000" opacity="1"/>
<path opacity="1" fill="#000000" d="M3565.84+1037.06L3594.89+1037.06L3594.89+1099.57L3565.84+1099.57L3565.84+1037.06Z"/>
<path fill="#000000" d="M2302+1620.04L2348.35+1620.04L2348.35+1696.18L2302+1696.18L2302+1620.04Z" opacity="1"/>
<path d="M3231.11+1224.01L3260.06+1221.76L3264.93+1284.08L3235.97+1286.33L3231.11+1224.01Z" opacity="1" fill="#000000"/>
<path opacity="1" d="M3568.77+1248.18L3597.82+1248.18L3597.82+1310.68L3568.77+1310.68L3568.77+1248.18Z" fill="#000000"/>
<path fill="#000000" d="M2892.62+953.065L2938.97+953.065L2938.97+1029.2L2892.62+1029.2L2892.62+953.065Z" opacity="1"/>
<path fill="#000000" d="M2920.67+1196.17L2967.02+1196.17L2967.02+1272.3L2920.67+1272.3L2920.67+1196.17Z" opacity="1"/>
<path opacity="1" fill="#000000" d="M2967.42+1451.74L3013.77+1451.74L3013.77+1527.88L2967.42+1527.88L2967.42+1451.74Z"/>
<path fill="#000000" d="M1301.53+1481.35L1347.88+1481.35L1347.88+1557.48L1301.53+1557.48L1301.53+1481.35Z" opacity="1"/>
<path d="M1018.98+1737.42L1043.81+1732.77L1056.9+1797.45L1032.07+1802.1L1018.98+1737.42Z" opacity="1" fill="#000000"/>
<path opacity="1" d="M1326.47+1730.69L1372.81+1730.69L1372.81+1806.82L1326.47+1806.82L1326.47+1730.69Z" fill="#000000"/>
<path d="M1075.21+1946.73L1100.04+1942.08L1113.13+2006.76L1088.3+2011.41L1075.21+1946.73Z" opacity="1" fill="#000000"/>
<path fill="#000000" opacity="1" d="M3499.75+1699.19L3546.09+1699.19L3546.09+1775.33L3499.75+1775.33L3499.75+1699.19Z"/>
<path fill="#000000" d="M3010.62+1730.69L3056.97+1730.69L3056.97+1806.82L3010.62+1806.82L3010.62+1730.69Z" opacity="1"/>
<path opacity="1" d="M3523.84+1964.14L3570.18+1964.14L3570.18+2040.27L3523.84+2040.27L3523.84+1964.14Z" fill="#000000"/>
<path fill="#000000" opacity="1" d="M2292.65+1091.76L2339+1091.76L2339+1167.89L2292.65+1167.89L2292.65+1091.76Z"/>
<path fill="#000000" d="M3191.54+792.04L3220.49+789.781L3225.36+852.101L3196.4+854.36L3191.54+792.04Z" opacity="1"/>
<path fill="#000000" d="M3562.91+814.431L3591.96+814.431L3591.96+876.94L3562.91+876.94L3562.91+814.431Z" opacity="1"/>
<path opacity="1" fill="#000000" d="M2033.76+1581.43L2080.1+1581.43L2080.1+1657.56L2033.76+1657.56L2033.76+1581.43Z"/>
<path d="M1843.85+452.831L1890.19+452.831L1890.19+528.965L1843.85+528.965L1843.85+452.831Z" opacity="1" fill="#000000"/>
<path opacity="1" fill="#000000" d="M698.159+838.64L744.478+837.187L746.865+913.283L700.545+914.736L698.159+838.64Z"/>
<path d="M1114.71+399.636L1161.03+398.184L1163.42+474.28L1117.1+475.732L1114.71+399.636Z" opacity="1" fill="#000000"/>
<path d="M223.589+1063.97L269.971+1062.72L272.361+1128.59L225.979+1129.85L223.589+1063.97Z" opacity="1" fill="#000000"/>
<path opacity="1" fill="#000000" d="M1862.55+960.857L1908.89+960.857L1908.89+1036.99L1862.55+1036.99L1862.55+960.857Z"/>
<path opacity="1" fill="#000000" d="M732.774+1345.83L779.094+1344.38L781.48+1420.47L735.161+1421.93L732.774+1345.83Z"/>
<path fill="#000000" d="M1149.33+906.827L1195.65+905.374L1198.03+981.47L1151.71+982.923L1149.33+906.827Z" opacity="1"/>
<path d="M258.251+1503.07L304.633+1501.81L307.023+1567.69L260.641+1568.95L258.251+1503.07Z" opacity="1" fill="#000000"/>
<path opacity="1" d="M2389.27+814.371L2435.61+814.371L2435.61+890.505L2389.27+890.505L2389.27+814.371Z" fill="#000000"/>
<path fill="#000000" d="M3234.2+560.273L3263.16+558.015L3268.02+620.334L3239.06+622.593L3234.2+560.273Z" opacity="1"/>
<path opacity="1" fill="#000000" d="M3623.47+586.684L3652.51+586.684L3652.51+649.193L3623.47+649.193L3623.47+586.684Z"/>
<path opacity="1" fill="#000000" d="M2141.49+1341.1L2187.83+1341.1L2187.83+1417.23L2141.49+1417.23L2141.49+1341.1Z"/>
</g>
</svg>
